<?xml version="1.0" encoding="utf-8"?>
<!-- Generator: Adobe Illustrator 26.3.1, SVG Export Plug-In . SVG Version: 6.00 Build 0)  -->
<svg version="1.1" id="Layer_1" xmlns="http://www.w3.org/2000/svg" xmlns:xlink="http://www.w3.org/1999/xlink" x="0px" y="0px"
	 viewBox="0 0 653.4 243.9" style="enable-background:new 0 0 653.4 243.9;" xml:space="preserve">
<style type="text/css">
	.st0{fill:#ED1C24;}
</style>
<g>
	<g>
		<path d="M582.1,0c0.7,0.2,1.3,0.4,2,0.5c3.3,0.8,6.2,2.3,8.6,4.7c18.3,18.2,36.5,36.5,54.8,54.7c4,4,5.9,8.8,5.9,14.5
			c0,51.8,0,103.5,0,155.3c0,8.2-6,14.2-14.3,14.2c-20.1,0-40.2,0-60.2,0c-28.2,0-56.5,0-84.7,0c-1.3,0-2.6,0-3.8-0.1
			c-7.2-0.7-12.5-6.5-12.5-13.8c0-16.3,0-32.7,0-49c0-29,0-57.9,0-86.9c0-26.4,0-52.8,0-79.2c0-7.9,3.9-12.9,11.6-14.8
			c0.1,0,0.2-0.1,0.4-0.2C520.5,0,551.3,0,582.1,0z M487.5,121.9C487.5,121.9,487.5,121.9,487.5,121.9c0,36,0,71.9,0,107.9
			c0,3,1.5,4.5,4.6,4.5c22.6,0,45.2,0,67.9,0c26.4,0,52.7,0,79.1,0c3.1,0,4.6-1.4,4.6-4.3c0-14.7,0-29.3,0-44c0-23.7,0-47.4,0-71.2
			c0-13.6,0-27.2,0-40.8c0-2.7-1-5.1-2.9-7c-17.8-17.8-35.6-35.6-53.4-53.4c-2.6-2.6-5.4-3.8-9.1-3.8c-23.4,0.1-46.9,0-70.3,0
			c-5.4,0-10.8,0-16.2,0c-2.7,0-4.1,1.5-4.2,4.2c0,0.4,0,0.8,0,1.2C487.5,50.7,487.5,86.3,487.5,121.9z"/>
		<path d="M519,128.5c13.3,0,20.1,8,20.1,21.9v2.7h-12.9v-3.6c0-6.2-2.5-8.6-6.8-8.6s-6.8,2.4-6.8,8.6c0,6.3,2.7,11.1,11.7,18.9
			c11.4,10.1,15,17.3,15,27.2c0,13.9-7,21.9-20.4,21.9s-20.4-8-20.4-21.9v-5.3h12.9v6.2c0,6.2,2.7,8.5,7.1,8.5
			c4.3,0,7.1-2.2,7.1-8.5c0-6.3-2.7-11.1-11.7-18.9c-11.4-10.1-15-17.3-15-27.2C498.8,136.4,505.7,128.5,519,128.5z"/>
		<path d="M548.6,128.5h13.7v88h-13.7V128.5z"/>
		<path d="M601.8,191.2h0.2l9.2-61.8h19v87h-12.9v-62.4h-0.2l-9.2,62.4H595l-9.9-61.5h-0.2v61.5h-11.9v-87h19L601.8,191.2z"/>
		<path class="st0" d="M548.6,114.4c0.1-3.7,0-8,0.2-11.7l0,0l-13.5,0.1l0,0c0.7-1.5,2.7-4.8,3.4-5.9l-2.2-1.5
			c-5.1-3.6-10.1-7.4-15.2-11.1c-0.4-0.3-0.8-0.7-1.5-1.2c1.3-0.8,2.3-1.4,3.3-1.9l1.7-1.1c-1.4-3.5-3.5-8.6-5-12.7
			c1.3,0.2,2.3,0.4,3.3,0.6c1.8,0.4,3.6,1,5.4,1.3l1.4,0.3l3.8-5.1c0,0,0,0,1.9,1.9c3.2,3.2,6.5,6.5,9.7,9.7
			c0.2,0.2,0.5,0.4,1.2,0.9c-2.3-8.3-4.4-16.1-6.7-24.5c2.4,1.4,4.4,2.4,6.3,3.6l1.8,1.2c1.6-3.1,4.4-8.2,6.1-11.3
			c0.3-0.6,0.8-1.2,1.3-2.2c1.5,2.7,2.9,5.1,4.2,7.5c0.8,1.4,1.6,2.8,2.3,4.3l0.8,1.5c2-1.2,5.6-3.2,7.7-4.3c0.1,0.1-0.1-0.1,0,0
			c-2.2,7.8-4,15.9-6.2,23.8c0.1,0.1,0.2,0.1,0.3,0.2c4.1-4,8.2-8.1,12.5-12.3c1,1.3,1.9,2.3,2.6,3.5L581,70
			c1.9-0.5,7.7-2.1,7.7-2.1c0.6-0.1,2.1-0.4,2.1-0.4c-0.2,0.7-0.2,1.2-0.4,1.6l-3.5,9.5l-1,1.9c0,0,4,1.9,5.3,2.6
			c-1,0.8-1.7,1.5-2.5,2c-4.8,3.5-9.5,7-14.4,10.4l-1.8,1.1c0.8,1.2,2.5,4.5,3.3,6l0,0l0,0l-13.5,0.1c0.1,3.7,0,7.8,0,11.5"/>
	</g>
	<path d="M0,129.4h13.8v75h22.6v12.5H0V129.4z"/>
	<path d="M86.9,216.9H73L70.6,201H53.8l-2.4,15.9H38.8l14-87.5h20.1L86.9,216.9z M55.5,189.2h13.2l-6.5-44.2H62L55.5,189.2z"/>
	<path d="M153.7,149.5v3.1c0,9-2.8,14.6-8.9,17.5v0.2c7.4,2.9,10.2,9.4,10.2,18.6v7.1c0,13.5-7.1,20.8-20.9,20.8h-21.6v-87.5h20.7
		C147.6,129.4,153.7,136,153.7,149.5z M126.4,141.9V165h5.4c5.1,0,8.2-2.2,8.2-9.2v-4.9c0-6.2-2.1-9-7-9H126.4z M126.4,177.5v26.9
		h7.9c4.6,0,7.1-2.1,7.1-8.6v-7.6c0-8.1-2.6-10.6-8.9-10.6L126.4,177.5L126.4,177.5z"/>
	<path d="M162.2,150.4c0-14,7.4-22,20.9-22c13.5,0,20.9,8,20.9,22v45.5c0,14-7.4,22-20.9,22s-20.9-8-20.9-22V150.4L162.2,150.4z
		 M176,196.8c0,6.2,2.8,8.6,7.1,8.6s7.1-2.4,7.1-8.6v-47.2c0-6.2-2.8-8.6-7.1-8.6s-7.1,2.4-7.1,8.6V196.8L176,196.8z"/>
	<path d="M226,129.4v67.5c0,6.2,2.8,8.5,7.1,8.5s7.1-2.2,7.1-8.5v-67.5h13V196c0,14-7,22-20.5,22s-20.5-8-20.5-22v-66.6H226z"/>
	<path d="M258.6,129.4h42.5v12.5h-14.4v75H273v-75h-14.4L258.6,129.4L258.6,129.4z"/>
	<path d="M307.1,129.4h13.8v87.5h-13.8V129.4z"/>
	<path d="M329.7,150.4c0-14,7.4-22,20.9-22s20.9,8,20.9,22v45.5c0,4.9-0.9,9-2.6,12.2c0.6,1.6,1.6,1.9,3.9,1.9h1.2v12.2h-1.9
		c-6.1,0-10-2.2-11.9-6c-2.8,1-6,1.6-9.6,1.6c-13.5,0-20.9-8-20.9-22L329.7,150.4L329.7,150.4z M343.5,196.8c0,6.2,2.8,8.6,7.1,8.6
		s7.1-2.4,7.1-8.6v-47.2c0-6.2-2.8-8.6-7.1-8.6s-7.1,2.4-7.1,8.6V196.8z"/>
	<path d="M393.5,129.4v67.5c0,6.2,2.8,8.5,7.1,8.5s7.1-2.2,7.1-8.5v-67.5h13V196c0,14-7,22-20.5,22s-20.5-8-20.5-22v-66.6H393.5z"/>
	<path d="M443.8,166.3h18.9v12.5h-18.9v25.6h23.8v12.5h-37.5v-87.5h37.5v12.5h-23.8V166.3z"/>
</g>
</svg>
