<?xml version="1.0" encoding="utf-8"?>
<!-- Generator: Adobe Illustrator 26.3.1, SVG Export Plug-In . SVG Version: 6.00 Build 0)  -->
<svg version="1.1" id="Layer_1" xmlns="http://www.w3.org/2000/svg" xmlns:xlink="http://www.w3.org/1999/xlink" x="0px" y="0px"
	 viewBox="0 0 482.4 215.9" style="enable-background:new 0 0 482.4 215.9;" xml:space="preserve">
<style type="text/css">
	.st0{fill:#41B6E6;}
</style>
<g>
	<path class="st0" d="M54.2,214.8v-24.1c0-6.8-2.4-11.2-8-11.2c-5.1,0-9,3.1-9,13.4v21.9H27.1v-24.2c0-6.8-2.2-11.1-7.8-11.1
		c-5.1,0-9.2,3.1-9.2,13.4v21.9H0v-43h10.1v6c1.8-4,6.4-7.1,12-7.1c7.8,0,11.7,3.4,13.6,7.6c2-4.3,7.1-7.6,13.2-7.6
		c12.9,0,15.5,8.9,15.5,16.9v27.2L54.2,214.8L54.2,214.8z"/>
	<path class="st0" d="M70.1,193.3c0-12.2,8.9-22.6,22.6-22.6c13.8,0,22.8,10.4,22.8,22.6c0,12.2-8.9,22.6-22.8,22.6
		C79.1,215.9,70.1,205.5,70.1,193.3 M105.4,193.3c0-7.4-5-13.6-12.7-13.6c-7.6,0-12.5,6.3-12.5,13.6s5,13.6,12.5,13.6
		C100.5,207,105.4,200.7,105.4,193.3"/>
	<path class="st0" d="M131.8,214.8h-10.1v-64.6h10.1v27.4c2.7-4.3,8.3-6.9,13.3-6.9c13.1,0,22,10.4,22,22.6c0,12.2-8.9,22.6-22,22.6
		c-5,0-10.6-2.6-13.3-6.9V214.8z M157,193.3c0-7.4-5-13.6-12.5-13.6c-7.8,0-12.7,6.3-12.7,13.6s5,13.6,12.7,13.6
		C152.1,207,157,200.7,157,193.3"/>
	<rect x="194.1" y="150.3" class="st0" width="10" height="64.6"/>
	<path class="st0" d="M220.9,196.4c0.1,6.2,3.1,11.2,11.2,11.2c5.7,0,7.8-2.6,9.1-5.6h10.1c-1.4,7.4-8.3,14-19.3,14
		c-14.5,0-21.5-10.9-21.5-22.6c0-12.9,7.7-22.6,21.2-22.6c11.2,0,19.9,8.4,19.9,19.4c0,1.5,0,3.5-0.5,6.3L220.9,196.4L220.9,196.4z
		 M221,188.9h21c0-6-4.3-9.8-10.4-9.8C225.7,179.1,221,182.5,221,188.9"/>
	<rect x="174.1" y="171.4" class="st0" width="10.1" height="43.4"/>
	<path class="st0" d="M179.1,150.3c3.6,0,6.4,2.9,6.4,6.4c0,3.5-2.9,6.4-6.4,6.4c-3.5,0-6.4-2.9-6.4-6.4
		C172.7,153.1,175.6,150.3,179.1,150.3"/>
	<rect x="0" y="0.1" class="st0" width="36.9" height="131.9"/>
	<path class="st0" d="M110.3,84.1c0,12.8-4.9,19.4-14.1,19.4c-9.4,0-12.8-6.6-12.8-17.7V38.3H46.3v55.4c0,13.9,1.7,24.3,8.7,31.6
		c5.5,5.6,13.6,8.9,24.5,8.9c15.1,0,26-6.2,30.9-16.2v13.9h36.9V38.3h-36.9L110.3,84.1L110.3,84.1z M206,66.2
		c8.7,0,13.6,4.5,14.9,11.1h36.9c-2.3-22.4-19.6-41.6-52-41.6C170.4,35.7,152,58.5,152,85c0,26.6,18.3,49.5,54,49.5
		c31.3,0,49.2-17.7,51.8-40.5h-37.1c-1.9,6.2-6.2,10-14.3,10c-12.2,0-17.5-8.9-17.5-18.8C188.9,75.2,194,66.2,206,66.2z"/>
	<path class="st0" d="M462.4,38.2h-36.9v0.1l0,0v45.7c0,12.8-4.9,19.4-14.1,19.4c-9.4,0-12.8-6.6-12.8-17.7V38.2h-75.3l-23.7,37.7V0
		h-36.9v131.9h36.9V94.4l23.5,37.5h43.1l-33.9-46.7l29.2-40.4v48.9c0,13.9,1.7,24.3,8.7,31.6c5.5,5.6,13.6,8.9,24.5,8.9
		c15.1,0,26-6.2,30.9-16.2l0,0v7.8c0,13.2-4.3,18.5-14.5,18.5v24.3c38.8,0,51.4-12.6,51.4-46.1L462.4,38.2L462.4,38.2z"/>
	<g>
		<path class="st0" d="M474.4,45.9h-1.3v-4.7l-1.9,4.7h-1l-1.9-4.7v4.7h-1.3v-7.7h1.2l2.5,5.7l2.4-5.7h1.2L474.4,45.9L474.4,45.9z"
			/>
		<path class="st0" d="M482.8,43.5c-0.3,1.5-1.8,2.6-3.6,2.6c-2.5,0-4-1.9-4-4c0-2.1,1.5-4,3.9-4c2.3,0,3.5,1.3,3.8,3h-1.3
			c-0.2-1.1-1-1.9-2.3-1.9c-1.8,0-2.8,1.4-2.8,2.9c0,1.6,1,2.9,2.9,2.9c0.9,0,1.8-0.6,2.1-1.5L482.8,43.5L482.8,43.5z"/>
	</g>
</g>
</svg>
