<?xml version="1.0" encoding="utf-8"?>
<!-- Generator: Adobe Illustrator 26.3.1, SVG Export Plug-In . SVG Version: 6.00 Build 0)  -->
<svg version="1.1" id="Layer_1" xmlns="http://www.w3.org/2000/svg" xmlns:xlink="http://www.w3.org/1999/xlink" x="0px" y="0px"
	 viewBox="0 0 690.4 313.7" style="enable-background:new 0 0 690.4 313.7;" xml:space="preserve">
<style type="text/css">
	.st0{fill:#ED1C24;}
</style>
<g>
	<g>
		<path d="M333.2,0c0.8,0.2,1.7,0.5,2.5,0.7c4.3,1,8,3,11.1,6.1c23.5,23.5,46.9,47,70.4,70.4c5.2,5.2,7.6,11.3,7.6,18.6
			c0,66.6,0,133.1,0,199.7c0,10.6-7.7,18.2-18.4,18.2c-25.8,0-51.6,0-77.5,0c-36.3,0-72.6,0-108.9,0c-1.6,0-3.3,0-4.9-0.1
			c-9.3-0.9-16.1-8.4-16.1-17.7c-0.1-21,0-42,0-63.1c0-37.2,0-74.5,0-111.7c0-34,0-67.9,0-101.9c0-10.2,5-16.6,15-19
			c0.2,0,0.3-0.1,0.5-0.2C254,0,293.6,0,333.2,0z M211.5,156.7C211.5,156.7,211.5,156.7,211.5,156.7c0,46.2,0,92.5,0,138.8
			c0,3.9,1.9,5.7,5.9,5.7c29.1,0,58.2,0,87.3,0c33.9,0,67.8,0,101.7,0c4,0,5.9-1.8,5.9-5.5c0-18.9,0-37.7,0-56.6c0-30.5,0-61,0-91.5
			c0-17.5,0-35,0-52.5c0-3.5-1.2-6.5-3.7-9c-22.9-22.9-45.8-45.7-68.6-68.7c-3.4-3.4-7-4.8-11.7-4.8c-30.1,0.1-60.3,0-90.5,0
			c-7,0-13.9,0-20.9,0c-3.4,0-5.3,1.9-5.4,5.4c0,0.5,0,1.1,0,1.6C211.5,65.2,211.5,111,211.5,156.7z"/>
		<path d="M252,165.2c17.1,0,25.9,10.2,25.9,28.1v3.5h-16.6v-4.6c0-8-3.2-11-8.8-11s-8.8,3-8.8,11c0,8.1,3.5,14.2,15,24.3
			c14.7,13,19.3,22.2,19.3,35c0,17.9-9,28.1-26.2,28.1c-17.3,0-26.2-10.2-26.2-28.1v-6.9h16.6v8c0,8,3.5,10.9,9.1,10.9
			c5.6,0,9.1-2.9,9.1-10.9c0-8.1-3.5-14.2-15-24.3c-14.7-13-19.3-22.2-19.3-35C226.1,175.4,234.9,165.2,252,165.2z"/>
		<path d="M290.1,165.2h17.6v113.2h-17.6V165.2z"/>
		<path d="M358.6,245.9h0.3l11.8-79.5h24.5v111.9h-16.6v-80.2h-0.3l-11.8,80.2h-16.6L337,199.2h-0.3v79.1h-15.4V166.5h24.5
			L358.6,245.9z"/>
		<path d="M464.6,165.4c17.1,0,25.9,10.2,25.9,28.1v3.5h-16.6v-4.6c0-8-3.2-11-8.8-11s-8.8,3-8.8,11c0,8.1,3.5,14.2,15,24.3
			c14.7,13,19.3,22.2,19.3,35c0,17.9-9,28.1-26.2,28.1s-26.2-10.2-26.2-28.1v-6.9h16.6v8c0,8,3.5,10.9,9.1,10.9
			c5.6,0,9.1-2.9,9.1-10.9c0-8.1-3.5-14.2-15-24.3c-14.7-13-19.3-22.2-19.3-35C438.7,175.6,447.5,165.4,464.6,165.4z"/>
		<path d="M521.3,278.6h-17.6V166.7h17.6v48h20v-48h17.9v111.9h-17.9v-48h-20V278.6z"/>
		<path d="M572.6,193.5c0-17.9,9.4-28.1,26.7-28.1s26.7,10.2,26.7,28.1v58.2c0,17.9-9.4,28.1-26.7,28.1s-26.7-10.2-26.7-28.1V193.5z
			 M590.2,252.8c0,8,3.5,11,9.1,11s9.1-3,9.1-11v-60.4c0-8-3.5-11-9.1-11s-9.1,3-9.1,11V252.8z"/>
		<path d="M690.4,194.3v14.5c0,17.9-8.6,27.6-26.2,27.6h-8.3v42h-17.6V166.7h25.9C681.8,166.7,690.4,176.4,690.4,194.3z
			 M655.9,182.7v37.9h8.3c5.6,0,8.6-2.6,8.6-10.5v-16.8c0-8-3-10.5-8.6-10.5L655.9,182.7L655.9,182.7z"/>
		<path d="M0,166.7h54.3v16H36v95.9H18.4v-95.9H0V166.7z"/>
		<path d="M85.6,278.6H68V166.7h17.6v48h20v-48h17.9v111.9h-17.9v-48h-20L85.6,278.6L85.6,278.6z"/>
		<path d="M154.9,213.8H179v16h-24.1v32.8h30.4v16h-48V166.7h48v16h-30.4L154.9,213.8L154.9,213.8z"/>
	</g>
	<path class="st0" d="M290.1,147.1c0.1-4.8,0-10.2,0.2-15l0,0l-17.3,0.2l0,0c0.9-2,3.4-6.1,4.4-7.6l-2.9-1.9
		c-6.6-4.7-13-9.5-19.5-14.2c-0.6-0.4-1.1-0.9-1.9-1.6c1.6-1,2.9-1.8,4.3-2.5l2.2-1.4c-1.8-4.6-4.5-11.1-6.4-16.3
		c1.7,0.3,3,0.5,4.2,0.8c2.3,0.5,4.6,1.3,7,1.6l1.8,0.4L271,83c0,0,0,0,2.5,2.5c4.2,4.2,8.3,8.3,12.5,12.5c0.3,0.3,0.6,0.5,1.5,1.2
		c-2.9-10.7-5.7-20.8-8.6-31.5c3.1,1.8,5.7,3.1,8.1,4.6l2.4,1.5c2.1-4.1,5.6-10.5,7.8-14.5c0.5-0.8,1-1.6,1.7-2.8
		c2,3.5,3.7,6.6,5.4,9.7c1,1.8,2.1,3.6,3,5.5l1.1,1.9c2.6-1.5,7.2-4.1,9.9-5.6c0.2,0.1-0.2-0.1,0,0c-2.8,10.1-5.1,20.5-7.9,30.6
		c0.1,0.1,0.3,0.1,0.4,0.2c5.3-5.2,10.6-10.4,16.1-15.8c1.2,1.6,2.5,3,3.3,4.5l1.6,2.5c2.5-0.7,9.9-2.8,9.9-2.8
		c0.8-0.2,2.7-0.4,2.7-0.4c-0.2,0.9-0.3,1.5-0.5,2.1l-4.5,12.1l-1.3,2.4c0,0,5.1,2.4,6.8,3.3c-1.2,1-2.2,1.9-3.2,2.6
		c-6.1,4.5-12.3,9-18.5,13.4l-2.4,1.5c1,1.6,3.2,5.8,4.2,7.8l0,0l0,0l-17.3,0.1c0.1,4.8,0,10,0,14.8"/>
</g>
</svg>
