<?xml version="1.0" encoding="UTF-8"?>
<svg width="385px" height="410px" viewBox="0 0 385 410" version="1.1" xmlns="http://www.w3.org/2000/svg" xmlns:xlink="http://www.w3.org/1999/xlink">
    <title>left-SIM-images</title>
    <defs>
        <polygon id="path-1" points="0 0 164 0 164 101 0 101"></polygon>
        <polygon id="path-3" points="0 0 36 0 36 18 0 18"></polygon>
        <polygon id="path-5" points="0 0 177 0 177 123 0 123"></polygon>
    </defs>
    <g id="WEB-ELEMENTS" stroke="none" stroke-width="1" fill="none" fill-rule="evenodd">
        <g id="theSIMshop_LP_desktop" transform="translate(-212.000000, -158.000000)">
            <g id="left-SIM-images" transform="translate(211.999986, 158.000000)">
                <g id="Group-16" transform="translate(0.000000, 69.000000)">
                    <path d="M4.99974016,39 L4.99974016,74.4132606 C4.99575947,76.8146334 8.45625813,78.7658818 11.4957603,78.7712025 L142.376468,79 C145.41597,79.0053097 147.883214,77.062929 147.887474,74.6615561 L148.000414,10.521491 C148.004268,8.12011813 145.543415,5.16886969 142.503913,5.16354907 L48.9556187,5.00002871 C45.3807779,4.99364397 41.2327587,3.43048536 38.6050554,5.34342534 L10.0805803,28 C7.16994285,30.1186706 5.00534445,32.3349653 4.99974016,35.4631348 L4.99974016,39 Z" id="Fill-1" fill="#EC1D24"></path>
                    <g id="Group-5" fill="#231F20">
                        <path d="M48.3596979,0 C43.6569119,0 39.1181558,1.42170737 35.5788797,4.00293804 L6.84267592,24.9630583 C2.5430265,28.0989365 0.0722580813,32.6825267 0.0637185591,37.5379192 L1.39387603e-05,74.0406389 C-0.00495343178,76.8341816 1.31796088,79.4895078 3.6296807,81.3262212 C5.6069359,82.8975445 8.16630186,83.7653168 10.8363258,83.7699477 L142.017263,84.0000712 L142.038968,84.0000712 C144.704722,84.0000712 147.262309,83.1387111 149.240632,81.5748686 C151.553419,79.7470609 152.882382,77.0985031 152.887363,74.3088788 L153.000168,9.89388636 C153.004782,7.10034359 151.681868,4.4446612 149.370504,2.60830402 C147.392893,1.03698074 144.833527,0.169208469 142.163858,0.1645775 L48.4006165,0 L48.3596979,0 Z M48.3596979,5.34342534 C48.3703723,5.34342534 48.3806909,5.34342534 48.3913653,5.34342534 L142.154251,5.50800284 C145.200726,5.51334626 147.667225,7.47260222 147.66296,9.88462442 L147.550162,74.2992607 C147.545892,76.7077206 145.079749,78.6566459 142.038968,78.6566459 L142.026514,78.6566459 L10.8455769,78.4265224 C7.79910241,78.421179 5.33295956,76.461923 5.33722379,74.0499008 L5.40091993,37.5475374 C5.40661294,34.4056033 7.06826163,31.4097228 9.9855759,29.2816146 L38.7217797,8.32185062 C41.3476828,6.40641075 44.7880428,5.34342534 48.3596979,5.34342534 L48.3596979,5.34342534 Z" id="Fill-3"></path>
                    </g>
                    <path d="M54.0000139,22 C50.2284211,23.4234737 47.6129853,24.4164666 46.1586354,24.9877376 C45.3862211,25.6290793 45.0000139,26.3057808 45.0000139,27 C48.5093239,25.7082333 51.0627975,24.759359 52.6576184,24.1618115 C53.554309,23.4675923 54.0000139,22.7467722 54.0000139,22" id="Fill-6" fill="#FEFEFE"></path>
                    <path d="M53.6447878,26.7194675 C53.8831308,26.4948871 54.0000139,25.9249469 54.0000139,25 C50.2284211,26.7352884 47.6129853,27.937295 46.1586354,28.6060197 C45.3862211,29.3797029 45.0000139,30.1742234 45.0000139,31 C48.5093239,29.4634382 51.0698387,28.3397646 52.6840227,27.6289794 C53.089241,27.2473471 53.4089093,26.9440478 53.6447878,26.7194675" id="Fill-8" fill="#FEFEFE"></path>
                    <polygon id="Fill-10" fill="#FEFEFE" points="47.0000139 62.8062489 51.0504987 65 53.0000139 61.21749 48.8498969 59"></polygon>
                    <path d="M79.0043499,47.1241386 C76.2211474,44.6064186 74.2137617,42.8950909 72.9818348,41.99557 C70.5018703,40.1965282 68.353785,39.2970073 66.5329247,39.2970073 C64.675905,39.2970073 63.1410981,39.8835729 61.9288619,41.0520116 C61.0900346,41.8587648 60.4112397,42.9344359 59.8946252,44.2642252 C60.8208079,44.1371661 61.7419785,44.0732756 62.6513346,44.0732756 C64.1327974,44.0732756 65.5945695,44.3227013 67.0420209,44.8312988 C68.3244279,45.2810593 69.7453863,45.9997375 71.2970199,46.9873335 C72.5454154,47.7792873 74.0802224,48.8888889 75.9010827,50.3067533 L55.7950044,50.3067533 L55.7950044,48.4196364 C55.7950044,45.2175297 55.5547769,42.9246899 55.0725317,41.5360635 C54.7499609,40.6170506 53.947651,39.3410448 52.66238,37.7033537 L50.5751571,42.1031371 C51.9134143,43.5599856 52.7522416,44.6746407 53.0916391,45.4471024 C53.5910689,46.5668111 53.8409628,48.1850102 53.8409628,50.3067533 L43.0711792,50.3067533 L40.5378706,50.3067533 L39.3231284,50.3067533 C38.733837,50.3067533 38.1907294,49.9302684 37.6912996,49.1726062 C37.0830335,48.2730853 36.6197631,46.2246177 36.2996984,43.02215 C36.1203332,36.041117 35.9409681,31.6117346 35.7641091,29.7441097 C35.4780557,26.7423377 34.9882923,24.1610881 34.2923127,22 L31.0000139,27.2314432 C31.6956356,27.8815384 32.2387431,28.6392006 32.6314847,29.4997375 C32.9540555,30.2036162 33.2086036,31.1031371 33.395129,32.2130997 C33.5820125,33.3227013 33.7345265,34.9459539 33.8512391,37.0871891 C33.9650877,39.2284242 34.0764301,41.3111833 34.1856244,43.3448513 C34.3624834,45.8481328 34.6173896,47.9503839 34.9467626,49.6613507 C35.2764937,51.3726783 35.7641091,52.6533766 36.4063866,53.518606 C37.1385257,54.5112555 38.1108923,55 39.3231284,55 L40.5378706,55 L43.0711792,55 L54.0858445,55 L55.7950044,55 L85.0000139,55 L85.0000139,50.3067533 L83.3950362,50.3067533 C82.6263797,50.1454026 81.1646077,49.0845311 79.0043499,47.1241386" id="Fill-12" fill="#FEFEFE"></path>
                    <path d="M129.721952,49.5880139 C128.699392,49.4689053 127.61248,49.1358229 126.458387,48.5887668 C125.304295,48.0462782 124.408671,47.432465 123.77399,46.7518948 C124.303303,45.8763238 124.760485,45.2526728 125.148365,44.8865633 C125.730361,44.3106962 126.44389,43.9108568 127.291427,43.7014506 C127.959698,44.5770215 128.498557,45.4290518 128.903056,46.2522712 C129.379684,47.2325453 129.731499,48.2317924 129.961327,49.245445 L129.721952,49.5880139 Z M131.546437,44.9912664 C130.823361,43.5205039 129.85596,41.8645786 128.639637,40.0277067 C127.459025,40.3038699 126.163853,40.9556292 124.753413,41.9692817 C123.185276,43.1115294 121.863231,44.4487778 120.788341,45.9855945 C119.99561,47.1278422 119.112007,48.0128997 118.144606,48.6411183 C116.892571,49.4499322 115.465513,49.8497716 113.860956,49.8497716 L111.505037,49.8497716 L111.505037,48.0413592 C111.505037,46.1855142 111.117157,44.5011293 110.341398,42.9973398 C109.654034,41.6646589 108.588336,40.3323295 107.142185,39 L105.636278,43.1255835 C106.816535,44.4248858 107.733728,45.6809717 108.385027,46.9089495 C109.196852,48.4317121 109.60135,49.8877177 109.60135,51.2678311 C109.60135,52.8808914 108.818519,54.6893038 107.250027,56.692717 C105.679061,58.701049 103.785274,60.3569744 101.565484,61.6703308 C99.115866,63.1073633 96.762422,63.826231 94.5065667,63.826231 C93.4843602,63.826231 92.3444108,63.7071224 91.0849506,63.4692566 C89.8230152,63.2313909 88.6116422,63.0026602 87.4501242,62.774281 L87.0000139,63.826231 C88.2499275,64.2970436 89.5118628,64.7731265 90.7808698,65.2442905 C92.2775838,65.8008332 93.5656842,66.2150781 94.640928,66.4768358 C96.0488929,66.8288912 97.3631584,67 98.5773601,67 C99.8990508,67 101.582456,66.3721327 103.627223,65.1156954 C105.777357,63.802339 107.575677,62.2317924 109.019353,60.4093259 C110.676594,58.3440747 111.505037,56.3501481 111.505037,54.4180595 L113.940159,54.4180595 C115.984925,54.4180595 117.541395,54.1801937 118.606738,53.6995432 C119.672435,53.2188927 120.716564,52.3528083 121.73877,51.1107765 C123.043843,52.1813482 124.54975,53.018973 126.259674,53.6327862 C127.739416,54.1612207 129.070654,54.4180595 130.251265,54.4180595 L133.000014,54.4180595 L133.000014,49.8497716 C133.000014,48.6077398 132.516313,46.9848416 131.546437,44.9912664 L131.546437,44.9912664 Z" id="Fill-14" fill="#FEFEFE"></path>
                </g>
                <g id="Group-17" transform="translate(30.000014, 198.000000)">
                    <path d="M160,44.8646101 L159.921622,89.6523821 C159.916279,92.6113372 157.239245,95.0056822 153.941749,95 L11.9610031,94.7516611 C8.66350715,94.7459687 5.99466534,92.3423736 6,89.3830627 L6.13856125,10.3476179 C6.14390392,7.38866284 8.82093783,4.99431778 12.1180776,5 L113.600672,5.17754032 C117.478738,5.18429999 121.211483,6.50314651 124.054496,8.87116445 L155.07119,34.7044755 C158.220159,37.3268704 160.006748,41.0098213 160,44.8646101" id="Fill-1" fill="#FEFEFE"></path>
                    <g id="Group-5">
                        <mask id="mask-2" fill="white">
                            <use xlink:href="#path-1"></use>
                        </mask>
                        <g id="Clip-4"></g>
                        <path d="M11.4225565,0 L11.4133344,0 L11.4012747,0 C5.20083534,0 0.148191956,4.80459482 0.137905774,10.7095957 L-8.66388362e-05,90.0016503 C-0.0103571209,95.9177159 5.03519235,100.7398 11.2473367,100.750865 L152.637289,101 L152.65857,101 C158.85901,101 163.911653,96.1957621 163.921939,90.2904043 L164,45.3572168 C164.009549,39.9055133 161.523486,34.6879539 157.178815,31.0426581 L126.29083,5.12547222 C122.499486,1.94418156 117.59546,0.187029766 112.482873,0.17810659 L11.4225565,0 Z M11.4012747,5.35390552 L11.4133344,5.35390552 L112.473651,5.53201211 C116.335225,5.53879373 120.052438,6.86192225 122.883621,9.23762859 L153.771606,35.1548145 C156.907118,37.7857236 158.686273,41.4806323 158.679553,45.3479367 L158.601501,90.2811242 C158.59618,93.2461171 155.93667,95.6460945 152.65857,95.6460945 L152.646865,95.6460945 L11.2565588,95.3969594 C7.97313866,95.3908916 5.31540213,92.9794926 5.32036092,90.0109304 L5.45834458,10.7188758 C5.46366502,7.75388291 8.12352973,5.35390552 11.4012747,5.35390552 L11.4012747,5.35390552 Z" id="Fill-3" fill="#231F20" mask="url(#mask-2)"></path>
                    </g>
                    <path d="M46.3618151,52.6695222 L42.5970997,52.6695222 L42.5970997,60.7596611 C42.5970997,60.9907471 42.5542903,61.1483541 42.4697505,61.2317723 C42.3844913,61.3159003 42.2247652,61.3577869 41.990932,61.3577869 L38.7687098,61.3577869 C38.5345168,61.3577869 38.3751504,61.3159003 38.290251,61.2317723 C38.2049918,61.1483541 38.1629018,60.9907471 38.1629018,60.7596611 L38.1629018,38.5981258 C38.1629018,38.3673948 38.2049918,38.2097877 38.290251,38.1256597 C38.3751504,38.0418866 38.5345168,38 38.7687098,38 L41.990932,38 C42.2247652,38 42.3844913,38.0418866 42.4697505,38.1256597 C42.5542903,38.2097877 42.5970997,38.3673948 42.5970997,38.5981258 L42.5970997,49.0804127 L46.3618151,49.0804127 C46.5531986,49.0804127 46.7075286,49.1073905 46.8244452,49.1592162 C46.9410021,49.2121069 47,49.3849776 47,49.6788934 L47,52.0713965 C47,52.3024824 46.9517944,52.4600895 46.8564624,52.5435076 C46.7607706,52.6276357 46.5956483,52.6695222 46.3618151,52.6695222 M28.1134681,48.797146 C27.1986404,48.797146 26.4590079,48.9444589 25.8960093,49.2380197 C25.3322913,49.5319355 25.0506122,49.878742 25.0506122,50.2770192 C25.0506122,50.6756514 25.3322913,51.0167783 25.8960093,51.300045 C26.4590079,51.5833116 27.1986404,51.724945 28.1134681,51.724945 C29.0703857,51.724945 29.8146949,51.5833116 30.3463957,51.300045 C30.8777368,51.0167783 31.143947,50.6756514 31.143947,50.2770192 C31.143947,49.878742 30.8777368,49.5319355 30.3463957,49.2380197 C29.8146949,48.9444589 29.0703857,48.797146 28.1134681,48.797146 M31.8458065,41.2423031 L24.0933348,41.2423031 C23.902311,41.2423031 23.7425849,41.2057411 23.614876,41.1319071 C23.4871671,41.0587832 23.4234925,40.8752633 23.4234925,40.5813475 L23.4234925,38.8810375 C23.4234925,38.6087749 23.4871671,38.4302246 23.614876,38.3460965 C23.7425849,38.2623234 23.902311,38.2200819 24.0933348,38.2200819 L31.8458065,38.2200819 C32.2922481,38.2200819 32.5156488,38.4515228 32.5156488,38.9126299 L32.5156488,40.5181627 C32.5156488,41.0012779 32.2922481,41.2423031 31.8458065,41.2423031 M43.0439011,68 L25.4333792,68 C24.9865778,68 24.6196395,67.963083 24.3325642,67.8899591 C24.0458487,67.8161251 23.822448,67.69579 23.6627219,67.5278889 C23.5033555,67.3596327 23.3914753,67.1289017 23.3278007,66.8353409 C23.2641261,66.5410701 23.232109,66.1743853 23.232109,65.7335116 L23.232109,61.0429278 C23.232109,60.6233523 23.4443576,60.4135646 23.8699341,60.4135646 L26.9964646,60.4135646 C27.443266,60.4135646 27.6666667,60.6233523 27.6666667,61.0429278 L27.6666667,64.2539934 C27.6666667,64.5688525 27.826033,64.7261046 28.1451255,64.7261046 L43.0439011,64.7261046 C43.2137,64.7261046 43.3676702,64.7626665 43.5065312,64.8361455 C43.6446727,64.9096244 43.7137434,65.0619069 43.7137434,65.2926379 L43.7137434,67.4334666 C43.7137434,67.7270275 43.6446727,67.8945737 43.5065312,67.9371702 C43.3676702,67.9790567 43.2137,68 43.0439011,68 M35.8335628,45.1455617 L19.914195,45.1455617 C19.4461687,45.1455617 19.2123355,44.9251248 19.2123355,44.4846061 L19.2123355,42.8162435 C19.2123355,42.3547815 19.4461687,42.1236955 19.914195,42.1236955 L35.8335628,42.1236955 C36.3012293,42.1236955 36.5357821,42.3547815 36.5357821,42.8162435 L36.5357821,44.5161985 C36.5357821,44.9361289 36.3012293,45.1455617 35.8335628,45.1455617 M36.758823,58.4619353 C33.8236761,58.8396242 30.8248546,59.0703552 27.7619987,59.1541283 C24.6995026,59.2382564 21.647439,59.2485505 18.6061677,59.1857207 C18.3507499,59.1857207 18.1859874,59.13354 18.1115205,59.0281137 C18.0366938,58.9233973 18,58.7558511 18,58.5247651 L18,56.4783586 C18,56.2479826 18.0424497,56.085051 18.1277089,55.9902738 C18.2122486,55.8958516 18.3719747,55.8486405 18.6061677,55.8486405 C19.8605932,55.890882 21.0945133,55.9224744 22.3068488,55.9434177 C23.5191843,55.9643609 24.7419523,55.9746551 25.9758724,55.9746551 L25.9758724,54.4007147 C24.4653096,54.1284521 23.2425415,53.6243936 22.3068488,52.8896041 C21.3707963,52.1555245 20.9031298,51.2840713 20.9031298,50.2770192 C20.9031298,49.647301 21.0891171,49.065149 21.4614516,48.529853 C21.8334264,47.9945571 22.3388659,47.5334501 22.9770508,47.1447571 C23.614876,46.7564191 24.375014,46.4472395 25.2578244,46.2157986 C26.1402751,45.9850676 27.0921564,45.8697021 28.1134681,45.8697021 C29.1340603,45.8697021 30.0855817,45.9850676 30.9687519,46.2157986 C31.8508429,46.4472395 32.616377,46.7564191 33.265714,47.1447571 C33.9139717,47.5334501 34.4190515,47.9945571 34.7809534,48.529853 C35.1421359,49.065149 35.3234466,49.647301 35.3234466,50.2770192 C35.3234466,51.2840713 34.8608165,52.149845 33.9355563,52.8739854 C33.0102961,53.5981258 31.802997,54.0968597 30.3143786,54.3694772 L30.3143786,55.8805878 C31.3141057,55.8383463 32.3030405,55.7755165 33.2815427,55.6913884 C34.2596852,55.6076153 35.2486199,55.4922498 36.2487068,55.3452919 C36.5462146,55.3034054 36.7480307,55.3087299 36.8548745,55.3609106 C36.9609988,55.4134463 37.035106,55.5657288 37.0779155,55.817403 L37.3333333,57.8006247 C37.3754233,58.0317107 37.3437659,58.1889628 37.2376416,58.2727359 C37.1307978,58.356864 36.9714314,58.4196938 36.758823,58.4619353" id="Fill-6" fill="#231F20"></path>
                    <path d="M70.5118179,45.0205117 L66.2418944,45.0205117 C66.3663123,45.5768459 66.4285212,46.1216125 66.4285212,46.6555343 C66.4285212,47.254163 66.3663123,47.820619 66.2418944,48.3545408 L70.5118179,48.3545408 L70.5118179,45.0205117 Z M65.4314208,59.8954942 C63.873034,59.8954942 62.6520517,60.1839638 61.7691767,60.7612645 C60.8855988,61.3378423 60.4441613,62.0008163 60.4441613,62.7487406 C60.4441613,63.4756985 60.8855988,64.1108377 61.7691767,64.6559658 C62.6520517,65.2010938 63.873034,65.4736578 65.4314208,65.4736578 C66.1582462,65.4736578 66.833758,65.3984677 67.4572533,65.2491721 C68.0803972,65.0995149 68.6205957,64.901418 69.077849,64.6559658 C69.5347509,64.4101521 69.8932431,64.121321 70.1533257,63.7905569 C70.4127054,63.4594314 70.5430981,63.1120388 70.5430981,62.7487406 C70.5430981,62.3854424 70.4127054,62.0326275 70.1533257,61.6906572 C69.8932431,61.3490485 69.5347509,61.0446733 69.077849,60.7771701 C68.6205957,60.5100285 68.0803972,60.2963874 67.4572533,60.1358855 C66.833758,59.9757451 66.1582462,59.8954942 65.4314208,59.8954942 L65.4314208,59.8954942 Z M65.4314208,69 C64.0803972,69 62.833758,68.8394981 61.6911519,68.5188558 C60.5481944,68.198575 59.5560144,67.7546644 58.7142606,67.1889314 C57.8728583,66.6221139 57.2128108,65.9544405 56.7355241,65.1851882 C56.2568316,64.4155744 56.0181882,63.571132 56.0181882,62.6522226 C56.0181882,61.776692 56.2568316,60.959 56.7355241,60.1998694 C57.2128108,59.4418233 57.8728583,58.7792108 58.7142606,58.2123933 C59.5560144,57.6462988 60.5481944,57.2027497 61.6911519,56.8821074 C62.833758,56.5614651 64.0803972,56.4009632 65.4314208,56.4009632 C66.7195326,56.4009632 67.9401634,56.5564042 69.0936649,56.8658403 C70.2468149,57.1759993 71.2597311,57.6144876 72.1324137,58.1802206 C73.0054477,58.7470381 73.7013443,59.4096506 74.2208066,60.1680582 C74.7402689,60.9268273 75,61.7550026 75,62.6522226 C75,63.571132 74.7402689,64.4155744 74.2208066,65.1851882 C73.7013443,65.9544405 73.0054477,66.6221139 72.1324137,67.1889314 C71.2597311,67.7546644 70.2468149,68.198575 69.0936649,68.5188558 C67.9401634,68.8394981 66.7195326,69 65.4314208,69 L65.4314208,69 Z M58.6678675,42.8407225 C58.126966,42.8407225 57.6440559,42.9423014 57.2184342,43.1450977 C56.7921097,43.348617 56.4237765,43.621181 56.1120288,43.9627898 C55.8002812,44.30476 55.5609349,44.7110756 55.3950444,45.1810136 C55.2284509,45.651313 55.1455057,46.1425789 55.1455057,46.6555343 C55.1455057,47.1684897 55.2284509,47.6550562 55.3950444,48.1141494 C55.5609349,48.5739657 55.8002812,48.9748589 56.1120288,49.3161062 C56.4237765,49.6584379 56.7921097,49.9310019 57.2184342,50.1337982 C57.6440559,50.3373175 58.126966,50.4385349 58.6678675,50.4385349 C59.2077146,50.4385349 59.7011686,50.3373175 60.1482295,50.1337982 C60.5945875,49.9310019 60.9741675,49.6584379 61.2859151,49.3161062 C61.5976628,48.9748589 61.8415781,48.5739657 62.0183639,48.1141494 C62.1947983,47.6550562 62.283367,47.1684897 62.283367,46.6555343 C62.283367,46.1425789 62.1947983,45.651313 62.0183639,45.1810136 C61.8415781,44.7110756 61.5976628,44.30476 61.2859151,43.9627898 C60.9741675,43.621181 60.5945875,43.348617 60.1482295,43.1450977 C59.7011686,42.9423014 59.2077146,42.8407225 58.6678675,42.8407225 L58.6678675,42.8407225 Z M58.6678675,54.2533467 C57.5245585,54.2533467 56.480362,54.0447665 55.5352781,53.6279677 C54.5894913,53.2115304 53.7842896,52.6559191 53.1196731,51.9611339 C52.4543537,51.2670717 51.9352429,50.4598629 51.5612864,49.5405919 C51.1873298,48.6220439 51,47.6604786 51,46.6555343 C51,45.6296236 51.1873298,44.657575 51.5612864,43.738304 C51.9352429,42.8193946 52.4543537,42.0125472 53.1196731,41.317762 C53.7842896,40.6236998 54.5894913,40.0673655 55.5352781,39.6509282 C56.480362,39.2341294 57.5245585,39.0259107 58.6678675,39.0259107 C59.8726825,39.0259107 60.9632721,39.2453356 61.9403392,39.6827394 C62.9167033,40.1212277 63.7482647,40.714434 64.4339689,41.4619968 L70.5118179,41.4619968 L70.5118179,38.6091119 C70.5118179,38.3741429 70.5532906,38.213641 70.6362358,38.1279677 C70.7191811,38.0426559 70.8748792,38 71.104033,38 L74.2208066,38 C74.4492575,38 74.6049556,38.0426559 74.6882524,38.1279677 C74.7711976,38.213641 74.8133732,38.3741429 74.8133732,38.6091119 L74.8133732,55.0865829 C74.8133732,55.3432413 74.7711976,55.5033817 74.6882524,55.567727 C74.6049556,55.6317109 74.4492575,55.6638836 74.2208066,55.6638836 L71.104033,55.6638836 C70.8748792,55.6638836 70.7191811,55.6317109 70.6362358,55.567727 C70.5532906,55.5033817 70.5118179,55.3432413 70.5118179,55.0865829 L70.5118179,51.9130556 L64.3404797,51.9130556 C63.654424,52.639652 62.833758,53.2115304 61.8781302,53.6279677 C60.922151,54.0447665 59.8519462,54.2533467 58.6678675,54.2533467 L58.6678675,54.2533467 Z" id="Fill-8" fill="#231F20"></path>
                    <path d="M107.424273,68 L104.193205,68 C103.958369,68 103.803615,67.963314 103.729305,67.8902947 C103.654273,67.8172754 103.617117,67.6662982 103.617117,67.4370106 L103.617117,53.0779578 L101.25,53.0779578 L101.25,66.2796369 C101.25,66.5501964 101.212484,66.7121087 101.138173,66.7643158 C101.063141,66.8161701 100.908748,66.8422736 100.674273,66.8422736 L97.6672189,66.8422736 C97.432383,66.8422736 97.2722184,66.8161701 97.1870858,66.7643158 C97.1015926,66.7121087 97.059387,66.5501964 97.059387,66.2796369 L97.059387,39.1259789 C97.059387,38.8966912 97.1015926,38.7457141 97.1870858,38.672342 C97.2722184,38.5996755 97.432383,38.5626367 97.6672189,38.5626367 L100.674273,38.5626367 C100.908748,38.5626367 101.063141,38.5996755 101.138173,38.672342 C101.212484,38.7457141 101.25,38.8966912 101.25,39.1259789 L101.25,49.5430473 L103.617117,49.5430473 L103.617117,38.5626367 C103.617117,38.3337018 103.660044,38.1823719 103.745538,38.1089998 C103.830309,38.0363333 103.990474,38 104.22531,38 L107.424273,38 C107.658748,38 107.813141,38.0363333 107.888173,38.1089998 C107.962484,38.1823719 108,38.3337018 108,38.5626367 L108,67.4370106 C108,67.6662982 107.962484,67.8172754 107.888173,67.8902947 C107.813141,67.963314 107.658748,68 107.424273,68 M88.5818459,52.4835736 C87.7709224,52.4835736 87.126296,52.7601298 86.6465236,53.3125367 C86.1663906,53.8656492 85.9265044,54.5277614 85.9265044,55.2992263 C85.9265044,56.0706912 86.1663906,56.7384474 86.6465236,57.3010841 C87.126296,57.8644263 87.7709224,58.145921 88.5818459,58.145921 C89.4346142,58.145921 90.0900625,57.8644263 90.5492732,57.3010841 C91.0074017,56.7384474 91.2368266,56.0706912 91.2368266,55.2992263 C91.2368266,54.5277614 91.0074017,53.8656492 90.5492732,53.3125367 C90.0900625,52.7601298 89.4346142,52.4835736 88.5818459,52.4835736 M92.5484448,43.0048209 L84.77469,43.0048209 C84.5831418,43.0048209 84.4175663,42.9688404 84.2790455,42.8954683 C84.1401641,42.822449 84.0709037,42.6404299 84.0709037,42.3479999 L84.0709037,40.189521 C84.0709037,39.9186088 84.1401641,39.7411754 84.2790455,39.6579263 C84.4175663,39.5746772 84.5831418,39.5323472 84.77469,39.5323472 L92.5484448,39.5323472 C92.9964729,39.5323472 93.2204869,39.7623404 93.2204869,40.2209157 L93.2204869,42.3166051 C93.2204869,42.775886 92.9964729,43.0048209 92.5484448,43.0048209 M88.5497408,61.6494368 C87.5685523,61.6494368 86.667446,61.4829386 85.8464221,61.1488841 C85.0253981,60.8155351 84.3216118,60.3618983 83.7354238,59.7883263 C83.1485143,59.2151071 82.6896644,58.5371211 82.3595954,57.754721 C82.028805,56.9726736 81.8635902,56.1338335 81.8635902,55.2367895 C81.8635902,54.3400983 82.028805,53.5111352 82.3595954,52.7499001 C82.6896644,51.988665 83.1535646,51.3261999 83.751296,50.7632105 C84.3479452,50.2002211 85.0575032,49.7571667 85.8785271,49.4336947 C86.6991904,49.1105755 87.6006573,48.9486631 88.5818459,48.9486631 C89.562313,48.9486631 90.4634192,49.1105755 91.2851646,49.4336947 C92.1058278,49.7571667 92.8150251,50.2002211 93.4123958,50.7632105 C94.009045,51.3261999 94.4729452,51.988665 94.8040963,52.7499001 C95.134526,53.5111352 95.2997408,54.3400983 95.2997408,55.2367895 C95.2997408,56.1126684 95.134526,56.9416316 94.8040963,57.723679 C94.4729452,58.5057263 94.009045,59.1837123 93.4123958,59.7569315 C92.8150251,60.3308562 92.1007776,60.7894316 91.2689317,61.1333631 C90.4374466,61.4776474 89.5305686,61.6494368 88.5497408,61.6494368 M94.9801331,47.9789526 L81.7037863,47.9789526 C81.2344752,47.9789526 81,47.7496649 81,47.2907368 L81,45.1632999 C81,44.7255368 81.2344752,44.5064788 81.7037863,44.5064788 L94.9801331,44.5064788 C95.4278003,44.5064788 95.6518143,44.7255368 95.6518143,45.1632999 L95.6518143,47.3221316 C95.6518143,47.7598946 95.4278003,47.9789526 94.9801331,47.9789526" id="Fill-10" fill="#231F20"></path>
                    <path d="M127,42.6343937 C126.004385,42.6343937 125.102087,42.7442699 124.293457,42.963669 C123.484476,43.1827148 122.794773,43.4756002 122.224697,43.8405588 C121.65392,44.206224 121.208034,44.6347765 120.886687,45.1251564 C120.564989,45.616243 120.404315,46.123228 120.404315,46.6450516 C120.404315,47.1880732 120.564989,47.7053039 120.886687,48.1956839 C121.208034,48.6867704 121.65392,49.1199158 122.224697,49.4961799 C122.794773,49.8720908 123.484476,50.1695691 124.293457,50.3889682 C125.102087,50.6083673 126.004385,50.7178902 127,50.7178902 C127.974566,50.7178902 128.86669,50.6083673 129.675671,50.3889682 C130.484301,50.1695691 131.173654,49.8720908 131.744782,49.4961799 C132.314857,49.1199158 132.755481,48.6867704 133.066655,48.1956839 C133.377828,47.7053039 133.533591,47.1880732 133.533591,46.6450516 C133.533591,46.123228 133.377828,45.616243 133.066655,45.1251564 C132.755481,44.6347765 132.314857,44.206224 131.744782,43.8405588 C131.173654,43.4756002 130.484301,43.1827148 129.675671,42.963669 C128.86669,42.7442699 127.974566,42.6343937 127,42.6343937 M127,54.3211936 C125.465182,54.3211936 124.044378,54.1385376 122.737941,53.7728725 C121.431152,53.4075606 120.2903,52.8853837 119.315734,52.2063417 C118.340467,51.5276531 117.578144,50.7178902 117.028767,49.7777598 C116.47939,48.838336 116.20435,47.7939821 116.20435,46.6450516 C116.20435,45.5169657 116.47939,44.4828576 117.028767,43.5430805 C117.578144,42.6029501 118.335555,41.7991933 119.299947,41.130397 C120.26434,40.4623073 121.404841,39.9401304 122.722154,39.5638663 C124.039116,39.1879554 125.465182,39 127,39 C128.555517,39 129.986844,39.1879554 131.293633,39.5638663 C132.60007,39.9401304 133.73566,40.4623073 134.700053,41.130397 C135.664445,41.7991933 136.415892,42.6029501 136.955797,43.5430805 C137.495001,44.4828576 137.764427,45.5169657 137.764427,46.6450516 C137.764427,47.7939821 137.495001,48.838336 136.955797,49.7777598 C136.415892,50.7178902 135.664445,51.5276531 134.700053,52.2063417 C133.73566,52.8853837 132.60007,53.4075606 131.293633,53.7728725 C129.986844,54.1385376 128.555517,54.3211936 127,54.3211936 M140.346781,63 L113.622347,63 C113.352219,63 113.181372,62.937466 113.109104,62.8116913 C113.036134,62.6866232 113,62.5301114 113,62.342156 L113,60.0859843 C113,59.8563395 113.036134,59.6895821 113.109104,59.5846521 C113.181372,59.4804287 113.352219,59.4281403 113.622347,59.4281403 L119.159972,59.4281403 L119.159972,55.6997689 C119.159972,55.4701241 119.201368,55.3079595 119.284511,55.2139818 C119.366953,55.1200041 119.533591,55.0730153 119.781968,55.0730153 L122.831258,55.0730153 C123.100333,55.0730153 123.277144,55.1200041 123.360288,55.2139818 C123.442729,55.3079595 123.484476,55.4701241 123.484476,55.6997689 L123.484476,59.4281403 L130.484301,59.4281403 L130.484301,55.6997689 C130.484301,55.4701241 130.525697,55.3079595 130.609191,55.2139818 C130.691633,55.1200041 130.868093,55.0730153 131.137871,55.0730153 L134.186809,55.0730153 C134.435888,55.0730153 134.601473,55.1200041 134.684266,55.2139818 C134.767058,55.3079595 134.809156,55.4701241 134.809156,55.6997689 L134.809156,59.4281403 L140.346781,59.4281403 C140.782494,59.4281403 141,59.6471861 141,60.0859843 L141,62.342156 C141,62.7806009 140.782494,63 140.346781,63" id="Fill-12" fill="#231F20"></path>
                    <g id="Group-16" transform="translate(29.000000, 98.000000)">
                        <mask id="mask-4" fill="white">
                            <use xlink:href="#path-3"></use>
                        </mask>
                        <g id="Clip-15"></g>
                        <path d="M2.88897442,1.28202252 L0.0297240407,16.1696046 C-0.20286024,17.3804214 0.972208421,18.362822 2.06296081,17.8700355 L35.1131513,2.93028425 C36.5786824,2.26759561 36.1210165,-0.00246544772 34.5225802,0 L4.33128277,0.0521711151 C3.62959994,0.0532285969 3.02616699,0.567869769 2.88897442,1.28202252" id="Fill-14" fill="#231F20" mask="url(#mask-4)"></path>
                    </g>
                </g>
                <g id="Group-30" transform="translate(198.999999, 310.999892)">
                    <path d="M3.99982359,89.0943297 C3.99443099,92.1866001 7.06162506,94.6990457 10.8501391,94.7055736 L173.989971,95.0004599 C177.778858,95.0070056 180.854253,92.5056956 180.859472,89.4134253 L178.669372,9.80258306 C178.674591,6.7103127 175.082374,3.00663591 171.293487,3.00010808 L57.5435835,0.999282175 C53.087802,0.992079855 48.793432,2.35562785 45.5182294,4.81892282 L9.78101989,31.6932213 C6.15317198,34.4214692 4.08613369,38.2632878 4.07942373,42.2913414 L3.99982359,89.0943297 Z" id="Fill-1" fill="#EC1D24"></path>
                    <g id="Group-5" fill="#231F20">
                        <path d="M57.1543161,0 C51.7085614,0 46.4592937,1.64172771 42.373085,4.62220026 L7.81047889,29.8364288 C2.90551414,33.414581 0.0865564519,38.6261748 0.076822233,44.134627 L1.49889465e-05,88.0458898 C-0.00537783775,91.0890484 1.44466025,93.9895421 3.97844138,96.0030633 C6.18017749,97.7525103 9.037351,98.7187411 12.023593,98.7241451 L169.803024,99.0001081 L169.827539,99.0001081 C172.809455,99.0001081 175.664466,98.0410826 177.867283,96.2999217 C180.402146,94.2957674 181.859034,91.4031995 181.864442,88.3640038 L182.000015,10.8756805 C182.005408,7.83252189 180.55537,4.93202818 178.021589,2.91850696 C175.819852,1.16906 172.962679,0.202829209 169.976437,0.197425233 L57.2015451,0 L57.1543161,0 Z M57.1543161,5.40397536 C57.166574,5.40397536 57.1799135,5.40397536 57.1921714,5.40397536 L169.967063,5.60140059 C173.631095,5.60788536 176.597508,7.96509942 176.592108,10.8663137 L176.456543,88.3546369 C176.451495,91.2518882 173.485082,93.5961327 169.827539,93.5961327 L169.812758,93.5961327 L12.0333273,93.3201697 C8.36893464,93.3136849 5.40288208,90.9564709 5.40792302,88.0552566 L5.48472163,44.1439939 C5.49157163,40.3648138 7.49033125,36.7607225 10.9989764,34.2010395 L45.561943,8.98681102 C48.7208773,6.68255593 52.8582808,5.40397536 57.1543161,5.40397536 L57.1543161,5.40397536 Z" id="Fill-3"></path>
                    </g>
                    <polygon id="Fill-6" fill="#FEFEFE" points="34.000015 64.1213561 37.37542 66.0001081 39.000015 62.8516089 35.5624443 61.0001081"></polygon>
                    <path d="M36.7106371,45.9814579 L35.1848569,49.2930651 C36.1632387,50.3897089 36.7760984,51.2284486 37.0241439,51.8100188 C37.389312,52.6527997 37.5718961,53.8706806 37.5718961,55.4677026 L29.6599193,55.4677026 C29.6599193,52.1928339 29.2805973,49.5359065 28.5240765,47.5046356 C27.5846177,44.9880492 25.9880685,43.1518596 23.7323059,42.0001081 L23.4382606,45.9447194 C25.3288551,46.5516392 26.679128,47.7772351 27.4873103,49.6170985 C28.1394468,51.09619 28.4653382,53.0462689 28.4653382,55.4677026 L27.84894,55.4677026 L20.8955296,55.4677026 C20.3477773,55.4677026 19.9171478,55.3644674 19.6036411,55.1657122 C19.2260883,54.919197 18.9638891,54.5183801 18.820228,53.9662006 L18.3719062,53.9662006 C18.2268297,54.4665788 18.1291685,54.9265447 18.0778609,55.3460982 C18.0247841,55.7656517 18.000015,56.2329653 18.000015,56.7480388 C18.000015,57.3589999 18.2958295,57.885095 18.8895816,58.3303655 C19.4829799,58.7793098 20.1510395,59.0001081 20.8955296,59.0001081 L27.84894,59.0001081 L29.6599193,59.0001081 L39.000015,59.0001081 L39.000015,54.0473927 C39.000015,51.6369806 38.8245078,49.9113738 38.4720781,48.8661639 C38.2364172,48.1743782 37.649742,47.2140341 36.7106371,45.9814579" id="Fill-8" fill="#FEFEFE"></path>
                    <polygon id="Fill-10" fill="#FEFEFE" points="29.000015 66.1648 32.4036317 68.0001081 34.000015 64.8358111 30.5542282 63.0001081"></polygon>
                    <path d="M66.5286528,55.2652735 C65.7579742,55.1734273 64.9382721,54.9158905 64.0681046,54.4926631 C63.1979372,54.0731096 62.5227823,53.5984484 62.0444426,53.0723532 C62.4434796,52.3952629 62.7884466,51.913254 63.0807854,51.6296329 C63.5194738,51.1847298 64.0572906,50.8753917 64.6963987,50.7137424 C65.1999712,51.3904653 65.6062176,52.0491864 65.9111727,52.6858644 C66.2705584,53.4437793 66.5358622,54.2167571 66.7092468,55.000389 L66.5286528,55.2652735 Z M65.7125554,47.8727552 C64.8229227,48.0862058 63.8460569,48.5902578 62.7830396,49.3742572 C61.6003471,50.2574504 60.6040162,51.2912714 59.7936862,52.4797614 C59.1960318,53.3629547 58.5298887,54.0473927 57.8006638,54.5330755 C56.8566006,55.1587319 55.7806064,55.4677026 54.5712394,55.4677026 L52.8777652,55.4677026 C52.8777652,52.1928339 52.4917049,49.5359065 51.7206659,47.5050029 C50.7639863,44.9880492 49.1375589,43.1518596 46.8395814,42.0001081 L46.5400333,45.9447194 C48.4660088,46.5520066 49.8415511,47.7772351 50.6648579,49.6170985 C51.3291987,51.09619 51.6611888,53.0466363 51.6611888,55.4677026 L51.5220485,55.4677026 L43.9493565,55.4677026 C43.3917139,55.4677026 42.9530255,55.3644674 42.6336517,55.1660796 C42.2490334,54.9195643 41.9819273,54.5183801 41.8355776,53.9662006 L41.3788659,53.9662006 C41.2310744,54.4669462 41.1315855,54.926912 41.0793177,55.3460982 C41.0252477,55.7656517 41.000015,56.2329653 41.000015,56.7480388 C41.000015,57.3589999 41.3013655,57.885095 41.9062292,58.3303655 C42.5107324,58.7793098 43.1912943,59.0001081 43.9493565,59.0001081 L51.5220485,59.0001081 L52.8777652,59.0001081 L54.6307165,59.0001081 C56.1724341,59.0001081 57.3457544,58.8160483 58.148875,58.4446222 C58.9523561,58.0728287 59.7392557,57.4030861 60.5102947,56.442742 C61.4940094,57.2708275 62.6294806,57.9181596 63.9185108,58.3928209 C65.0337959,58.8013529 66.0376967,59.0001081 66.9276898,59.0001081 L69.000015,59.0001081 L69.000015,55.4677026 C69.000015,54.5073585 68.6352223,53.2523718 67.9041951,51.7108249 C67.3591689,50.5737687 66.6295836,49.2930651 65.7125554,47.8727552 L65.7125554,47.8727552 Z" id="Fill-12" fill="#FEFEFE"></path>
                    <path d="M74.6661644,31.8594629 C74.2345084,31.8594629 73.6928991,31.7623661 73.0392081,31.5752694 C71.7318261,31.193979 71.0196115,31.0001081 70.9004362,31.0001081 C70.4049363,31.0001081 70.0052023,31.1226887 69.7051358,31.3588178 C69.5611323,31.4652694 69.3249097,31.7333339 69.000015,32.1630113 L69.2149562,32.3926887 C69.4103896,32.311721 69.5877339,32.2472049 69.7441515,32.2052694 C69.9005692,32.1630113 70.0587603,32.1436565 70.2148232,32.1436565 C70.2932094,32.1436565 70.9805958,32.3375274 72.2734355,32.731721 C72.8615091,32.9126887 73.4832781,33.0001081 74.1369691,33.0001081 C74.7637037,33.0001081 75.346457,32.8546242 75.8827461,32.5701081 C76.2611988,32.3697855 76.6343311,32.0791403 77.000015,31.69785 L76.7247767,31.4459145 C76.0462575,31.7236565 75.3588711,31.8594629 74.6661644,31.8594629" id="Fill-14" fill="#FEFEFE"></path>
                    <path d="M74.816527,40.2391652 C74.4734102,37.601665 74.1905092,35.5180001 73.9685815,34.0001081 C73.6462941,34.6013322 73.308858,35.2390929 72.9521074,35.9202632 C72.5976291,36.6014335 72.2787501,37.2319592 72.000015,37.8187135 C72.2370913,39.5254376 72.4533382,41.1992428 72.6487558,42.8404907 C72.9691496,45.5434671 73.2459911,48.1447926 73.4754931,50.6303588 C73.7068887,53.1159251 73.8208822,55.0505501 73.8208822,56.4385748 C73.8208822,56.6122136 73.80384,56.9529796 73.7697556,57.456532 C73.7333988,57.9637018 73.6955272,58.4129921 73.6538684,58.7971678 L74.0314484,59.0001081 C74.7294223,57.8407077 75.1823668,56.9927718 75.3910394,56.4566622 C75.7970231,55.4564307 76.000015,54.4276211 76.000015,53.3586576 C76.000015,52.0144043 75.8727664,50.0182823 75.622435,47.3768029 C75.4273962,45.2609424 75.1577503,42.8766654 74.816527,40.2391652" id="Fill-16" fill="#FEFEFE"></path>
                    <polygon id="Fill-18" fill="#FEFEFE" points="117.000015 36.8542114 113.561728 35.0001081 112.000015 38.1460047 115.37533 40.0001081"></polygon>
                    <polygon id="Fill-20" fill="#FEFEFE" points="119.374808 44.0001081 121.000015 40.8512139 117.562656 39.0001081 116.000015 42.1170117"></polygon>
                    <path d="M120.43978,48.6791928 L119.115706,50.8538506 C119.616611,51.4099572 120.017477,51.9696701 120.321521,52.5297437 C120.729533,53.2845627 120.933539,53.996105 120.933539,54.6607641 C120.933539,54.9532429 120.851365,55.1952322 120.686659,55.3903383 C120.521954,55.5818381 120.287579,55.6795714 119.985322,55.6795714 C118.997804,55.6795714 118.233586,55.3614872 117.695167,54.7184664 C117.206768,54.1479343 116.818406,53.2124347 116.528653,51.9083613 L116.213534,49.9760534 L115.422876,51.1715743 C115.513982,51.6375208 115.584009,52.0674035 115.630455,52.4576157 C115.676901,52.8474673 115.700124,53.2376795 115.700124,53.6242854 C115.700124,54.3141893 115.469323,54.827019 115.007719,55.1591683 C114.481805,55.5457741 113.592539,55.7372738 112.341707,55.7372738 L109.912214,55.7372738 C109.912214,53.6928069 109.747508,52.0746163 109.418098,50.893521 C109.18015,50.0553942 108.732838,49.0910434 108.074731,48.0001081 L106.435537,52.0890418 C107.133302,52.9560199 107.672078,53.8590619 108.054723,54.7981678 C108.541694,55.9972951 108.786787,57.2613375 108.786787,58.5906557 C108.786787,60.5702074 107.54846,62.1090574 105.072163,63.2140576 C103.084623,64.102674 100.824837,64.5505886 98.2963774,64.5505886 C96.1369866,64.5505886 94.4749273,64.1243124 93.3098424,63.2649078 C92.1433283,62.4051426 91.5620363,61.1551652 91.5620363,59.5081233 C91.5620363,58.5906557 91.7085204,57.5794218 92.0057761,56.4740609 C92.3026745,55.3723064 92.9111196,53.8662747 93.8325407,51.9516381 L93.0433127,51.5906377 C92.3312568,53.0786374 91.8303524,54.1839983 91.542386,54.899147 C91.0682775,56.0838486 90.6924206,57.2613375 90.4151725,58.4319742 C90.1393536,59.5986439 90.000015,60.7581008 90.000015,61.8995256 C90.000015,64.0125141 90.7638763,65.5802152 92.2919561,66.6022683 C93.6874857,67.5341615 95.7021788,68.0001081 98.3360354,68.0001081 C101.246783,68.0001081 103.669488,67.4476079 105.60558,66.3458534 C107.145807,65.4680562 108.292671,64.2761418 109.042598,62.7733558 C109.622104,61.6175053 109.912214,60.4328037 109.912214,59.2048252 L112.341707,59.2048252 C113.526442,59.2048252 114.427856,59.0890599 115.047019,58.850677 C115.481827,58.6775699 115.975586,58.3378472 116.528653,57.8322303 C117.147459,58.308996 117.755905,58.6595379 118.355418,58.8798888 C118.954574,59.0962727 119.650909,59.2048252 120.43978,59.2048252 L122.000015,59.2048252 L122.000015,54.4223812 C122.000015,52.8258289 121.85496,51.6122761 121.565207,50.7741492 C121.434443,50.3987232 121.058944,49.7048523 120.43978,48.6791928" id="Fill-22" fill="#FEFEFE"></path>
                    <polygon id="Fill-24" fill="#FEFEFE" points="116.000015 42.8354161 112.554608 41.0001081 111.000015 44.1644051 114.403632 46.0001081"></polygon>
                    <polygon id="Fill-26" fill="#FEFEFE" points="152.000015 39.8503439 148.555199 38.0001081 147.000015 41.1730641 150.403025 43.0001081"></polygon>
                    <path d="M135.545704,53.3707829 C135.545704,52.9909056 135.681952,52.6739731 135.952303,52.4232983 C136.220865,52.1726234 136.541281,52.0471019 136.910331,52.0471019 C137.424212,52.0471019 137.859419,52.264648 138.215953,52.69974 C138.612896,53.18747 138.953696,54.0550774 139.239066,55.3025621 L139.165041,55.3025621 L139.165041,55.4041572 C137.899471,55.3956909 136.981495,55.2237891 136.416119,54.886243 C135.835723,54.5394946 135.545704,54.0344639 135.545704,53.3707829 L135.545704,53.3707829 Z M162.000015,55.3025621 L160.814549,55.3025621 C160.247027,55.1810897 159.167055,54.3808443 157.571414,52.9025621 C155.515533,51.0039118 154.032538,49.7133596 153.122787,49.0349547 C151.290768,47.678513 149.704067,47.0001081 148.359109,47.0001081 C146.987329,47.0001081 145.853716,47.4425621 144.958269,48.323421 C144.338894,48.9318872 143.837172,49.7428075 143.455963,50.745875 C144.140065,50.6498013 144.820591,50.6019486 145.492176,50.6019486 C146.586452,50.6019486 147.666067,50.7900467 148.735311,51.173605 C149.682611,51.5126234 150.732186,52.0544639 151.878316,52.7994946 C152.800583,53.3965498 153.934197,54.233605 155.279155,55.3025621 L140.508212,55.3025621 C140.508212,53.3928688 140.31117,51.8961817 139.9153,50.8268565 C139.413935,49.4553228 138.591798,48.7695559 137.44388,48.7695559 C136.310267,48.7695559 135.375483,49.4626848 134.637741,50.8489424 C134.003704,52.03974 133.688653,53.3339731 133.688653,54.7349547 C133.688653,56.2537277 134.188229,57.3451388 135.190958,58.0088197 C136.073889,58.591151 137.404543,58.8863657 139.184709,58.8863657 C138.142286,60.3241572 137.338386,61.3636664 136.772295,61.9978995 C135.651556,63.2586357 134.532247,64.2245253 133.41115,64.8882062 C131.974644,65.7289424 130.45267,66.1493105 128.844513,66.1493105 C128.19796,66.1493105 127.470588,66.0532369 126.659536,65.8540958 C125.848126,65.6590038 125.074623,65.4709056 124.33688,65.2938504 L124.000015,66.0090651 C124.856125,66.3039118 125.714024,66.6138504 126.570134,66.923421 C127.651537,67.2922553 128.527315,67.5502921 129.200689,67.6975314 C130.122956,67.9003535 131.018404,68.0001081 131.888818,68.0001081 C134.234718,68.0001081 136.304903,66.7684516 138.097585,64.298513 C139.412147,62.4882062 140.188869,60.6679608 140.42775,58.8418259 L162.000015,58.8418259 L162.000015,55.3025621 Z" id="Fill-28" fill="#FEFEFE"></path>
                </g>
                <g id="Group-12" transform="translate(208.000014, 0.000000)">
                    <path d="M171.901286,68.7481133 L172,12.9531934 C172.006357,9.26697825 169.114586,6.27330986 165.540733,6.26699485 L11.6566745,6 C8.08282143,5.99369499 5.18043666,8.97718919 5.17406868,12.6634043 L5,111.122923 C4.99364251,114.809138 7.88541398,117.802806 11.4592671,117.80877 L121.449886,118 C125.652754,118.007343 129.703852,116.379472 132.7948,113.441235 L166.517864,81.3851619 C169.941362,78.1308237 171.892795,73.5503321 171.901286,68.7481133" id="Fill-1" fill="#FEFEFE"></path>
                    <g id="Group-5">
                        <mask id="mask-6" fill="white">
                            <use xlink:href="#path-5"></use>
                        </mask>
                        <g id="Clip-4"></g>
                        <path d="M11.9311307,0 L11.9219643,0 L11.9106825,0 C5.45044574,0 0.185021405,5.36673739 0.173387056,11.9633374 L-8.97891477e-05,110.803862 C-0.0117048602,117.411732 5.24420046,122.796784 11.715719,122.808406 L121.326799,123 L121.36417,123 C126.925389,123 132.229947,120.853023 136.301617,116.954584 L169.907963,84.774587 C174.34206,80.5288842 176.89104,74.5179834 176.901969,68.2837913 L177,12.2725641 C177.005621,9.11091545 175.816097,6.1257162 173.649993,3.86709388 C171.429947,1.55176827 168.458958,0.273655004 165.284191,0.268372089 L11.9311307,0 Z M11.9106825,5.28291514 L11.9219643,5.28291514 L165.275024,5.55128723 C168.836545,5.55727453 171.718338,8.56254886 171.711651,12.263407 L171.613629,68.2742821 C171.605168,73.0951182 169.660469,77.6937198 166.248784,80.9606745 L132.642085,113.140672 C129.568502,116.08396 125.542664,117.717085 121.36417,117.717085 C121.355004,117.717085 121.345485,117.717085 121.335966,117.717085 L11.725238,117.525491 C8.16371696,117.519152 5.28192395,114.51423 5.2882595,110.813371 L5.46172753,11.9724945 C5.46807354,8.27551047 8.35444977,5.28291514 11.9106825,5.28291514 L11.9106825,5.28291514 Z" id="Fill-3" fill="#231F20" mask="url(#mask-6)"></path>
                    </g>
                    <path d="M61.7232047,27.4718006 C60.4927635,28.913743 59.399077,31.5915856 58.3053904,35.5736571 C58.1686358,35.8483798 58.1002585,36.1227504 58.1002585,36.260464 L72.9339302,36.260464 C75.7363486,36.260464 78.4023629,36.1914311 81,36.0540697 C79.2225402,41.9588484 77.855695,47.4518951 76.9671404,52.6702191 C74.0959941,51.77737 71.2248477,51.2282767 68.4224293,51.0225868 C68.90072,50.1297378 69.7212479,47.6579372 70.8149344,43.5381522 L55.6397267,43.5381522 C53.9306442,48.2757112 52.1531844,52.5325055 50.2393206,56.3779199 C47.9835702,54.3182035 45.5226878,53.2196646 42.7882961,52.9445896 C45.3175558,48.8934853 47.3681743,44.2936398 48.8721248,39.0753159 C50.307698,34.2690761 51.3330072,29.531517 51.8796751,25 C54.3409082,26.1668674 57.6219678,26.9910357 61.7232047,27.4718006 M65.756415,47.7949464 C64.7991324,49.3055694 64.3892191,51.159596 64.3892191,53.4253545 C64.3892191,57.4077781 64.9362377,61.2528404 66.0299243,64.8918606 C67.0552335,68.256158 68.6275613,71.1400427 70.7465571,73.4741297 C73.0706848,76.1519724 76.4884991,78.7611343 81,81.3702963 C77.992099,82.1937602 75.2580579,83.9794583 72.9339302,86.7256294 C69.6528705,84.665913 67.2603655,82.8122387 65.8247923,81.0268928 C64.0473325,79.0355049 62.5437326,76.2206531 61.2449141,72.5129522 C60.1512276,76.2206531 58.7840317,78.9668242 57.1433266,80.6838416 C55.5709987,82.7432058 53.110467,84.8716029 49.7606794,87 C46.8898837,85.0779972 43.95036,83.8420969 40.9428096,83.2239706 C44.8392652,81.163902 48.1203249,78.623773 50.8543659,75.327804 C53.0420897,72.3755908 54.6824442,69.0109412 55.6397267,65.1662311 C56.459904,60.9094369 56.9385452,56.995694 56.9385452,53.4253545 C56.9385452,51.159596 56.8014399,48.8251568 56.6646853,46.4907176 C59.2623223,47.1771723 62.2702233,47.5892565 65.756415,47.7949464 M31.85108,32.0029654 L35.3372716,32.0029654 C38.6186819,32.0029654 41.8997415,31.8659562 45.1808012,31.453872 C44.7705372,34.063034 44.4290013,36.672196 44.155492,39.2126772 C43.0618054,48.9625182 41.7629869,56.3779199 40.2590364,61.3898496 C40.806055,62.3513793 41.3527229,63.1748432 41.8313642,63.9303308 C43.3353147,66.4024836 44.7705372,68.8052513 46.2744877,71.1400427 C44.2238693,71.7578168 41.3527229,73.1307262 37.7301273,75.1907949 C37.251486,73.817181 36.6360901,72.3755908 35.9526675,70.7966392 C33.6285398,74.3669787 30.4158574,78.2803695 26.2458926,82.4001545 C24.3320288,79.7223119 21.8711464,77.6625954 19,76.2206531 C24.0585195,72.9250364 28.0917297,69.0799741 30.9625254,64.754147 C31.2360347,64.2733821 31.5779213,63.724641 31.85108,63.1748432 C31.714676,62.9691533 31.5779213,62.7631113 31.509544,62.6257499 C28.0917297,56.995694 24.5368101,52.1894542 20.9142145,48.3443919 C23.9901421,47.245853 26.5877792,45.8042629 28.6383976,44.0875977 C29.4585749,45.5978686 30.8941481,47.93266 33.0815212,51.0225868 C33.6969171,51.9147314 34.312313,52.7388997 34.9273583,53.5627159 C35.8159129,49.5802922 36.5677128,44.9114138 37.1831087,39.4874 L31.85108,39.4874 C28.0233524,39.4874 24.1952741,39.6934421 20.3671959,40.0368456 C20.5039505,38.6632317 20.6407052,37.2212893 20.6407052,35.7796991 C20.6407052,34.3377568 20.5039505,32.8958144 20.3671959,31.453872 C24.1952741,31.8659562 28.0233524,32.0029654 31.85108,32.0029654" id="Fill-6" fill="#EC1D24"></path>
                    <path d="M140.707702,27.8432018 L144.515445,27.8432018 C147.146276,27.8432018 149.7075,27.7749221 152.33833,27.5697328 C152.130576,30.9147379 152.061681,34.1911131 152.061681,37.4674884 L152.061681,59.5834588 C152.061681,62.7236248 151.36917,64.9078749 150.05411,66.2048391 C148.184686,67.7066424 145.346103,68.5256487 141.538715,68.6618579 C141.538715,66.1365594 140.638451,63.5429812 138.838634,60.9490528 C139.946296,61.1535418 141.261711,61.2218215 142.923026,61.2218215 C144.16919,61.2218215 144.79245,60.1979761 144.79245,58.013726 L144.79245,34.8052803 L137.246215,34.8052803 L137.246215,66 C137.246215,69.6864036 137.315466,73.3038272 137.453968,76.9216009 C136.069302,76.7850415 134.753887,76.6488322 133.438472,76.6488322 C132.192308,76.6488322 130.876893,76.7850415 129.630729,76.9216009 C129.769231,73.3038272 129.907733,69.6864036 129.907733,66 L129.907733,35.3515179 C129.907733,32.7575896 129.769231,30.1636612 129.630729,27.5697328 C133.29997,27.7749221 136.96921,27.8432018 140.707702,27.8432018 L140.707702,27.8432018 Z M128.315314,32.1434224 C126.031094,32.4165412 122.292602,33.576946 117.169444,35.6246367 L117.169444,61.2218215 C121.323087,59.1744809 124.16167,57.4674884 125.823341,56.1025946 C126.031094,58.0816555 126.931003,60.1979761 128.592318,62.5187857 C125.615588,64.0888687 122.569251,66 119.52327,68.1846003 C116.476933,70.3688504 114.192358,72.2117021 112.599939,73.7135054 C111.492277,71.119577 110.107966,69.2767254 108.307794,68.1159704 C109.346205,66.1365594 109.900213,64.0888687 109.900213,61.9728982 L109.900213,38.2868448 C109.900213,36.1025946 109.761711,33.8497146 109.623209,31.5971848 C114.746367,31.119577 119.454019,29.2767254 123.676913,26 C124.923077,28.3890893 126.446245,30.43678 128.315314,32.1434224 L128.315314,32.1434224 Z M105.815466,40.1296964 C102.976882,40.4710949 100.346408,41.0169824 97.9925817,41.6997794 C97.300071,36.9216009 96.4694134,33.0307084 95.5695047,30.0274519 C97.6463263,29.9591722 100.000152,29.4129346 102.630982,28.3890893 L105.815466,40.1296964 Z M100.415303,47.3652439 C102.49248,47.3652439 104.569302,47.2969642 106.646479,47.0924752 C106.438725,49.9591722 106.369474,52.7575896 106.369474,55.6246367 L106.369474,74.1911131 C112.66919,76.3070836 119.246265,77.3992087 126.09999,77.4674884 C136.761812,77.4674884 146.038259,76.7850415 154,75.3515179 C152.269434,77.8771666 151.092521,81.0852621 150.469261,85.1809937 L133.992125,85.1809937 C122.015243,85.1809937 112.66919,83.8843797 105.884717,81.2904513 C104.361549,80.6755839 103.253887,80.4028152 102.630982,80.4028152 C101.800325,80.4028152 100.48491,82.2456669 98.8232393,86 C96.6771666,83.133303 94.0463365,80.8807731 91,79.3106902 L98.6847371,74.3276725 C98.8232393,74.2593928 98.9617414,74.1911131 99.1002435,74.0549039 L99.1002435,54.2593928 C96.8156687,54.2593928 94.5307388,54.3959522 92.3154151,54.5325116 C92.4542723,53.3038272 92.5924193,52.0751427 92.5924193,50.7785287 C92.5924193,49.549494 92.4542723,48.3208096 92.3154151,47.0924752 C95.0154962,47.2969642 97.7155774,47.3652439 100.415303,47.3652439 L100.415303,47.3652439 Z" id="Fill-8" fill="#EC1D24"></path>
                    <path d="M102.111163,121.352982 L104.970221,137.068052 C105.20303,138.34607 104.028035,139.383036 102.937121,138.862716 L69.8867886,123.092895 C68.421402,122.393623 68.8788937,119.997063 70.4774652,120 L100.668739,120.054754 C101.370697,120.056224 101.974092,120.599326 102.111163,121.352982" id="Fill-10" fill="#231F20"></path>
                </g>
            </g>
        </g>
    </g>
</svg>