<?xml version="1.0" encoding="UTF-8"?>
<svg width="286px" height="139px" viewBox="0 0 286 139" version="1.1" xmlns="http://www.w3.org/2000/svg" xmlns:xlink="http://www.w3.org/1999/xlink">
    <title>mobile-top-SIM-images</title>
    <defs>
        <polygon id="path-1" points="0 0 140 0 140 88 0 88"></polygon>
        <polygon id="path-3" points="0 96 140 96 140 0 0 0"></polygon>
        <polygon id="path-5" points="0 0 105 0 105 73 0 73"></polygon>
    </defs>
    <g id="WEB-ELEMENTS" stroke="none" stroke-width="1" fill="none" fill-rule="evenodd">
        <g id="theSIMshop_LP_mobile" transform="translate(-18.000000, -87.000000)">
            <g id="hero" transform="translate(0.000000, 60.000000)">
                <g id="mobile-top-SIM-images" transform="translate(17.999897, 27.000000)">
                    <g id="Group-8" transform="translate(0.000000, 87.000000)">
                        <path d="M68.0001033,23.3622091 L67.9601859,46.2646619 C67.9573817,47.7777797 66.8272979,49.0023757 65.4355628,49 L5.51502401,48.8948829 C4.12350459,48.8922875 2.99751926,47.6635822 3.00010328,46.1504643 L3.0708593,5.73555438 C3.07344778,4.22222027 4.20374723,2.99762434 5.59526664,3 L48.4241247,3.07527004 C50.0606861,3.07808172 51.6359871,3.75202042 52.8353124,4.96234166 L65.9215484,18.1675173 C67.2500817,19.5080411 68.0035428,21.3910033 68.0001033,23.3622091" id="Fill-1" fill="#EC1D24"></path>
                        <g id="Group-5" fill="#231F20">
                            <path d="M5.79790512,0 L5.79233373,0 L5.78804805,0 C2.64085603,0 0.0758741743,2.6552411 0.0703027851,5.91836785 L8.7539479e-06,45.9573981 C-0.00255384229,47.492004 0.557585052,48.9484012 1.57736355,50.0581085 C2.64792741,51.223312 4.15305961,51.8931218 5.70704862,51.8956931 L65.2326275,52.0000429 C68.3896766,52.0000429 70.9546584,49.345016 70.9604441,46.0814607 L71.0001033,23.3923484 C71.0050152,20.601474 69.9119515,17.8978078 68.0011793,15.9749435 L55.0011999,2.89265291 C53.1997126,1.07970948 50.8355151,0.0788515756 48.3446755,0.0745661639 L5.79790512,0 Z M5.78826233,3.21405879 L5.79233373,3.21405879 L48.3388899,3.28862495 C49.9646641,3.29141047 51.5295816,3.95907761 52.7210017,5.15813581 L65.7209812,18.2404264 C67.0407576,19.5684755 67.7892523,21.4339152 67.7858354,23.3867774 L67.7461811,46.0758897 C67.7433954,47.5734268 66.6229034,48.7859841 65.2424846,48.7859841 L65.2384132,48.7859841 L5.71262001,48.6816343 C4.33027265,48.6792773 3.21170913,47.4620061 3.21427612,45.9629691 L3.28456576,5.92415316 C3.28713717,4.42640176 4.40784353,3.21405879 5.78826233,3.21405879 L5.78826233,3.21405879 Z" id="Fill-3"></path>
                        </g>
                        <path d="M27.700011,26.640371 L27.700011,28.2515149 C27.6597376,28.2935819 27.590017,28.3590194 27.4694134,28.459411 C27.3226104,28.5817507 27.1530725,28.6941324 26.951056,28.8022465 C26.7152618,28.9288538 26.4844477,29.0255875 26.225269,29.1066731 C25.954398,29.1914166 25.6478006,29.2344997 25.3141378,29.2344997 C25.0679505,29.2344997 24.848179,29.1950746 24.622345,29.1101278 C24.4146989,29.0320906 24.236933,28.9268216 24.0630646,28.7784696 C23.9184268,28.6551138 23.7978232,28.4974135 23.6878292,28.2913464 C23.6010033,28.1015371 23.557049,27.8944539 23.557049,27.6761935 C23.557049,27.5890112 23.5648438,27.411192 23.617026,27.1990282 L23.6194078,27.1868349 C23.6453906,27.0275089 23.7261539,26.8543637 23.8595324,26.67248 C24.0097998,26.5050251 24.2044545,26.3715083 24.4744594,26.2514041 C24.7277919,26.1327224 25.1023777,26.0723655 25.5880401,26.0723655 C25.766672,26.0723655 25.9509336,26.0863878 26.1514344,26.1148389 C26.3582144,26.159751 26.5537352,26.2024276 26.7572674,26.2755875 C26.8521047,26.3052579 26.9467255,26.3385863 27.0413463,26.3719147 C27.1372663,26.4056496 27.2331862,26.4393844 27.3288896,26.4696645 C27.4618351,26.5265667 27.5861196,26.583672 27.700011,26.640371 L27.700011,26.640371 Z M39.0579716,27.3055166 C39.0545072,27.5333284 39.0395671,27.7231377 39.0138008,27.8706769 C38.9765587,28.0216709 38.9328209,28.1726648 38.860069,28.2685856 C38.8063712,28.3494679 38.7299383,28.4063701 38.6262236,28.4427468 C38.5268392,28.4779042 38.405586,28.4927394 38.2208914,28.4927394 C38.1234558,28.4927394 38.0528691,28.47953 37.9781685,28.4500628 C37.8932913,28.4100281 37.8140436,28.3594258 37.7661919,28.3145137 C37.7021009,28.2545633 37.6499188,28.1805905 37.606181,28.085889 C37.5851782,28.0466672 37.5604945,27.9700525 37.5604945,27.8275939 C37.5604945,27.7314698 37.5760842,27.6668453 37.611161,27.6176655 L37.6267507,27.590637 C37.6646424,27.5077224 37.7142263,27.4504138 37.7768016,27.3908698 C37.8664423,27.3213679 37.9459065,27.2744236 38.0331655,27.2394694 C38.1117635,27.2077668 38.2100652,27.1923219 38.3337002,27.1923219 C38.4846171,27.1923219 38.6329358,27.2067507 38.7643656,27.2339824 C38.8659152,27.2553207 38.9631342,27.2756429 39.0579716,27.3055166 L39.0579716,27.3055166 Z M12.0001033,22 L12.0001033,23.5296519 L15.5153635,23.5296519 L15.5153635,25.4513191 C15.5153635,26.8870825 15.2063843,27.6150236 14.5968705,27.6150236 C14.5665572,27.6150236 14.5490188,27.6129914 14.5399248,27.6115689 L13.586788,26.5481082 L12.2328661,27.6103495 L17.0910055,32.9961388 L18.4442779,31.9345071 L15.7349184,28.9184895 C16.1883188,28.7666827 16.5286938,28.4624594 16.732659,28.0247192 L21.8218291,28.0247192 L21.8218291,26.5101057 L17.2022986,26.5101057 C17.2391076,26.2060856 17.2581617,25.8445537 17.2581617,25.4513191 L17.2581617,23.5296519 L27.700011,23.5296519 L27.700011,25.1172221 C27.6523758,25.0973064 27.6019258,25.0769842 27.547795,25.0564588 C27.3791231,24.9780151 27.1922632,24.9142034 26.992412,24.8670559 C26.772424,24.7985701 26.5355472,24.7504064 26.3229211,24.7107782 C26.0819304,24.6784659 25.8203699,24.6485922 25.5397553,24.6485922 C25.0538764,24.6485922 24.5783907,24.7229715 24.1271555,24.8696978 C23.6702908,25.0180498 23.2970042,25.2170041 22.9901903,25.4748928 C22.6519804,25.7421298 22.3969157,26.0579367 22.2347395,26.4082915 C22.0385692,26.7933971 21.9430823,27.1882575 21.9430823,27.6154301 C21.9430823,28.0452446 22.0294752,28.4496564 22.1996627,28.817285 C22.3711494,29.1873522 22.5933026,29.5049882 22.882145,29.7919376 C23.180298,30.0719775 23.5245704,30.2924734 23.9045693,30.447735 C24.2960439,30.6074675 24.7215128,30.6885531 25.169067,30.6885531 C25.417203,30.6885531 25.6499658,30.672905 25.8749338,30.6578665 L25.8874922,30.6566472 C26.1196055,30.6255542 26.3553996,30.5782035 26.5885955,30.5156111 C26.8523212,30.4448899 27.0840015,30.3619753 27.2964111,30.2621933 C27.4358523,30.1967558 27.5690143,30.1207508 27.700011,30.0388523 L27.700011,32.0960686 L29.4428093,32.0960686 L29.4428093,23.5296519 L31.902084,23.5296519 L31.902084,32.0960686 L33.6448822,32.0960686 L33.6448822,23.5296519 L39.0588377,23.5296519 L39.0588377,25.8841819 C38.9782909,25.8679242 38.8949293,25.854918 38.8128669,25.8459762 C38.6389984,25.8136639 38.4865659,25.7988287 38.3337002,25.7988287 C38.0372794,25.7988287 37.7425909,25.8516664 37.43621,25.9595773 C37.1547294,26.0528562 36.9078925,26.1928761 36.6816253,26.3875628 C36.4783097,26.5625369 36.3172162,26.7726685 36.1890342,27.030354 C36.0692967,27.271172 36.0110518,27.5319059 36.0110518,27.8275939 C36.0110518,28.1627069 36.0634505,28.4716043 36.1665158,28.7457508 C36.2723958,29.0276197 36.4161674,29.2590896 36.6062751,29.4537762 C36.7920524,29.6441952 37.0375901,29.8000665 37.3110594,29.9026936 C37.5819304,30.013856 37.8796503,30.0679131 38.2208914,30.0679131 C39.1066894,30.0679131 39.7714167,29.8236403 40.1986177,29.3387526 C40.5989698,28.8654486 40.8016359,28.158236 40.8016359,27.237234 L40.8016359,23.5296519 L43.1385748,23.5296519 L43.1385748,32.0960686 L44.8815896,32.0960686 L44.8815896,23.5296519 L54.015853,23.5296519 L54.015853,25.8291088 L50.0173122,25.8291088 C49.0711042,25.8291088 48.3269127,26.1020359 47.8072561,26.638542 C47.2830525,27.162245 47.0171616,27.8779929 47.0171616,28.7656666 C47.0171616,29.9667085 47.9172501,31.3191509 49.7683101,32.900218 L49.8852328,33 L51.2365564,31.9019916 L50.9957822,31.6957213 C50.1812205,30.9984666 49.6431595,30.5379656 49.5227724,30.3967263 C49.023902,29.8575783 48.7599598,29.2674217 48.7599598,28.690068 C48.7599598,28.2785435 48.89074,27.9558269 49.1594458,27.7034252 C49.413861,27.4648426 49.7728571,27.3437223 50.226907,27.3437223 L54.015853,27.3437223 L54.015853,32.0960686 L55.7586513,32.0960686 L55.7586513,23.5296519 L58.0001033,23.5296519 L58.0001033,22 L12.0001033,22 Z" id="Fill-6" fill="#231F20"></path>
                    </g>
                    <g id="Group-29" transform="translate(146.000103, 29.000000)">
                        <path d="M140,39.2010067 L139.926528,81.0078192 C139.921699,83.770065 137.522486,86.005004 134.567845,86 L7.34098103,85.777841 C4.38633988,85.7728286 1.99517749,83.5292682 2,80.7670224 L2.12960742,6.99218152 C2.13443724,4.22993567 4.53364932,1.99479618 7.48829048,2 L98.4251098,2.15860215 C101.899963,2.16481756 105.244813,3.39566805 107.792139,5.60554493 L135.584119,29.7173026 C138.405739,32.1651693 140.00622,35.6028892 140,39.2010067" id="Fill-1" fill="#EC1D24"></path>
                        <g id="Group-5">
                            <mask id="mask-2" fill="white">
                                <use xlink:href="#path-1"></use>
                            </mask>
                            <g id="Clip-4"></g>
                            <path d="M8.27368039,0 L8.26859474,0 L8.25861905,0 C3.78188169,0 0.13371336,3.50602061 0.126084891,7.81548385 L-9.01458717e-05,79.9391123 C-0.00379467404,82.0660106 0.8627211,84.0568784 2.43966245,85.5447859 C3.96516053,86.9844752 5.98259703,87.7792934 8.12032861,87.7830176 L131.780932,88 L131.795993,88 C136.272926,88 139.921094,84.4941754 139.928527,80.1847122 L140.00014,39.3136106 C140.007746,34.954557 138.076179,30.7652475 134.700875,27.8198139 L107.687881,4.24772028 C104.671702,1.6157057 100.755755,0.162295805 96.6616146,0.155043456 L8.27368039,0 Z M8.25861905,2.94014139 C8.26194428,2.94014139 8.26526951,2.94014139 8.26859474,2.94014139 L96.6565289,3.09518485 C100.033984,3.10126114 103.285081,4.30456301 105.761008,6.46497891 L132.774002,30.0370725 C135.516338,32.4301516 137.072155,35.7909292 137.066109,39.3085144 L136.994501,80.1796159 C136.989806,82.8769016 134.663319,85.0600546 131.796189,85.0600546 C131.792668,85.0600546 131.789538,85.0600546 131.786213,85.0600546 L8.12541426,84.8428762 C5.25358929,84.8379759 2.92925364,82.6446305 2.93394098,79.9442086 L3.06011121,7.8205801 C3.06480566,5.12329438 5.39129293,2.94014139 8.25861905,2.94014139 L8.25861905,2.94014139 Z" id="Fill-3" fill="#231F20" mask="url(#mask-2)"></path>
                        </g>
                        <polygon id="Fill-6" fill="#FEFEFE" points="12 27 16.8350944 27 19.5642918 35.4870466 22.2748427 27 27 27 27 40 23.3371144 40 23.3371144 31.7542193 20.9926968 40 18.1722088 40 15.6630798 31.7171924 15.6630798 40 12 40"></polygon>
                        <path d="M35.2998089,36.7857143 C35.5944346,36.4488324 35.7418394,36.0228668 35.7418394,35.5085448 C35.7418394,34.9829509 35.5944346,34.5515312 35.2998089,34.2142857 C35.0051831,33.877222 34.6092854,33.7085084 34.1126673,33.7085084 C33.6274445,33.7085084 33.2401853,33.877222 32.951441,34.2142857 C32.6625129,34.5515312 32.5182326,34.9829509 32.5182326,35.5085448 C32.5182326,36.0343205 32.6625129,36.4628313 32.951441,36.794259 C33.2401853,37.1258686 33.6274445,37.2914916 34.1126673,37.2914916 C34.6092854,37.2914916 35.0051831,37.1229598 35.2998089,36.7857143 M30.8372298,39.4256828 C30.2477944,39.0428046 29.7943685,38.5115748 29.4765843,37.831448 C29.1588002,37.1515029 29,36.3772018 29,35.5085448 C29,34.6402513 29.1617409,33.8628596 29.4852228,33.1770968 C29.8087046,32.491334 30.2680121,31.9571954 30.8631451,31.5741354 C31.4580944,31.1914391 32.1425526,31 32.9168872,31 C33.5636671,31 34.1183649,31.1370798 34.5806131,31.4114213 C35.0424938,31.685581 35.3834363,32.0515514 35.6030731,32.5086054 L35.6030731,31.2399806 L39,31.2399806 L39,39.7600194 L35.6030731,39.7600194 L35.6030731,38.4913946 C35.3951992,38.9371768 35.051316,39.3000566 34.5719747,39.5800339 C34.0924496,39.8598295 33.5348111,40 32.8994266,40 C32.1136965,40 31.4264814,39.8085609 30.8372298,39.4256828" id="Fill-8" fill="#FEFEFE"></path>
                        <mask id="mask-4" fill="white">
                            <use xlink:href="#path-3"></use>
                        </mask>
                        <g id="Clip-11"></g>
                        <polygon id="Fill-10" fill="#FEFEFE" mask="url(#mask-4)" points="41 40 45 40 45 27 41 27"></polygon>
                        <path d="M47.2017902,40 L50.7982098,40 L50.7982098,31.1250182 L47.2017902,31.1250182 L47.2017902,40 Z M47.5687877,30.2589954 C47.1893364,29.8838388 47,29.434825 47,28.9108178 C47,28.3750692 47.1893364,27.9226466 47.5687877,27.5535501 C47.9478498,27.1848323 48.4247908,27 49,27 C49.5623662,27 50.0367776,27.1848323 50.421872,27.5535501 C50.8073555,27.9226466 51,28.3750692 51,28.9108178 C51,29.434825 50.8073555,29.8838388 50.421872,30.2589954 C50.0367776,30.6339626 49.5623662,30.8214463 49,30.8214463 C48.4247908,30.8214463 47.9478498,30.6339626 47.5687877,30.2589954 L47.5687877,30.2589954 Z" id="Fill-12" fill="#FEFEFE" mask="url(#mask-4)"></path>
                        <path d="M58.3084473,36.9929841 C58.5971916,36.6308435 58.7418394,36.1782639 58.7418394,35.6350531 C58.7418394,35.0918423 58.5971916,34.6392627 58.3084473,34.2771221 C58.0195192,33.9149816 57.6265623,33.7339113 57.1299441,33.7339113 C56.6561167,33.7339113 56.2690413,33.9121014 55.9689016,34.2680974 C55.6682106,34.6242855 55.5182326,35.0799374 55.5182326,35.6350531 C55.5182326,36.1903608 55.6682106,36.6462047 55.9689016,37.0020088 C56.2690413,37.3581968 56.6561167,37.5361949 57.1299441,37.5361949 C57.6265623,37.5361949 58.0195192,37.3551246 58.3084473,36.9929841 L58.3084473,36.9929841 Z M62,31.25346 L62,39.4916769 C62,40.3244465 61.8467137,41.0577522 61.5406925,41.6914022 C61.2344876,42.3250521 60.7981547,42.8348522 60.2322453,43.2213787 C59.5042273,43.7402035 58.4472136,44 57.0606528,44 C56.3673724,44 55.7722394,43.9516122 55.2756212,43.8550286 C54.7786355,43.758445 54.3163873,43.5894717 53.8890604,43.3481087 C53.3922585,43.0702628 52.9849654,42.6964093 52.6673651,42.2255882 C52.3493971,41.7547671 52.190597,41.2778016 52.190597,40.7952676 L55.6222614,40.7952676 C55.6682106,41.0487275 55.8067931,41.244775 56.0381929,41.3836019 C56.2690413,41.5222368 56.592707,41.5919383 57.0086384,41.5919383 C58.0715336,41.5919383 58.6030731,41.0487275 58.6030731,39.962306 L58.6030731,38.5500347 C58.4181738,38.9968539 58.0772313,39.3588024 57.5806131,39.6364563 C57.0836274,39.9143022 56.5406925,40.0529371 55.951441,40.0529371 C55.1543155,40.0529371 54.4580944,39.8626501 53.8631451,39.4826522 C53.2680121,39.1022702 52.8087046,38.5744206 52.4852228,37.8983354 C52.1617409,37.2224421 52,36.4497733 52,35.5807128 C52,34.6876505 52.1646817,33.894052 52.4938612,33.1997253 C52.8232245,32.5057826 53.2882297,31.9658361 53.8890604,31.5793096 C54.4897074,31.1931672 55.1829878,31 55.9689016,31 C56.5811278,31 57.1270034,31.1447794 57.6065285,31.4345302 C58.0858697,31.7242811 58.4181738,32.1106155 58.6030731,32.5933415 L58.6030731,31.25346 L62,31.25346 Z" id="Fill-13" fill="#FEFEFE" mask="url(#mask-4)"></path>
                        <path d="M71.2998089,36.7857143 C71.5944346,36.4488324 71.7418394,36.0228668 71.7418394,35.5085448 C71.7418394,34.9829509 71.5944346,34.5515312 71.2998089,34.2142857 C71.0051831,33.877222 70.6092854,33.7085084 70.1126673,33.7085084 C69.6274445,33.7085084 69.2401853,33.877222 68.951441,34.2142857 C68.6625129,34.5515312 68.5182326,34.9829509 68.5182326,35.5085448 C68.5182326,36.0343205 68.6625129,36.4628313 68.951441,36.794259 C69.2401853,37.1258686 69.6274445,37.2914916 70.1126673,37.2914916 C70.6092854,37.2914916 71.0051831,37.1229598 71.2998089,36.7857143 M66.8372298,39.4256828 C66.2477944,39.0428046 65.7943685,38.5115748 65.4765843,37.831448 C65.1588002,37.1515029 65,36.3772018 65,35.5085448 C65,34.6402513 65.1617409,33.8628596 65.4852228,33.1770968 C65.8087046,32.491334 66.2680121,31.9571954 66.8631451,31.5741354 C67.4580944,31.1914391 68.1425526,31 68.9168872,31 C69.5636671,31 70.1183649,31.1370798 70.5806131,31.4114213 C71.0424938,31.685581 71.3834363,32.0515514 71.6030731,32.5086054 L71.6030731,31.2399806 L75,31.2399806 L75,39.7600194 L71.6030731,39.7600194 L71.6030731,38.4913946 C71.3951992,38.9371768 71.051316,39.3000566 70.5719747,39.5800339 C70.0924496,39.8598295 69.5348111,40 68.8994266,40 C68.1136965,40 67.4264814,39.8085609 66.8372298,39.4256828" id="Fill-14" fill="#FEFEFE" mask="url(#mask-4)"></path>
                        <path d="M87,32 L87,40.5682931 C87,41.318922 86.8847503,41.983776 86.655143,42.5624633 C86.4251789,43.1409548 86.1193926,43.6088004 85.7383194,43.9658045 C85.3233493,44.335146 84.863421,44.5999126 84.3588915,44.7599084 C83.8541836,44.9197084 83.2149583,45 82.4410371,45 C81.6446369,45 80.983111,44.9261709 80.4561024,44.7783167 C79.9287371,44.6306585 79.4804052,44.3905669 79.1102147,44.0582378 C78.7848039,43.7627254 78.5186235,43.3963213 78.3113168,42.9594173 C78.1034749,42.5223175 78,42.0760134 78,41.6207011 L81.2972823,41.6207011 C81.3195829,41.9162135 81.4234147,42.1469051 81.6084207,42.3131675 C81.7934268,42.47943 82.071025,42.5624633 82.4410371,42.5624633 C83.282217,42.5624633 83.7028961,42.0699426 83.7028961,41.0852929 L83.7028961,39.4048476 C83.4782841,39.8973683 83.1418122,40.2819848 82.6934803,40.5588931 C82.2447916,40.8359972 81.7118957,40.9744513 81.0953278,40.9744513 C79.0317165,40.9744513 78,39.66981 78,37.0597442 L78,32 L81.2972823,32 L81.2972823,36.6349818 C81.2972823,37.1643192 81.3868416,37.5646024 81.5663171,37.835244 C81.7456142,38.1062772 82.0373065,38.241598 82.4410371,38.241598 C83.282217,38.241598 83.7028961,37.6076857 83.7028961,36.3394694 L83.7028961,32 L87,32 Z" id="Fill-15" fill="#FEFEFE" mask="url(#mask-4)"></path>
                        <path d="M95.2999246,36.7857143 C95.5945558,36.4488324 95.7419634,36.0228668 95.7419634,35.5085448 C95.7419634,34.9829509 95.5945558,34.5515312 95.2999246,34.2142857 C95.0052934,33.877222 94.6093885,33.7085084 94.1127612,33.7085084 C93.6275295,33.7085084 93.2402632,33.877222 92.9515136,34.2142857 C92.6625802,34.5515312 92.5182973,34.9829509 92.5182973,35.5085448 C92.5182973,36.0343205 92.6625802,36.4628313 92.9515136,36.794259 C93.2402632,37.1258686 93.6275295,37.2914916 94.1127612,37.2914916 C94.6093885,37.2914916 95.0052934,37.1229598 95.2999246,36.7857143 M90.8372636,39.4256828 C90.2478174,39.0428046 89.7943831,38.5115748 89.4765931,37.831448 C89.1588031,37.1515029 89,36.3772018 89,35.5085448 C89,34.6402513 89.1617439,33.8628596 89.4852317,33.1770968 C89.8087195,32.491334 90.2680354,31.9571954 90.8631794,31.5741354 C91.4581396,31.1914391 92.1426103,31 92.9169592,31 C93.563751,31 94.118459,31.1370798 94.5807157,31.4114213 C95.0426048,31.685581 95.3835536,32.0515514 95.6031944,32.5086054 L95.6031944,31.2399806 L99,31.2399806 L99,39.7600194 L95.6031944,39.7600194 L95.6031944,38.4913946 C95.3953168,38.9371768 95.0514272,39.3000566 94.5720771,39.5800339 C94.0925432,39.8598295 93.5348944,40 92.8994982,40 C92.1137537,40 91.426526,39.8085609 90.8372636,39.4256828" id="Fill-16" fill="#FEFEFE" mask="url(#mask-4)"></path>
                        <path d="M102,31.2465549 L105.272647,31.2465549 L105.272647,32.5323759 C105.483905,32.0274988 105.820715,31.6458991 106.282898,31.3875768 C106.74455,31.1294413 107.304128,31 107.960924,31 C109.986916,31 111,32.2213805 111,34.6633945 L111,40 L107.660416,40 L107.660416,35.544081 C107.660416,34.9803669 107.568688,34.5638386 107.384877,34.2935622 C107.201244,34.0236593 106.909059,33.8884277 106.508323,33.8884277 C105.684362,33.8884277 105.272647,34.4639092 105.272647,35.6144986 L105.272647,40 L102,40 L102,31.2465549 Z" id="Fill-17" fill="#FEFEFE" mask="url(#mask-4)"></path>
                        <path d="M119.308563,36.9929841 C119.597313,36.6308435 119.74178,36.1782639 119.74178,35.6350531 C119.74178,35.0918423 119.597313,34.6392627 119.308563,34.2771221 C119.019814,33.9149816 118.626849,33.7339113 118.130038,33.7339113 C117.656202,33.7339113 117.26912,33.9121014 116.968975,34.2680974 C116.668278,34.6242855 116.518297,35.0799374 116.518297,35.6350531 C116.518297,36.1903608 116.668278,36.6462047 116.968975,37.0020088 C117.26912,37.3581968 117.656202,37.5361949 118.130038,37.5361949 C118.626849,37.5361949 119.019814,37.3551246 119.308563,36.9929841 L119.308563,36.9929841 Z M123,31.25346 L123,39.4916769 C123,40.3244465 122.846895,41.0577522 122.540868,41.6914022 C122.234657,42.3250521 121.798316,42.8348522 121.232397,43.2213787 C120.504365,43.7402035 119.447332,44 118.060746,44 C117.367637,44 116.772309,43.9516122 116.275681,43.8550286 C115.77887,43.758445 115.31643,43.5894717 114.889279,43.3481087 C114.392284,43.0702628 113.984984,42.6964093 113.667377,42.2255882 C113.349404,41.7547671 113.190784,41.2778016 113.190784,40.7952676 L116.622328,40.7952676 C116.668278,41.0487275 116.807047,41.244775 117.038267,41.3836019 C117.26912,41.5222368 117.592791,41.5919383 118.00873,41.5919383 C119.071645,41.5919383 119.603378,41.0487275 119.603378,39.962306 L119.603378,38.5500347 C119.418292,38.9968539 119.077343,39.3588024 118.580716,39.6364563 C118.083905,39.9143022 117.54096,40.0529371 116.951697,40.0529371 C116.154374,40.0529371 115.45814,39.8626501 114.863179,39.4826522 C114.267852,39.1022702 113.808719,38.5744206 113.485232,37.8983354 C113.161744,37.2224421 113,36.4497733 113,35.5807128 C113,34.6876505 113.164685,33.894052 113.494054,33.1997253 C113.823423,32.5057826 114.288253,31.9658361 114.889279,31.5793096 C115.489753,31.1931672 116.183046,31 116.968975,31 C117.581212,31 118.127098,31.1447794 118.606815,31.4345302 C119.085982,31.7242811 119.418292,32.1106155 119.603378,32.5933415 L119.603378,31.25346 L123,31.25346 Z" id="Fill-18" fill="#FEFEFE" mask="url(#mask-4)"></path>
                        <path d="M25.6312513,56.1657728 C25.9560545,55.8193346 26.1187487,55.3797382 26.1187487,54.8471806 C26.1187487,54.3150168 25.9560545,53.8754204 25.6312513,53.5285883 C25.3062531,53.1821501 24.9045896,53.0086356 24.426456,53.0086356 L22.8260445,53.0086356 L22.8260445,56.6857255 L24.4079237,56.6857255 C24.8983472,56.6857255 25.3062531,56.5126049 25.6312513,56.1657728 M27.6731219,50.6314274 C28.4025147,51.0525104 28.9727247,51.6315486 29.3837519,52.3679514 C29.794584,53.1045511 30,53.9311578 30,54.8471806 C30,55.7635972 29.794584,56.590007 29.3837519,57.3264097 C28.9727247,58.0632064 28.4025147,58.6388965 27.6731219,59.0536769 C26.943339,59.4686544 26.1247961,59.6756507 25.217298,59.6756507 L22.8260445,59.6756507 L22.8260445,63 L19,63 L19,50 L25.217298,50 C26.1247961,50 26.943339,50.2107384 27.6731219,50.6314274" id="Fill-19" fill="#FEFEFE" mask="url(#mask-4)"></path>
                        <path d="M38.2998089,58.7857143 C38.5944346,58.4488324 38.7418394,58.0228668 38.7418394,57.5085448 C38.7418394,56.9829509 38.5944346,56.5515312 38.2998089,56.2142857 C38.0051831,55.877222 37.6092854,55.7085084 37.1126673,55.7085084 C36.6274445,55.7085084 36.2401853,55.877222 35.951441,56.2142857 C35.6625129,56.5515312 35.5182326,56.9829509 35.5182326,57.5085448 C35.5182326,58.0343205 35.6625129,58.4628313 35.951441,58.794259 C36.2401853,59.1258686 36.6274445,59.2914916 37.1126673,59.2914916 C37.6092854,59.2914916 38.0051831,59.1229598 38.2998089,58.7857143 M33.8372298,61.4256828 C33.2477944,61.0428046 32.7943685,60.5115748 32.4765843,59.831448 C32.1588002,59.1515029 32,58.3772018 32,57.5085448 C32,56.6402513 32.1617409,55.8628596 32.4854066,55.1770968 C32.8087046,54.491334 33.2680121,53.9571954 33.8631451,53.5741354 C34.4580944,53.1914391 35.1425526,53 35.9168872,53 C36.5636671,53 37.1183649,53.1370798 37.5806131,53.4114213 C38.0424938,53.685581 38.3834363,54.0515514 38.6030731,54.5086054 L38.6030731,53.2399806 L42,53.2399806 L42,61.7600194 L38.6030731,61.7600194 L38.6030731,60.4913946 C38.3951992,60.9371768 38.051316,61.3000566 37.5719747,61.5800339 C37.0924496,61.8598295 36.5348111,62 35.8994266,62 C35.1136965,62 34.4264814,61.8085609 33.8372298,61.4256828" id="Fill-20" fill="#FEFEFE" mask="url(#mask-4)"></path>
                        <path d="M49.3084473,58.9929841 C49.5971916,58.6308435 49.7418394,58.1782639 49.7418394,57.6350531 C49.7418394,57.0918423 49.5971916,56.6392627 49.3084473,56.2771221 C49.0195192,55.9149816 48.6265623,55.7339113 48.1299441,55.7339113 C47.6561167,55.7339113 47.2690413,55.9121014 46.9689016,56.2680974 C46.6682106,56.6242855 46.5182326,57.0799374 46.5182326,57.6350531 C46.5182326,58.1903608 46.6682106,58.6462047 46.9689016,59.0020088 C47.2690413,59.3581968 47.6561167,59.5361949 48.1299441,59.5361949 C48.6265623,59.5361949 49.0195192,59.3551246 49.3084473,58.9929841 L49.3084473,58.9929841 Z M53,53.25346 L53,61.4916769 C53,62.3244465 52.8467137,63.0577522 52.5406925,63.6914022 C52.2344876,64.3250521 51.7981547,64.8348522 51.2322453,65.2213787 C50.5042273,65.7402035 49.4472136,66 48.0606528,66 C47.3673724,66 46.7722394,65.9516122 46.2756212,65.8550286 C45.7786355,65.758445 45.3163873,65.5894717 44.8890604,65.3481087 C44.3922585,65.0702628 43.9849654,64.6964093 43.6673651,64.2255882 C43.3493971,63.7547671 43.190597,63.2778016 43.190597,62.7952676 L46.6222614,62.7952676 C46.6682106,63.0487275 46.8067931,63.244775 47.0381929,63.3836019 C47.2690413,63.5222368 47.592707,63.5919383 48.0086384,63.5919383 C49.0715336,63.5919383 49.6030731,63.0487275 49.6030731,61.962306 L49.6030731,60.5500347 C49.4181738,60.9968539 49.0772313,61.3588024 48.5806131,61.6364563 C48.0836274,61.9143022 47.5406925,62.0529371 46.951441,62.0529371 C46.1543155,62.0529371 45.4580944,61.8626501 44.8631451,61.4824602 C44.2680121,61.1022702 43.8087046,60.5744206 43.4852228,59.8983354 C43.1617409,59.2224421 43,58.4497733 43,57.5807128 C43,56.6876505 43.1646817,55.894052 43.4938612,55.1997253 C43.8232245,54.5057826 44.2882297,53.9658361 44.8890604,53.5793096 C45.4897074,53.1931672 46.1829878,53 46.9689016,53 C47.5811278,53 48.1270034,53.1447794 48.6065285,53.4345302 C49.0858697,53.7242811 49.4181738,54.1106155 49.6030731,54.5933415 L49.6030731,53.25346 L53,53.25346 Z" id="Fill-21" fill="#FEFEFE" mask="url(#mask-4)"></path>
                        <path d="M62.2998089,59.5861628 C62.5944346,59.2283665 62.7418394,58.7759558 62.7418394,58.2297032 C62.7418394,57.6714791 62.5944346,57.2132757 62.2998089,56.8550931 C62.0051831,56.4971036 61.6092854,56.3179158 61.1126673,56.3179158 C60.6274445,56.3179158 60.2401853,56.4971036 59.951441,56.8550931 C59.6625129,57.2132757 59.5182326,57.6714791 59.5182326,58.2297032 C59.5182326,58.7881205 59.6625129,59.2432344 59.951441,59.5952381 C60.2401853,59.9474349 60.6274445,60.1233402 61.1126673,60.1233402 C61.6092854,60.1233402 62.0051831,59.9443454 62.2998089,59.5861628 L62.2998089,59.5861628 Z M66,50 L66,62.7451208 L62.6030731,62.7451208 L62.6030731,61.3977364 C62.3951992,61.8711939 62.051316,62.2566022 61.5719747,62.5539613 C61.0924496,62.8511274 60.5348111,63 59.8994266,63 C59.1136965,63 58.4264814,62.7966759 57.8372298,62.3900276 C57.2477944,61.9833794 56.7943685,61.4191694 56.4765843,60.6968185 C56.1588002,59.9746606 56,59.1522889 56,58.2297032 C56,57.3075038 56.1617409,56.4818495 56.4854066,55.7535128 C56.8087046,55.025176 57.2680121,54.4578766 57.8631451,54.0510353 C58.4580944,53.6445801 59.1425526,53.441256 59.9168872,53.441256 C60.5636671,53.441256 61.1183649,53.5868461 61.5806131,53.8782194 C62.0424938,54.1693996 62.3834363,54.5580905 62.6030731,55.0435196 L62.6030731,50 L66,50 Z" id="Fill-22" fill="#FEFEFE" mask="url(#mask-4)"></path>
                        <path d="M74.2998089,58.7857143 C74.5944346,58.4488324 74.7418394,58.0228668 74.7418394,57.5085448 C74.7418394,56.9829509 74.5944346,56.5515312 74.2998089,56.2142857 C74.0051831,55.877222 73.6092854,55.7085084 73.1126673,55.7085084 C72.6274445,55.7085084 72.2401853,55.877222 71.951441,56.2142857 C71.6625129,56.5515312 71.5182326,56.9829509 71.5182326,57.5085448 C71.5182326,58.0343205 71.6625129,58.4628313 71.951441,58.794259 C72.2401853,59.1258686 72.6274445,59.2914916 73.1126673,59.2914916 C73.6092854,59.2914916 74.0051831,59.1229598 74.2998089,58.7857143 M69.8372298,61.4256828 C69.2477944,61.0428046 68.7943685,60.5115748 68.4765843,59.831448 C68.1588002,59.1515029 68,58.3772018 68,57.5085448 C68,56.6402513 68.1617409,55.8628596 68.4854066,55.1770968 C68.8087046,54.491334 69.2680121,53.9571954 69.8631451,53.5741354 C70.4580944,53.1914391 71.1425526,53 71.9168872,53 C72.5636671,53 73.1183649,53.1370798 73.5806131,53.4114213 C74.0424938,53.685581 74.3834363,54.0515514 74.6030731,54.5086054 L74.6030731,53.2399806 L78,53.2399806 L78,61.7600194 L74.6030731,61.7600194 L74.6030731,60.4913946 C74.3951992,60.9371768 74.051316,61.3000566 73.5719747,61.5800339 C73.0924496,61.8598295 72.5348111,62 71.8994266,62 C71.1136965,62 70.4264814,61.8085609 69.8372298,61.4256828" id="Fill-23" fill="#FEFEFE" mask="url(#mask-4)"></path>
                        <path d="M86,59.3175881 L86,61.8314546 C85.3245917,61.9436393 84.5891428,62 83.7932698,62 C82.7681684,62 81.9331634,61.7808195 81.2880631,61.3421006 C80.6429628,60.9035606 80.3205086,60.0599392 80.3205086,58.8114153 L80.3205086,55.9770979 L79,55.9770979 L79,53.4462337 L80.3205086,53.4462337 L80.3205086,51 L83.865587,51 L83.865587,53.4462337 L85.9096514,53.4462337 L85.9096514,55.9770979 L83.865587,55.9770979 L83.865587,58.1196994 C83.865587,58.6035069 83.9770361,58.9352299 84.2003179,59.1150474 C84.423216,59.2950438 84.7216924,59.385042 85.0955552,59.385042 C85.3126987,59.385042 85.6140524,59.3626767 86,59.3175881" id="Fill-24" fill="#FEFEFE" mask="url(#mask-4)"></path>
                        <path d="M88.2018,62 L91.7983946,62 L91.7983946,53.1248889 L88.2018,53.1248889 L88.2018,62 Z M88.5686208,52.2588535 C88.1893457,51.8838808 88,51.4346711 88,50.9106563 C88,50.3748998 88.1893457,49.9226601 88.5686208,49.5535582 C88.9477013,49.1846456 89.4248601,49 90.0000973,49 C90.5624909,49 91.0367307,49.1846456 91.4220384,49.5535582 C91.8073461,49.9226601 92,50.3748998 92,50.9106563 C92,51.4346711 91.8073461,51.8838808 91.4220384,52.2588535 C91.0367307,52.6338262 90.5624909,52.8215019 90.0000973,52.8215019 C89.4248601,52.8215019 88.9477013,52.6338262 88.5686208,52.2588535 L88.5686208,52.2588535 Z" id="Fill-25" fill="#FEFEFE" mask="url(#mask-4)"></path>
                        <path d="M95,53.2465549 L98.2727595,53.2465549 L98.2727595,54.5323759 C98.4840138,54.0274988 98.8208165,53.6458991 99.2829907,53.3875768 C99.7446335,53.1294413 100.304024,53 100.960984,53 C102.986936,53 104,54.2213805 104,56.6633945 L104,62 L100.660305,62 L100.660305,57.544081 C100.660305,56.9803669 100.568756,56.5638386 100.384948,56.2935622 C100.201141,56.0236593 99.9089621,55.8884277 99.5084112,55.8884277 C98.6844663,55.8884277 98.2727595,56.4639092 98.2727595,57.6144986 L98.2727595,62 L95,62 L95,53.2465549 Z" id="Fill-26" fill="#FEFEFE" mask="url(#mask-4)"></path>
                        <path d="M111.308563,58.9929841 C111.597313,58.6308435 111.74178,58.1782639 111.74178,57.6350531 C111.74178,57.0918423 111.597313,56.6392627 111.308563,56.2771221 C111.019814,55.9149816 110.626849,55.7339113 110.130038,55.7339113 C109.656202,55.7339113 109.26912,55.9121014 108.968975,56.2680974 C108.668278,56.6242855 108.518297,57.0799374 108.518297,57.6350531 C108.518297,58.1903608 108.668278,58.6462047 108.968975,59.0020088 C109.26912,59.3581968 109.656202,59.5361949 110.130038,59.5361949 C110.626849,59.5361949 111.019814,59.3551246 111.308563,58.9929841 L111.308563,58.9929841 Z M115,53.25346 L115,61.4916769 C115,62.3244465 114.846895,63.0577522 114.540868,63.6914022 C114.234657,64.3250521 113.798316,64.8348522 113.232397,65.2213787 C112.504365,65.7402035 111.447332,66 110.060746,66 C109.367637,66 108.772309,65.9516122 108.275681,65.8550286 C107.77887,65.758445 107.31643,65.5894717 106.889279,65.3481087 C106.392284,65.0702628 105.984984,64.6964093 105.667377,64.2255882 C105.349404,63.7547671 105.190784,63.2778016 105.190784,62.7952676 L108.622328,62.7952676 C108.668278,63.0487275 108.807047,63.244775 109.038267,63.3836019 C109.26912,63.5222368 109.592791,63.5919383 110.00873,63.5919383 C111.071645,63.5919383 111.603378,63.0487275 111.603378,61.962306 L111.603378,60.5500347 C111.418292,60.9968539 111.077343,61.3588024 110.580716,61.6364563 C110.083905,61.9143022 109.54096,62.0529371 108.951697,62.0529371 C108.154374,62.0529371 107.45814,61.8626501 106.863179,61.4824602 C106.267852,61.1022702 105.808719,60.5744206 105.485232,59.8983354 C105.161744,59.2224421 105,58.4497733 105,57.5807128 C105,56.6876505 105.164685,55.894052 105.494054,55.1997253 C105.823423,54.5057826 106.288253,53.9658361 106.889279,53.5793096 C107.489753,53.1931672 108.183046,53 108.968975,53 C109.581212,53 110.127098,53.1447794 110.606815,53.4345302 C111.085982,53.7242811 111.418292,54.1106155 111.603378,54.5933415 L111.603378,53.25346 L115,53.25346 Z" id="Fill-27" fill="#FEFEFE" mask="url(#mask-4)"></path>
                        <path d="M23.6049858,87.6410103 L22.0165134,95.0847907 C21.8872999,95.6901982 22.5401158,96.1813978 23.1460893,95.9350049 L41.5073063,88.46514 C42.3214902,88.1337962 42.0672314,86.9987673 41.1792112,87 L24.4062682,87.0260855 C24.0164444,87.0266143 23.6812039,87.2839345 23.6049858,87.6410103" id="Fill-28" fill="#231F20" mask="url(#mask-4)"></path>
                    </g>
                    <g id="Group-12" transform="translate(28.000103, 0.000000)">
                        <path d="M100.942072,40.9765668 L101,8.09741753 C101.003731,5.92518361 99.3067631,4.1610576 97.2095319,4.15733625 L6.90631201,4 C4.80908084,3.99628455 3.10588499,5.75441506 3.10214809,7.92664897 L3,65.9474366 C2.99626926,68.1196705 4.69323695,69.8837966 6.79046811,69.8873112 L71.335861,70 C73.8022148,70.0043269 76.1795059,69.0450459 77.9933555,67.3135851 L97.7829384,48.423399 C99.7919372,46.5056639 100.937089,43.8064457 100.942072,40.9765668" id="Fill-1" fill="#FEFEFE"></path>
                        <g id="Group-5">
                            <mask id="mask-6" fill="white">
                                <use xlink:href="#path-5"></use>
                            </mask>
                            <g id="Clip-4"></g>
                            <path d="M7.0777894,0 L7.07235168,0 L7.06565909,0 C3.23331527,0 0.109758461,3.18513683 0.102856728,7.10019213 L-5.32647491e-05,65.7616417 C-0.00694356116,69.6833859 3.11096637,72.879392 6.95000278,72.8862899 L71.9735251,73 L71.9956943,73 C75.2947224,73 78.4414941,71.725778 80.8568914,69.4120702 L100.792859,50.3133728 C103.423256,47.7935654 104.935363,44.2261202 104.941846,40.5261526 L105,7.28371688 C105.003334,5.40729128 104.297685,3.63558766 103.012707,2.2951045 C101.695731,0.920968162 99.9332799,0.162413133 98.0499435,0.159277744 L7.0777894,0 Z M7.06565909,3.13538866 L7.07235168,3.13538866 L98.0445058,3.2946664 C100.157273,3.29821984 101.866811,5.08183794 101.862844,7.27828221 L101.804695,40.5205089 C101.799676,43.3816555 100.646041,46.1109069 98.6221599,48.0498312 L78.6859828,67.1485287 C76.8626705,68.8953582 74.474462,69.8646113 71.9956943,69.8646113 C71.9902565,69.8646113 71.9846097,69.8646113 71.9789628,69.8646113 L6.95564965,69.7509012 C4.84288294,69.7471388 3.13334472,67.9637297 3.13710309,65.7672854 L3.24000786,7.10562681 C3.24377244,4.91148182 4.95602952,3.13538866 7.06565909,3.13538866 L7.06565909,3.13538866 Z" id="Fill-3" fill="#231F20" mask="url(#mask-6)"></path>
                        </g>
                        <path d="M36.4961061,15.4751068 C35.7618105,16.3356208 35.1091266,17.9336882 34.4564427,20.3100857 C34.374831,20.4740331 34.3340252,20.6377704 34.3340252,20.7199543 L43.1863777,20.7199543 C44.8587887,20.7199543 46.4497972,20.6787573 48,20.5967835 C46.9392579,24.1206031 46.1235599,27.3987116 45.5932935,30.5128727 C43.8798674,29.9800434 42.1664414,29.6523587 40.4940304,29.5296083 C40.7794619,28.996779 41.2691318,27.5216722 41.9218157,25.0630908 L32.8656434,25.0630908 C31.845707,27.8903438 30.7849649,30.4306887 29.6428204,32.7255329 C28.2966467,31.4963473 26.8280556,30.8407676 25.1962412,30.6766099 C26.7056382,28.2590154 27.9293943,25.5139463 28.8269132,22.3997853 C29.6836262,19.5315454 30.2955043,16.7042924 30.6217416,14 C32.090542,14.6963563 34.0485937,15.1881987 36.4961061,15.4751068 M38.9030218,27.6034357 C38.3317403,28.5049366 38.0871146,29.6113718 38.0871146,30.963518 C38.0871146,33.3401257 38.4135612,35.6347596 39.0662451,37.8064329 C39.6781232,39.8141588 40.6164479,41.5351868 41.8810099,42.9281097 C43.2679893,44.5261771 45.3076527,46.0832576 48,47.6403381 C46.2049623,48.1317601 44.5733572,49.1974187 43.1863777,50.8362627 C41.228326,49.6070771 39.8005407,48.5008521 38.9438277,47.4354038 C37.8830855,46.2469949 36.9857759,44.5671639 36.2106746,42.3545037 C35.5579906,44.5671639 34.7420834,46.206008 33.762953,47.2306796 C32.8246283,48.4596551 31.3562464,49.7298275 29.3571796,51 C27.6439628,49.8529983 25.889731,49.1154449 24.0949025,48.7465631 C26.4202067,47.5171673 28.3782584,46.0012839 30.0098635,44.0343347 C31.3154406,42.27253 32.2943618,40.2645939 32.8656434,37.9701702 C33.355104,35.4298253 33.6407447,33.0942045 33.6407447,30.963518 C33.6407447,29.6113718 33.5589238,28.2182387 33.4773122,26.8251057 C35.0275149,27.2347641 36.8225526,27.4806853 38.9030218,27.6034357 M18.6691929,18.179189 L20.7496621,18.179189 C22.7079231,18.179189 24.6659748,18.0974255 26.6240265,17.8515043 C26.3791916,19.4085848 26.1753717,20.9656653 26.0121484,22.481759 C25.3594645,28.3002125 24.5843631,32.7255329 23.6868443,35.7165231 C24.0132909,36.2903393 24.3395282,36.7817613 24.625169,37.2326168 C25.5226878,38.7079338 26.3791916,40.1418435 27.2767104,41.5351868 C26.0529543,41.9038584 24.3395282,42.7231753 22.1776566,43.9525711 C21.8920159,43.1328338 21.5247635,42.27253 21.1169145,41.3302525 C19.729935,43.4609389 17.8126891,45.7963495 15.3241617,48.2549309 C14.1820172,46.6568635 12.713426,45.4276779 11,44.5671639 C14.0187939,42.6004249 16.4257096,40.305791 18.1389264,37.724249 C18.3021497,37.4373409 18.5061788,37.1098664 18.6691929,36.7817613 C18.5877905,36.6590109 18.5061788,36.5360503 18.465373,36.4540765 C16.4257096,33.0942045 14.3042254,30.2259646 12.1423538,27.9313307 C13.977988,27.275751 15.5281908,26.4154472 16.751947,25.3909857 C17.2414076,26.2922764 18.0981206,27.6856197 19.4034884,29.5296083 C19.7707408,30.0620171 20.1379932,30.5538595 20.5050364,31.0454917 C21.0353028,28.6688841 21.4839576,25.8826179 21.85121,22.6457065 L18.6691929,22.6457065 C16.3849038,22.6457065 14.1004055,22.7686671 11.8159072,22.9736014 C11.8975188,22.1538641 11.9791305,21.2933501 11.9791305,20.4330463 C11.9791305,19.5725323 11.8975188,18.7120183 11.8159072,17.8515043 C14.1004055,18.0974255 16.3849038,18.179189 18.6691929,18.179189" id="Fill-6" fill="#EC1D24"></path>
                        <path d="M83.1934126,16.075201 L85.4297061,16.075201 C86.9747968,16.075201 88.4790077,16.0353712 90.0240984,15.9156775 C89.9020846,17.8669304 89.8616219,19.7781493 89.8616219,21.6893682 L89.8616219,34.590351 C89.8616219,36.4221145 89.4549093,37.6962604 88.6825725,38.4528228 C87.5846571,39.3288747 85.9175526,39.8066284 83.6814677,39.8860838 C83.6814677,38.412993 83.1527413,36.9000724 82.0957057,35.3869475 C82.7462373,35.5062327 83.5187826,35.5460625 84.4944757,35.5460625 C85.2263498,35.5460625 85.5923911,34.9488194 85.5923911,33.6746735 L85.5923911,20.1364135 L81.1604753,20.1364135 L81.1604753,38.3333333 C81.1604753,40.4837354 81.2011466,42.5938992 81.2824891,44.7042672 C80.4692725,44.6246075 79.6967271,44.5451521 78.9241818,44.5451521 C78.1923077,44.5451521 77.4197623,44.6246075 76.6878883,44.7042672 C76.7692308,42.5938992 76.8505733,40.4837354 76.8505733,38.3333333 L76.8505733,20.4550521 C76.8505733,18.9419272 76.7692308,17.4288024 76.6878883,15.9156775 C78.8428393,16.0353712 80.9977903,16.075201 83.1934126,16.075201 L83.1934126,16.075201 Z M75.9153429,18.5836631 C74.5738171,18.7429824 72.3781948,19.4198852 69.3693559,20.6143714 L69.3693559,35.5460625 C71.8087972,34.3517805 73.4759016,33.3560349 74.4518033,32.5598469 C74.5738171,33.7142991 75.1023349,34.9488194 76.0780279,36.302625 C74.3297895,37.2185067 72.5406713,38.3333333 70.7517616,39.6076835 C68.9626433,40.8818294 67.6209089,41.9568262 66.6856785,42.8328781 C66.035147,41.3197533 65.2221389,40.2447565 64.1648948,39.5676494 C64.7747551,38.412993 65.1001251,37.2185067 65.1001251,35.9841906 L65.1001251,22.1673261 C65.1001251,20.8931802 65.0187826,19.5790002 64.9374401,18.2650245 C67.946279,17.9864199 70.7110903,16.9114231 73.1912028,15 C73.9230769,16.3936354 74.8176361,17.5881217 75.9153429,18.5836631 L75.9153429,18.5836631 Z M62.7011466,23.2423229 C61.0340421,23.441472 59.48916,23.7599064 58.1067543,24.1582047 C57.7000417,21.3709339 57.2121952,19.1012465 56.6836774,17.349347 C57.903398,17.3095171 59.2858037,16.9908785 60.8308944,16.3936354 L62.7011466,23.2423229 Z M59.5296227,27.4630589 C60.7495519,27.4630589 61.9692725,27.4232291 63.1892017,27.3039439 C63.0671879,28.9761838 63.0265166,30.6085939 63.0265166,32.2810381 L63.0265166,43.1114827 C66.7263498,44.3457988 70.5890765,44.9828717 74.6142798,45.0227015 C80.8759851,45.0227015 86.3240566,44.6246075 91,43.7883854 C89.9836357,45.2616805 89.2924328,47.1330696 88.9263915,49.5222463 L79.2493433,49.5222463 C72.2153012,49.5222463 66.7263498,48.7658882 62.7418178,47.2527633 C61.8472587,46.8940906 61.1967271,46.7349755 60.8308944,46.7349755 C60.3430478,46.7349755 59.5705025,47.8099723 58.5946008,50 C57.334209,48.3277601 55.7891183,47.0137843 54,46.0979026 L58.5132583,43.1911423 C58.5946008,43.1513125 58.6759434,43.1114827 58.7572859,43.0320273 L58.7572859,31.4846458 C57.4155515,31.4846458 56.0736085,31.5643055 54.7725454,31.6439651 C54.8540964,30.9272325 54.9352304,30.2104999 54.9352304,29.4541417 C54.9352304,28.7372049 54.8540964,28.0204722 54.7725454,27.3039439 C56.3583073,27.4232291 57.9440693,27.4630589 59.5296227,27.4630589 L59.5296227,27.4630589 Z" id="Fill-8" fill="#EC1D24"></path>
                        <path d="M60.2345995,71.7833056 L61.9818018,80.8815037 C62.1240737,81.621409 61.4060217,82.2217578 60.7393516,81.9205197 L40.5419264,72.7906236 C39.6464123,72.3857818 39.9259906,70.9982997 40.9028954,71 L59.3531184,71.0316996 C59.7820929,71.0325506 60.150834,71.3469785 60.2345995,71.7833056" id="Fill-10" fill="#231F20"></path>
                    </g>
                </g>
            </g>
        </g>
    </g>
</svg>