<?xml version="1.0" encoding="UTF-8"?>
<svg width="286px" height="94px" viewBox="0 0 286 94" version="1.1" xmlns="http://www.w3.org/2000/svg" xmlns:xlink="http://www.w3.org/1999/xlink">
    <title>mobile-bottom-SIM-images</title>
    <defs>
        <polygon id="path-1" points="0 0 96 0 96 59 0 59"></polygon>
        <polygon id="path-3" points="0 0 21 0 21 10 0 10"></polygon>
        <polygon id="path-5" points="0 0 84 0 84 62 0 62"></polygon>
        <polygon id="path-7" points="0 68 84 68 84 0 0 0"></polygon>
    </defs>
    <g id="WEB-ELEMENTS" stroke="none" stroke-width="1" fill="none" fill-rule="evenodd">
        <g id="theSIMshop_LP_mobile" transform="translate(-18.000000, -344.000000)">
            <g id="hero" transform="translate(0.000000, 60.000000)">
                <g id="mobile-bottom-SIM-images" transform="translate(18.000000, 284.000000)">
                    <g id="Group-16" transform="translate(86.999992, 43.000000)">
                        <path d="M0.131155275,22.2061849 L0.0909175635,45.1097258 C0.0882237949,46.6229197 1.64611955,47.8524735 3.57061868,47.8558262 L86.4393894,48 C88.3638885,48.0033458 89.9260549,46.7793799 89.9287522,45.2661861 L90.0000085,4.84915868 C90.0027022,3.33596485 88.4445817,2.10641104 86.5200826,2.10305832 L27.2888005,2 C25.025345,1.99599483 22.844156,2.66318591 21.1803926,3.86860014 L3.0273444,17.0199756 C1.18443756,18.3550283 0.134526857,20.2350096 0.131155275,22.2061849" id="Fill-1" fill="#EC1D24"></path>
                        <g id="Group-5" fill="#231F20">
                            <path d="M29.3951105,0 C26.5365543,0 23.7777026,0.863179474 21.6263779,2.43035524 L4.1592736,15.1561425 C1.54576121,17.0600686 0.0439215788,19.8429627 0.0387308889,22.7908795 L8.47257979e-06,44.953245 C-0.00301090952,46.6493246 0.801113476,48.2614869 2.2062765,49.3766343 C3.40813751,50.330652 4.96383054,50.8575137 6.58678627,50.8603254 L86.3242189,51.0000433 L86.3374119,51.0000433 C87.9577722,51.0000433 89.5123839,50.4770746 90.7148937,49.5275988 C92.1207056,48.4178584 92.9285067,46.8098054 92.9315346,45.116105 L93.0001023,6.00700243 C93.0029066,4.31092289 92.1987822,2.6985443 90.7938355,1.58361316 C89.5917582,0.629595452 88.0360652,0.102733713 86.4133257,0.0999220538 L29.4199825,0 L29.3951105,0 Z M29.3951105,3.24422253 C29.4015989,3.24422253 29.4078709,3.24422253 29.4143593,3.24422253 L86.4074862,3.34414458 C88.2592648,3.3473888 89.7585091,4.53693706 89.7559171,6.00137911 L89.6873534,45.1102654 C89.6847581,46.5725446 88.18573,47.7558207 86.3374119,47.7558207 L86.3298421,47.7558207 L6.59240952,47.6161029 C4.74063087,47.6128587 3.24160287,46.4233104 3.24419485,44.9588683 L3.28291211,22.7967191 C3.28637257,20.8891163 4.29639433,19.0701889 6.06966378,17.7781232 L23.536768,5.05255216 C25.1329052,3.88960653 27.2241044,3.24422253 29.3951105,3.24422253 L29.3951105,3.24422253 Z" id="Fill-3"></path>
                        </g>
                        <path d="M33.0000085,13 C30.9046791,13.8540842 29.4516592,14.44988 28.6436871,14.7926426 C28.214568,15.1774476 28.0000085,15.5834685 28.0000085,16 C29.9496251,15.22494 31.3682216,14.6556154 32.2542332,14.2970869 C32.7523946,13.8805554 33.0000085,13.4480633 33.0000085,13" id="Fill-6" fill="#FEFEFE"></path>
                        <path d="M32.8026606,16.1463117 C32.9350734,15.9965914 33.0000085,15.6166313 33.0000085,15 C30.9046791,16.156859 29.4516592,16.9581967 28.6436871,17.4040131 C28.214568,17.9198019 28.0000085,18.4494823 28.0000085,19 C29.9496251,17.9756254 31.3721333,17.2265097 32.2689022,16.7526529 C32.4940235,16.4982314 32.671617,16.2960319 32.8026606,16.1463117" id="Fill-8" fill="#FEFEFE"></path>
                        <polygon id="Fill-10" fill="#FEFEFE" points="28.0000085 38.5374993 30.7003317 40 32.0000085 37.4783266 29.2332638 36"></polygon>
                        <path d="M48.3359916,28.2267507 C46.6351456,26.7008597 45.4084099,25.6636915 44.6555656,25.1185273 C43.1400318,24.0281989 41.827313,23.4830347 40.7145651,23.4830347 C39.5797197,23.4830347 38.6417821,23.838529 37.9009711,24.5466737 C37.3883544,25.0356151 36.9735353,25.6875369 36.6578264,26.4934698 C37.223827,26.4164643 37.7867646,26.3777428 38.3424822,26.3777428 C39.2478206,26.3777428 40.1411257,26.5289099 41.0256794,26.8371508 C41.8093725,27.1097329 42.677736,27.5452954 43.6259565,28.1438385 C44.3888649,28.6238105 45.3268025,29.2962963 46.4395505,30.1556081 L34.1525026,30.1556081 L34.1525026,29.0119009 C34.1525026,27.0712301 34.0056969,25.6816302 33.7109916,24.8400385 C33.5138649,24.283061 33.0235645,23.5097241 32.2381211,22.517184 L30.962596,25.1837195 C31.7804198,26.0666579 32.2930365,26.7422065 32.500446,27.2103651 C32.8056532,27.8889764 32.9583661,28.8697031 32.9583661,30.1556081 L26.3768317,30.1556081 L24.8286987,30.1556081 L24.0863562,30.1556081 C23.7262337,30.1556081 23.3943346,29.9274354 23.0891275,29.4682462 C22.7174093,28.923082 22.4342996,27.6815865 22.2387045,25.740697 C22.1290925,21.5097679 22.0194805,18.8252937 21.9114,17.6933998 C21.7365896,15.8741441 21.4372897,14.3097504 21.0119688,13 L19.0000085,16.1705716 C19.4251106,16.5645687 19.7570096,17.023758 19.9970184,17.5452954 C20.194145,17.9718886 20.3497022,18.5170528 20.4636899,19.1897574 C20.5778965,19.8622432 20.6710995,20.8460327 20.7424239,22.143751 C20.811998,23.4414692 20.8800406,24.7037475 20.9467704,25.9362735 C21.0548509,27.4534138 21.2106269,28.7275054 21.4119105,29.7644549 C21.6134128,30.8016232 21.9114,31.577804 22.3039029,32.1021855 C22.7513212,32.7037912 23.3455452,33 24.0863562,33 L24.8286987,33 L26.3768317,33 L33.1080161,33 L34.1525026,33 L52.0000085,33 L52.0000085,30.1556081 L51.0191888,30.1556081 C50.5494542,30.0578198 49.6561491,29.4148673 48.3359916,28.2267507" id="Fill-12" fill="#FEFEFE"></path>
                        <path d="M79.0046665,30.428437 C78.3822387,30.3561211 77.72064,30.1538925 77.0181488,29.8217512 C76.3156576,29.4923832 75.7704951,29.1197109 75.384168,28.7065076 C75.7063583,28.1749109 75.984643,27.7962656 76.2207438,27.5739848 C76.5750025,27.2243513 77.0093246,26.9815916 77.5252166,26.8544521 C77.93199,27.3860488 78.2599914,27.9033529 78.5062077,28.4031647 C78.7963297,28.9983311 79.0104776,29.6050168 79.1503732,30.2204487 L79.0046665,30.428437 Z M80.1152225,27.6375546 C79.6750894,26.7445917 79.0862364,25.7392085 78.3458658,24.6239648 C77.6272328,24.7916353 76.8388672,25.1873463 75.9803385,25.8027782 C75.02582,26.4962857 74.2210974,27.3081865 73.5668163,28.2412538 C73.0842841,28.9347613 72.5464392,29.4721177 71.9575863,29.8535361 C71.195478,30.3446017 70.3268338,30.5873613 69.3501472,30.5873613 L67.9161095,30.5873613 L67.9161095,29.4893967 C67.9161095,28.3626336 67.6800088,27.3399714 67.2078073,26.4269563 C66.7894118,25.6178286 66.1407266,24.8089143 65.2604603,24 L64.3438212,26.5048186 C65.062239,27.2936807 65.6205301,28.0563043 66.0169727,28.8018622 C66.5111271,29.7263966 66.7573434,30.6104 66.7573434,31.4483261 C66.7573434,32.4276841 66.2808374,33.5256487 65.3261036,34.7420067 C64.3698633,35.9613512 63.2171234,36.9667344 61.865947,37.7641294 C60.3748749,38.6366135 58.9423438,39.0730688 57.5692145,39.0730688 C56.9470019,39.0730688 56.2531196,39.0007529 55.4864916,38.8563344 C54.7183571,38.7119159 53.9809996,38.5730437 53.2739887,38.4343849 L53.0000085,39.0730688 C53.7608254,39.3589193 54.5289599,39.6479697 55.301399,39.9340335 C56.2124423,40.2719344 56.9965034,40.5234402 57.6509997,40.6823646 C58.5080217,40.8961125 59.3080094,41 60.0470887,41 C60.8515961,41 61.8762777,40.6187949 63.1209183,39.8559579 C64.4296956,39.058563 65.5243249,38.1050168 66.4030846,36.9985193 C67.4118396,35.7446168 67.9161095,34.5340185 67.9161095,33.3609647 L69.3983574,33.3609647 C70.6429979,33.3609647 71.5904141,33.2165462 72.2388841,32.9247227 C72.8875693,32.6328992 73.5231258,32.1070622 74.1453385,31.3529714 C74.9397304,32.0029614 75.8563695,32.5115193 76.8971929,32.8841916 C77.7979054,33.2050269 78.6082239,33.3609647 79.3268569,33.3609647 L81.0000085,33.3609647 L81.0000085,30.5873613 C81.0000085,29.8332706 80.705582,28.8479396 80.1152225,27.6375546 L80.1152225,27.6375546 Z" id="Fill-14" fill="#FEFEFE"></path>
                    </g>
                    <g id="Group-17" transform="translate(190.000000, 0.000000)">
                        <path d="M94,26.475826 L93.9536855,52.8508472 C93.9505285,54.593343 92.3686448,56.0033462 90.4201245,56 L6.52241095,55.853756 C4.57389059,55.8504038 2.9968477,54.4349533 3,52.692248 L3.0818771,6.14915279 C3.08503414,4.406657 4.66691781,2.9966538 6.6152277,3 L66.5822151,3.10455152 C68.8737997,3.10853221 71.0795129,3.88518628 72.7594751,5.27968573 L91.0875211,20.4926356 C92.948276,22.0369348 94.0039876,24.2057837 94,26.475826" id="Fill-1" fill="#FEFEFE"></path>
                        <g id="Group-5">
                            <mask id="mask-2" fill="white">
                                <use xlink:href="#path-1"></use>
                            </mask>
                            <g id="Clip-4"></g>
                            <path d="M6.68637453,0 L6.68097623,0 L6.67391691,0 C3.04439142,0 0.0867465106,2.8066445 0.0807253311,6.25610045 L-5.07154164e-05,52.5752215 C-0.0060627049,56.031141 2.94742967,58.8480021 6.58380685,58.8544657 L89.3486568,59 L89.3611144,59 C92.9906399,59 95.9482848,56.193564 95.9543059,52.7438996 L96,26.4957999 C96.0055898,23.3111414 94.550333,20.2632602 92.0071113,18.13383 L73.9263397,2.99408773 C71.707016,1.13571002 68.8363667,0.109255012 65.8436329,0.104042464 L6.68637453,0 Z M6.67391691,3.12752897 L6.68097623,3.12752897 L65.8382346,3.23157143 C68.0986684,3.23553297 70.2745981,4.00844963 71.9318759,5.39623848 L90.0126475,20.5359807 C91.8480691,22.0728485 92.8895256,24.2312604 92.8855918,26.4903789 L92.8399027,52.7384785 C92.8367883,54.470504 91.280002,55.872471 89.3611144,55.872471 L89.3542627,55.872471 L6.58920515,55.7269367 C4.66720312,55.7233921 3.1114549,54.3147531 3.11435761,52.5806425 L3.19512854,6.2615215 C3.19824294,4.52949596 4.75523691,3.12752897 6.67391691,3.12752897 L6.67391691,3.12752897 Z" id="Fill-3" fill="#231F20" mask="url(#mask-2)"></path>
                        </g>
                        <path d="M26.647898,30.8017133 L24.5708136,30.8017133 L24.5708136,35.6557967 C24.5708136,35.7944483 24.5471946,35.8890125 24.500552,35.9390634 C24.4535125,35.9895402 24.3653877,36.0146721 24.2363763,36.0146721 L22.4585985,36.0146721 C22.3293886,36.0146721 22.2414623,35.9895402 22.1946212,35.9390634 C22.1475817,35.8890125 22.1243596,35.7944483 22.1243596,35.6557967 L22.1243596,22.3588755 C22.1243596,22.2204369 22.1475817,22.1258726 22.1946212,22.0753958 C22.2414623,22.0251319 22.3293886,22 22.4585985,22 L24.2363763,22 C24.3653877,22 24.4535125,22.0251319 24.500552,22.0753958 C24.5471946,22.1258726 24.5708136,22.2204369 24.5708136,22.3588755 L24.5708136,28.6482476 L26.647898,28.6482476 C26.7534889,28.6482476 26.8386364,28.6644343 26.9031422,28.6955297 C26.9674494,28.7272641 27,28.8309866 27,29.0073361 L27,30.4428379 C27,30.5814895 26.9734038,30.6760537 26.9208068,30.7261046 C26.8680114,30.7765814 26.7769094,30.8017133 26.647898,30.8017133 M16.5798444,28.4782876 C16.075112,28.4782876 15.6670388,28.5666753 15.3564189,28.7428118 C15.0454021,28.9191613 14.8899929,29.1272452 14.8899929,29.3662115 C14.8899929,29.6053908 15.0454021,29.810067 15.3564189,29.980027 C15.6670388,30.149987 16.075112,30.234967 16.5798444,30.234967 C17.107799,30.234967 17.5184524,30.149987 17.8118045,29.980027 C18.1049583,29.810067 18.2518328,29.6053908 18.2518328,29.3662115 C18.2518328,29.1272452 18.1049583,28.9191613 17.8118045,28.7428118 C17.5184524,28.5666753 17.107799,28.4782876 16.5798444,28.4782876 M18.6390657,23.9453818 L14.3618399,23.9453818 C14.2564475,23.9453818 14.1683227,23.9234446 14.0978626,23.8791443 C14.0274025,23.8352699 13.9922717,23.725158 13.9922717,23.5488085 L13.9922717,22.5286225 C13.9922717,22.3652649 14.0274025,22.2581347 14.0978626,22.2076579 C14.1683227,22.157394 14.2564475,22.1320491 14.3618399,22.1320491 L18.6390657,22.1320491 C18.8853783,22.1320491 19.0086338,22.2709137 19.0086338,22.5475779 L19.0086338,23.5108976 C19.0086338,23.8007667 18.8853783,23.9453818 18.6390657,23.9453818 M24.8173247,40 L15.1011747,40 C14.8546636,40 14.6522149,39.9778498 14.4938285,39.9339754 C14.3356407,39.8896751 14.2123851,39.817474 14.1242604,39.7167333 C14.0363341,39.6157796 13.9746071,39.477341 13.9394763,39.3012045 C13.9043455,39.1246421 13.8866808,38.9046312 13.8866808,38.640107 L13.8866808,35.8257567 C13.8866808,35.5740114 14.0037835,35.4481388 14.2385843,35.4481388 L15.9635667,35.4481388 C16.2100778,35.4481388 16.3333333,35.5740114 16.3333333,35.8257567 L16.3333333,37.7523961 C16.3333333,37.9413115 16.4212596,38.0356627 16.5973106,38.0356627 L24.8173247,38.0356627 C24.9110069,38.0356627 24.995956,38.0575999 25.0725689,38.1016873 C25.1487849,38.1457747 25.1868929,38.2371441 25.1868929,38.3755827 L25.1868929,39.66008 C25.1868929,39.8362165 25.1487849,39.9367442 25.0725689,39.9623021 C24.995956,39.987434 24.9110069,40 24.8173247,40 M20.8392071,26.287337 L12.0561076,26.287337 C11.7978862,26.287337 11.6688747,26.1550749 11.6688747,25.8907637 L11.6688747,24.8897461 C11.6688747,24.6128689 11.7978862,24.4742173 12.0561076,24.4742173 L20.8392071,24.4742173 C21.09723,24.4742173 21.2266384,24.6128689 21.2266384,24.8897461 L21.2266384,25.9097191 C21.2266384,26.1616774 21.09723,26.287337 20.8392071,26.287337 M21.3496955,34.2771612 C19.730304,34.5037745 18.0757818,34.6422131 16.3859303,34.692477 C14.6962773,34.7429538 13.0123801,34.7491303 11.3344374,34.7114324 C11.1935172,34.7114324 11.1026137,34.680124 11.0615285,34.6168682 C11.0202449,34.5540384 11,34.4535107 11,34.3148591 L11,33.0870152 C11,32.9487895 11.0234205,32.8510306 11.0704601,32.7941643 C11.1171027,32.7375109 11.2052274,32.7091843 11.3344374,32.7091843 C12.0265342,32.7345292 12.7073177,32.7534846 13.3761924,32.7660506 C14.0450672,32.7786166 14.7196978,32.7847931 15.4004813,32.7847931 L15.4004813,31.8404288 C14.5670673,31.6770713 13.8924367,31.3746362 13.3761924,30.9337625 C12.8597497,30.4933147 12.6017268,29.9704428 12.6017268,29.3662115 C12.6017268,28.9883806 12.7043405,28.6390894 12.9097664,28.3179118 C13.1149939,27.9967343 13.3938571,27.72007 13.7459591,27.4868542 C14.0978626,27.2538514 14.5172491,27.0683437 15.0043169,26.9294791 C15.4911863,26.7910405 16.0163621,26.7218212 16.5798444,26.7218212 C17.1429298,26.7218212 17.6679072,26.7910405 18.1551735,26.9294791 C18.6418444,27.0683437 19.064208,27.2538514 19.4224629,27.4868542 C19.7801223,27.72007 20.058787,27.9967343 20.2584571,28.3179118 C20.4577301,28.6390894 20.5577636,28.9883806 20.5577636,29.3662115 C20.5577636,29.9704428 20.3025194,30.489907 19.7920311,30.9243912 C19.2815427,31.3588755 18.6154466,31.6581158 17.7941399,31.8216863 L17.7941399,32.7283527 C18.3457135,32.7030078 18.8913327,32.6653099 19.431196,32.614833 C19.9708608,32.5645692 20.51648,32.4953499 21.068252,32.4071751 C21.2323943,32.3820432 21.3437411,32.3852379 21.4026894,32.4165464 C21.4612407,32.4480678 21.5021274,32.5394373 21.5257465,32.6904418 L21.6666667,33.8803748 C21.6898887,34.0190264 21.6724226,34.1133777 21.6138712,34.1636415 C21.5549229,34.2141184 21.4669966,34.2518163 21.3496955,34.2771612" id="Fill-6" fill="#231F20"></path>
                        <path d="M41.3818938,25.3028943 L38.8911051,25.3028943 C38.9636822,25.6438733 38.9999707,25.9777625 38.9999707,26.3050049 C38.9999707,26.6719063 38.9636822,27.019089 38.8911051,27.3463315 L41.3818938,27.3463315 L41.3818938,25.3028943 Z M38.4183288,34.419819 C37.5092698,34.419819 36.7970301,34.596623 36.2820197,34.9504524 C35.7665993,35.3038388 35.5090941,35.7101777 35.5090941,36.168583 C35.5090941,36.6141378 35.7665993,37.0034167 36.2820197,37.3375274 C36.7970301,37.6716381 37.5092698,37.8386935 38.4183288,37.8386935 C38.8423103,37.8386935 39.2363588,37.7926093 39.6000644,37.7011055 C39.963565,37.6093801 40.2786808,37.4879659 40.5454119,37.3375274 C40.811938,37.1868674 41.0210585,37.0098419 41.1727733,36.8071155 C41.3240781,36.6041676 41.4001406,36.3912496 41.4001406,36.168583 C41.4001406,35.9459163 41.3240781,35.7296749 41.1727733,35.5200802 C41.0210585,35.3107071 40.811938,35.1241546 40.5454119,34.960201 C40.2786808,34.7964691 39.963565,34.6655278 39.6000644,34.5671557 C39.2363588,34.4690051 38.8423103,34.419819 38.4183288,34.419819 L38.4183288,34.419819 Z M38.4183288,40 C37.6302317,40 36.9030255,39.9016279 36.2365053,39.7051052 C35.56978,39.508804 34.9910084,39.2367298 34.4999854,38.8899902 C34.0091673,38.5425859 33.6241396,38.1333668 33.3457224,37.6618895 C33.0664851,37.1901908 32.9272765,36.6726293 32.9272765,36.1094267 C32.9272765,35.5728112 33.0664851,35.0716451 33.3457224,34.6063716 C33.6241396,34.1417627 34.0091673,33.7356453 34.4999854,33.3882411 C34.9910084,33.0412799 35.56978,32.7694272 36.2365053,32.5729045 C36.9030255,32.3763818 37.6302317,32.2780097 38.4183288,32.2780097 C39.1697273,32.2780097 39.881762,32.37328 40.5546378,32.5629344 C41.2273087,32.7530319 41.8181765,33.0217827 42.3272413,33.3685223 C42.8365111,33.7159266 43.2424509,34.1220439 43.5454705,34.5868744 C43.8484902,35.0519264 44,35.5595177 44,36.1094267 C44,36.6726293 43.8484902,37.1901908 43.5454705,37.6618895 C43.2424509,38.1333668 42.8365111,38.5425859 42.3272413,38.8899902 C41.8181765,39.2367298 41.2273087,39.508804 40.5546378,39.7051052 C39.881762,39.9016279 39.1697273,40 38.4183288,40 L38.4183288,40 Z M34.4729227,23.9668944 C34.1573968,23.9668944 33.8756993,24.0291525 33.62742,24.153447 C33.3787306,24.2781846 33.1638696,24.44524 32.9820168,24.6546131 C32.800164,24.8642078 32.6605454,25.1132399 32.5637759,25.4012664 C32.4665964,25.6895144 32.4182116,25.9906129 32.4182116,26.3050049 C32.4182116,26.6193969 32.4665964,26.9176151 32.5637759,27.1989948 C32.6605454,27.4808177 32.800164,27.7265264 32.9820168,27.935678 C33.1638696,28.1454942 33.3787306,28.3125496 33.62742,28.4368441 C33.8756993,28.5615817 34.1573968,28.6236182 34.4729227,28.6236182 C34.7878335,28.6236182 35.0756817,28.5615817 35.3364672,28.4368441 C35.5968427,28.3125496 35.8182644,28.1454942 36.0001172,27.935678 C36.1819699,27.7265264 36.3242539,27.4808177 36.427379,27.1989948 C36.530299,26.9176151 36.5819641,26.6193969 36.5819641,26.3050049 C36.5819641,25.9906129 36.530299,25.6895144 36.427379,25.4012664 C36.3242539,25.1132399 36.1819699,24.8642078 36.0001172,24.6546131 C35.8182644,24.44524 35.5968427,24.2781846 35.3364672,24.153447 C35.0756817,24.0291525 34.7878335,23.9668944 34.4729227,23.9668944 L34.4729227,23.9668944 Z M34.4729227,30.9617286 C33.8059924,30.9617286 33.1968778,30.8338892 32.6455789,30.5784318 C32.0938699,30.323196 31.6241689,29.9826601 31.236476,29.556824 C30.848373,29.131431 30.5455584,28.6366901 30.327417,28.073266 C30.1092757,27.510285 30,26.9209385 30,26.3050049 C30,25.6762209 30.1092757,25.0804492 30.327417,24.517025 C30.5455584,23.9538225 30.848373,23.4593031 31.236476,23.033467 C31.6241689,22.6080741 32.0938699,22.267095 32.6455789,22.0118592 C33.1968778,21.7564019 33.8059924,21.628784 34.4729227,21.628784 C35.1757315,21.628784 35.8119087,21.7632702 36.3818645,22.0313564 C36.9514102,22.3001073 37.4364877,22.6636853 37.8364819,23.121869 L41.3818938,23.121869 L41.3818938,21.3733266 C41.3818938,21.2293134 41.4060862,21.1309413 41.4544709,21.0784318 C41.5028556,21.0261439 41.5936795,21 41.7273526,21 L43.5454705,21 C43.6787336,21 43.7695574,21.0261439 43.8181472,21.0784318 C43.8665319,21.1309413 43.8911343,21.2293134 43.8911343,21.3733266 L43.8911343,31.4724218 C43.8911343,31.6297285 43.8665319,31.7278791 43.8181472,31.7673166 C43.7695574,31.8065325 43.6787336,31.8262512 43.5454705,31.8262512 L41.7273526,31.8262512 C41.5936795,31.8262512 41.5028556,31.8065325 41.4544709,31.7673166 C41.4060862,31.7278791 41.3818938,31.6297285 41.3818938,31.4724218 L41.3818938,29.5273567 L37.7819465,29.5273567 C37.3817474,29.97269 36.9030255,30.323196 36.345576,30.5784318 C35.7879214,30.8338892 35.1636353,30.9617286 34.4729227,30.9617286 L34.4729227,30.9617286 Z" id="Fill-8" fill="#231F20"></path>
                        <path d="M62.6801518,40 L60.8851138,40 C60.7546494,40 60.6686752,39.9779884 60.6273915,39.9341768 C60.585707,39.8903652 60.5650652,39.7997789 60.5650652,39.6622063 L60.5650652,31.0467747 L59.25,31.0467747 L59.25,38.9677821 C59.25,39.1301178 59.2291578,39.2272652 59.1878741,39.2585895 C59.1461896,39.289702 59.0604158,39.3053642 58.9301518,39.3053642 L57.2595661,39.3053642 C57.1291016,39.3053642 57.0401213,39.289702 56.9928255,39.2585895 C56.9453292,39.2272652 56.9218817,39.1301178 56.9218817,38.9677821 L56.9218817,22.6755873 C56.9218817,22.5380147 56.9453292,22.4474285 56.9928255,22.4034052 C57.0401213,22.3598053 57.1291016,22.337582 57.2595661,22.337582 L58.9301518,22.337582 C59.0604158,22.337582 59.1461896,22.3598053 59.1878741,22.4034052 C59.2291578,22.4474285 59.25,22.5380147 59.25,22.6755873 L59.25,28.9258284 L60.5650652,28.9258284 L60.5650652,22.337582 C60.5650652,22.2002211 60.5889135,22.1094231 60.6364098,22.0653999 C60.6835052,22.0218 60.7724856,22 60.90295,22 L62.6801518,22 C62.8104158,22 62.8961896,22.0218 62.9378741,22.0653999 C62.9791578,22.1094231 63,22.2002211 63,22.337582 L63,39.6622063 C63,39.7997789 62.9791578,39.8903652 62.9378741,39.9341768 C62.8961896,39.9779884 62.8104158,40 62.6801518,40 M52.2121366,30.6901442 C51.7616236,30.6901442 51.4034978,30.8560779 51.1369576,31.187522 C50.870217,31.5193895 50.7369469,31.9166569 50.7369469,32.3795358 C50.7369469,32.8424147 50.870217,33.2430685 51.1369576,33.5806505 C51.4034978,33.9186558 51.7616236,34.0875526 52.2121366,34.0875526 C52.6858968,34.0875526 53.0500347,33.9186558 53.3051518,33.5806505 C53.5596676,33.2430685 53.6871259,32.8424147 53.6871259,32.3795358 C53.6871259,31.9166569 53.5596676,31.5193895 53.3051518,31.187522 C53.0500347,30.8560779 52.6858968,30.6901442 52.2121366,30.6901442 M54.4158027,25.0028926 L50.09705,25.0028926 C49.9906344,25.0028926 49.8986479,24.9813042 49.821692,24.937281 C49.7445356,24.8934694 49.7060576,24.7842579 49.7060576,24.6087999 L49.7060576,23.3137126 C49.7060576,23.1511653 49.7445356,23.0447052 49.821692,22.9947558 C49.8986479,22.9448063 49.9906344,22.9194083 50.09705,22.9194083 L54.4158027,22.9194083 C54.6647071,22.9194083 54.7891594,23.0574042 54.7891594,23.3325494 L54.7891594,24.5899631 C54.7891594,24.8655316 54.6647071,25.0028926 54.4158027,25.0028926 M52.1943004,36.1896621 C51.6491957,36.1896621 51.1485811,36.0897632 50.6924567,35.8893305 C50.2363323,35.6893211 49.8453399,35.417139 49.5196799,35.0729958 C49.1936191,34.7290643 48.9387024,34.3222727 48.7553308,33.8528326 C48.5715584,33.3836042 48.4797723,32.8803001 48.4797723,32.3420737 C48.4797723,31.804059 48.5715584,31.3066811 48.7553308,30.84994 C48.9387024,30.393199 49.1964248,29.99572 49.5284978,29.6579263 C49.8599695,29.3201326 50.2541684,29.0543 50.7102929,28.8602168 C51.1662169,28.6663453 51.6670319,28.5691978 52.2121366,28.5691978 C52.7568405,28.5691978 53.2574551,28.6663453 53.7139803,28.8602168 C54.1699043,29.0543 54.5639028,29.3201326 54.8957754,29.6579263 C55.2272472,29.99572 55.4849695,30.393199 55.6689424,30.84994 C55.8525144,31.3066811 55.9443004,31.804059 55.9443004,32.3420737 C55.9443004,32.8676011 55.8525144,33.364979 55.6689424,33.8342074 C55.4849695,34.3034358 55.2272472,34.7102274 54.8957754,35.0541589 C54.5639028,35.3985137 54.1670987,35.673659 53.7049621,35.8800179 C53.2430259,36.0865884 52.7392048,36.1896621 52.1943004,36.1896621 M55.7667406,27.9873715 L48.3909924,27.9873715 C48.130264,27.9873715 48,27.8497989 48,27.5744421 L48,26.2979799 C48,26.0353221 48.130264,25.9038873 48.3909924,25.9038873 L55.7667406,25.9038873 C56.0154446,25.9038873 56.1398969,26.0353221 56.1398969,26.2979799 L56.1398969,27.5932789 C56.1398969,27.8559368 56.0154446,27.9873715 55.7667406,27.9873715" id="Fill-10" fill="#231F20"></path>
                        <path d="M74,25.120063 C73.4310773,25.120063 72.9154785,25.1841575 72.4534042,25.3121403 C71.9911294,25.439917 71.5970131,25.6107668 71.2712557,25.8236593 C70.9450974,26.036964 70.690305,26.2869529 70.506678,26.5730079 C70.3228506,26.8594751 70.2310372,27.1552163 70.2310372,27.4596134 C70.2310372,27.776376 70.3228506,28.0780939 70.506678,28.3641489 C70.690305,28.6506161 70.9450974,28.9032842 71.2712557,29.1227716 C71.5970131,29.342053 71.9911294,29.515582 72.4534042,29.6435648 C72.9154785,29.7715476 73.4310773,29.835436 74,29.835436 C74.5568948,29.835436 75.06668,29.7715476 75.5289548,29.6435648 C75.9910291,29.515582 76.384945,29.342053 76.7113038,29.1227716 C77.0370612,28.9032842 77.2888466,28.6506161 77.46666,28.3641489 C77.6444734,28.0780939 77.7334803,27.776376 77.7334803,27.4596134 C77.7334803,27.1552163 77.6444734,26.8594751 77.46666,26.5730079 C77.2888466,26.2869529 77.0370612,26.036964 76.7113038,25.8236593 C76.384945,25.6107668 75.9910291,25.439917 75.5289548,25.3121403 C75.06668,25.1841575 74.5568948,25.120063 74,25.120063 M74,31.9373629 C73.1229609,31.9373629 72.3110732,31.8308136 71.5645375,31.6175089 C70.8178014,31.4044104 70.1658857,31.0998072 69.6089909,30.7036993 C69.0516952,30.3077976 68.6160824,29.835436 68.3021525,29.2870265 C67.9882226,28.7390293 67.8310572,28.1298229 67.8310572,27.4596134 C67.8310572,26.8015634 67.9882226,26.1983336 68.3021525,25.6501303 C68.6160824,25.1017209 69.0488887,24.6328628 69.5999699,24.2427316 C70.1510512,23.8530126 70.8027664,23.5484094 71.5555166,23.328922 C72.3080663,23.1096407 73.1229609,23 74,23 C74.8888666,23 75.7067682,23.1096407 76.4535044,23.328922 C77.2000401,23.5484094 77.8489488,23.8530126 78.4000301,24.2427316 C78.9511113,24.6328628 79.3805097,25.1017209 79.689027,25.6501303 C79.9971434,26.1983336 80.1511013,26.8015634 80.1511013,27.4596134 C80.1511013,28.1298229 79.9971434,28.7390293 79.689027,29.2870265 C79.3805097,29.835436 78.9511113,30.3077976 78.4000301,30.7036993 C77.8489488,31.0998072 77.2000401,31.4044104 76.4535044,31.6175089 C75.7067682,31.8308136 74.8888666,31.9373629 74,31.9373629 M81.6267322,37 L66.3556268,37 C66.2012679,37 66.103641,36.9635218 66.062345,36.8901532 C66.020648,36.8171969 66,36.7258983 66,36.6162577 L66,35.3001575 C66,35.1661981 66.020648,35.0689229 66.062345,35.0077137 C66.103641,34.9469167 66.2012679,34.9164152 66.3556268,34.9164152 L69.519984,34.9164152 L69.519984,32.7415318 C69.519984,32.6075724 69.543639,32.5129764 69.5911494,32.4581561 C69.638259,32.4033357 69.7334803,32.3759256 69.8754103,32.3759256 L71.6178615,32.3759256 C71.771619,32.3759256 71.8726539,32.4033357 71.9201644,32.4581561 C71.9672739,32.5129764 71.9911294,32.6075724 71.9911294,32.7415318 L71.9911294,34.9164152 L75.9910291,34.9164152 L75.9910291,32.7415318 C75.9910291,32.6075724 76.0146841,32.5129764 76.0623951,32.4581561 C76.1095046,32.4033357 76.210339,32.3759256 76.3644975,32.3759256 L78.1067482,32.3759256 C78.2490791,32.3759256 78.3436991,32.4033357 78.3910091,32.4581561 C78.4383191,32.5129764 78.462375,32.6075724 78.462375,32.7415318 L78.462375,34.9164152 L81.6267322,34.9164152 C81.875711,34.9164152 82,35.0441919 82,35.3001575 L82,36.6162577 C82,36.8720172 81.875711,37 81.6267322,37" id="Fill-12" fill="#231F20"></path>
                        <g id="Group-16" transform="translate(16.000000, 58.000000)">
                            <mask id="mask-4" fill="white">
                                <use xlink:href="#path-3"></use>
                            </mask>
                            <g id="Clip-15"></g>
                            <path d="M1.68523508,0.712234733 L0.0173390237,8.98311369 C-0.11833514,9.65578965 0.567121579,10.2015678 1.20339381,9.92779749 L20.4826716,1.62793569 C21.3375647,1.25977534 21.070593,-0.00136969318 20.1381718,0 L2.52658162,0.0289839528 C2.11726663,0.0295714427 1.76526408,0.315483205 1.68523508,0.712234733" id="Fill-14" fill="#231F20" mask="url(#mask-4)"></path>
                        </g>
                    </g>
                    <g id="Group-10">
                        <path d="M3.04725733,26.7497386 L3,53.6525847 C2.99673118,55.430068 4.32982635,56.8734151 5.9775404,56.87644 L76.9272561,57 C78.5749701,57.0027882 79.9132115,55.5640947 79.9162524,53.7866114 L80,6.31205468 C80.0030357,4.53457139 78.6699406,3.09122424 77.0222265,3.08843202 L26.3101073,3 C24.3723356,2.99652131 22.5045053,3.78160164 21.0792467,5.19842266 L5.52982253,20.656175 C3.9511141,22.2254049 3.05123393,24.4342868 3.04725733,26.7497386" id="Fill-1" fill="#FEFEFE"></path>
                        <g id="Group-5">
                            <mask id="mask-6" fill="white">
                                <use xlink:href="#path-5"></use>
                            </mask>
                            <g id="Clip-4"></g>
                            <path d="M26.8008924,0 C23.925711,0 21.192254,1.16276763 19.1038068,3.27372908 L3.557621,18.9898998 C1.33236063,21.2394943 0.0530990156,24.4103132 0.0472522989,27.6892469 L-3.55271351e-14,55.0418471 C-0.00302946465,56.810011 0.634262655,58.4870933 1.79448511,59.7645999 C3.00966671,61.1021967 4.71690799,61.8710665 6.47887453,61.8743785 L77.413814,62 C80.9978513,62 83.9099839,58.9453397 83.9165323,55.190653 L84.0000342,6.92219343 C84.0030637,5.15426618 83.3657716,3.47694726 82.2055491,2.19967719 C80.9903675,0.861843837 79.2831262,0.092974095 77.5209258,0.089898616 L26.8196019,0 L26.8008924,0 Z M26.8008924,3.54862958 C26.805102,3.54862958 26.8093117,3.54862958 26.8132874,3.54862958 L77.5148452,3.6385282 C79.1622161,3.6413671 80.4950337,5.10884372 80.4919986,6.91604248 L80.4085023,55.1842655 C80.4052281,56.9898082 79.0700719,58.4513704 77.4248058,58.4513704 L77.4198946,58.4513704 L6.48518898,58.3257489 C4.83781809,58.3226735 3.50500055,56.8554334 3.50803565,55.0479981 L3.55528231,27.6953978 C3.55949195,25.341237 4.45918471,23.0956642 6.03733048,21.4999638 L21.5835163,5.78379307 C23.0054378,4.34636151 24.8679679,3.54862958 26.8008924,3.54862958 L26.8008924,3.54862958 Z" id="Fill-3" fill="#231F20" mask="url(#mask-6)"></path>
                        </g>
                        <mask id="mask-8" fill="white">
                            <use xlink:href="#path-7"></use>
                        </mask>
                        <g id="Clip-7"></g>
                        <path d="M27.3531822,26.7046822 L28.9380027,26.7046822 L28.9380027,25.5914274 L27.3531822,25.5914274 L27.3531822,26.7046822 Z M30.8974084,40.5466624 C32.1076437,38.8343086 33.0875855,36.7223188 33.8943294,34.210693 C34.5856876,31.9846567 35.1045646,28.9309551 35.3926704,25.0493516 L35.1332319,25.0493516 C34.643261,26.6476589 34.0670495,28.1316831 33.4330257,29.5016608 L31.5314322,28.816672 L31.5314322,29.0450016 L25.998894,29.0450016 L28.0445404,29.5016608 C27.8718203,29.9012968 27.7277674,30.215043 27.6123818,30.5006325 L31.8771113,30.5006325 L31.8771113,32.9549984 L27.1515559,32.9549984 L27.1515559,33.8396869 L31.3008998,33.8396869 L31.3008998,36.2942895 L27.1515559,36.2942895 L27.1515559,37.178978 L31.1855142,37.178978 L31.1855142,39.633344 L27.1515559,39.633344 L27.1515559,40.5466624 L30.8974084,40.5466624 Z M25.7970289,18 L28.9380027,18 L28.9380027,19.0276016 L32.3095089,19.0276016 L32.3095089,21.9099968 L28.9380027,21.9099968 L28.9380027,22.9089685 L25.7970289,22.9089685 L25.7970289,18 Z M21.3884853,40.5466624 L24.2122084,40.5466624 L24.2122084,39.633344 L21.3884853,39.633344 L21.3884853,40.5466624 Z M21.3884853,37.178978 L24.2122084,37.178978 L24.2122084,36.2942895 L21.3884853,36.2942895 L21.3884853,37.178978 Z M21.3884853,33.8396869 L24.2122084,33.8396869 L24.2122084,32.9549984 L21.3884853,32.9549984 L21.3884853,33.8396869 Z M19.9477177,26.7046822 L21.6190177,26.7046822 L21.6190177,25.5914274 L19.9477177,25.5914274 L19.9477177,26.7046822 Z M20.495023,18 L23.6359969,18 L23.6359969,22.9089685 L20.495023,22.9089685 L20.495023,22.0242799 L16.8932234,22.0242799 L16.8932234,19.1416481 L20.495023,19.1416481 L20.495023,18 Z M17.3540492,23.2513446 L24.2122084,23.2513446 L24.2122084,29.0450016 L21.1290468,29.0450016 L22.4257616,29.3876143 C22.2528026,29.7870137 22.1374169,30.1580197 22.0222702,30.5006325 L24.3851674,30.5006325 C24.5867936,30.0439732 24.7597526,29.5586841 24.9327116,29.0450016 L24.7886587,29.0450016 L24.7886587,23.2513446 L31.5314322,23.2513446 L31.5314322,26.3050462 C31.9635908,25.1063748 32.3381761,23.8220503 32.655188,22.4523092 C32.9721999,21.1109615 33.2316384,19.7123538 33.4330257,18.2283296 L36.48752,18.7990354 C36.3723733,19.427001 36.2858938,20.0549666 36.1705081,20.6256723 C36.0553614,21.2536379 35.9691208,21.8243436 35.8537351,22.366656 L43,22.366656 C42.7692287,23.6793739 42.481123,24.9923283 42.1065377,26.2482595 C41.7319525,27.5609774 41.2708877,28.816672 40.7522496,30.0439732 L38.5047381,28.7026255 C38.9655639,27.5609774 39.3403881,26.362306 39.6284938,25.0493516 L38.331779,25.0493516 C38.15882,27.1043182 37.9571938,28.9879783 37.7266614,30.6433089 C37.8707143,31.4993675 38.0436733,32.2986395 38.2742057,33.0406516 C38.4760708,33.7826637 38.7063643,34.4676525 38.9655639,35.0669882 C39.7725467,37.5213541 41.0116881,39.4336443 42.6827492,40.8606452 L40.6371028,44 C39.9455057,43.2579879 39.3690553,42.4587159 38.8504172,41.6596806 C38.331779,40.8606452 37.9282877,40.0329799 37.5826085,39.1766847 C37.150211,38.2633662 36.7758647,37.207608 36.48752,36.0087 C35.9691208,37.5499841 35.3926704,38.9483551 34.7297405,40.2326796 C34.0383822,41.5170041 33.2889728,42.6872822 32.4246556,43.7716704 L31.4160466,42.4873459 L31.4160466,42.972635 L21.3884853,42.972635 L21.3884853,43.8859535 L18.3626583,43.8859535 L18.3626583,36.3797061 C18.2475115,36.4939892 18.1899382,36.5796424 18.1321259,36.6366656 L16,34.5246758 C16.4032525,34.0966465 16.7491705,33.6399873 17.0948496,33.1546981 C17.4407676,32.6980389 17.7288734,32.2413796 18.0169791,31.7563271 C18.5356173,30.9000319 18.9677759,30.0153433 19.3136939,29.0450016 L17.3540492,29.0450016 L17.3540492,23.2513446 Z" id="Fill-6" fill="#231F20" mask="url(#mask-8)"></path>
                        <path d="M63.813678,19.1130283 L71.117932,19.1130283 L71.117932,33.069182 C71.0905102,34.2394707 70.8423429,35.0955371 70.3462368,35.6664847 C69.8501307,36.2658258 69.1058573,36.5511812 68.1138736,36.5225511 C67.7829839,36.5511812 67.4797444,36.5511812 67.1490832,36.4939209 C66.8181935,36.4655273 66.514954,36.4085035 66.1842928,36.2942194 L65.5227418,33.069182 C65.8536316,33.24049 66.1842928,33.3261439 66.514954,33.3831677 C66.8181935,33.4688217 67.0940111,33.4972152 67.3696002,33.4972152 C67.5898887,33.5258454 67.7829839,33.4401915 67.9207784,33.2691202 C68.0309227,33.0978122 68.1138736,32.8408504 68.1138736,32.4984711 L68.1138736,22.1383641 L65.3022248,22.1383641 L65.3022248,39.5192567 L62.2977094,39.5192567 L62.2977094,19.1130283 L63.813678,19.1130283 Z M59.7068061,18 L62.1875651,20.5684358 C61.5260141,21.0823596 60.7540904,21.4817626 59.8171788,21.7103309 C59.2107,21.938426 58.5767993,22.0811037 57.887598,22.1667577 L57.887598,33.2691202 C58.4940769,33.154836 59.1003272,33.0121583 59.6793843,32.8408504 C60.2305625,32.7268028 60.7817407,32.5554949 61.3331475,32.384187 L62.0774209,35.0671435 C59.9823952,35.9232099 57.5843586,36.6652288 54.8833111,37.2932001 L53.5876309,34.1822103 C53.8081479,34.1538168 54.0563152,34.096793 54.2768322,34.0395326 C54.4973492,34.0109024 54.7455165,33.9538786 54.965805,33.8968549 L54.965805,19.5696917 C56.06839,19.5126679 57.0055301,19.3127298 57.7774538,18.9987441 C58.1355368,18.9133268 58.4664266,18.770649 58.7973163,18.5993411 C59.1279776,18.4280332 59.431217,18.2283317 59.7068061,18 L59.7068061,18 Z M50.9967277,18.5707109 C51.6308568,18.9703506 52.2371072,19.3699902 52.8433575,19.7980234 C53.4224146,20.2546868 54.0012431,20.7397437 54.5524213,21.2536675 L52.4025521,24.0220414 C51.1895943,22.8803829 49.9770937,21.8814022 48.7364856,21.0250992 L50.9967277,18.5707109 Z M49.701276,23.7080558 C50.8865834,24.5070984 51.9891684,25.4490554 53.0364527,26.4764297 L50.8865834,29.2734338 C49.7563481,28.0747516 48.5986911,27.018747 47.4412625,26.162444 L49.701276,23.7080558 Z M47.220517,30.0438462 L53.1468255,30.0438462 L53.1468255,38.6345601 C54.2768322,39.4908631 55.5997057,39.9472899 57.1435531,40.0045503 C57.6947314,40.1185978 58.6595218,40.2042518 60.0376958,40.2612755 C61.4156414,40.3185359 63.235078,40.3469295 65.4676697,40.3185359 C66.735471,40.3469295 67.8931281,40.3185359 68.9957131,40.2042518 C70.0706477,40.1185978 71.0630884,39.9759201 72,39.7475884 C71.6693388,40.3185359 71.3937497,40.917877 71.1732327,41.5172182 C70.9527157,42.1165593 70.759849,42.744294 70.5944041,43.4292891 L62.573527,43.4292891 C59.6515055,43.4292891 57.3364198,43.2009574 55.6275845,42.7729242 C54.3593262,42.4303083 53.1468255,41.7455499 51.9612896,40.7465691 C50.9693059,41.8309672 50.0045155,42.9156019 49.0671469,44 C48.3507523,42.8015544 47.661551,41.7169197 47,40.7465691 C48.0472843,40.2899057 49.0950257,39.7762186 50.14231,39.205271 L50.14231,33.1834662 L47.220517,33.1834662 L47.220517,30.0438462 Z" id="Fill-8" fill="#231F20" mask="url(#mask-8)"></path>
                        <path d="M65.7962699,60.5697376 L66.9876065,67.1865782 C67.084554,67.7246763 66.5949222,68.1612372 66.1404804,67.9422209 L52.3694972,61.302326 C51.758914,61.00777 51.9495464,59.9987748 52.6155949,60 L65.1952416,60.0230555 C65.4877157,60.0237912 65.7391734,60.2523726 65.7962699,60.5697376" id="Fill-9" fill="#231F20" mask="url(#mask-8)"></path>
                    </g>
                </g>
            </g>
        </g>
    </g>
</svg>