<?xml version="1.0" encoding="UTF-8"?>
<svg width="16px" height="16px" viewBox="0 0 16 16" version="1.1" xmlns="http://www.w3.org/2000/svg" xmlns:xlink="http://www.w3.org/1999/xlink">
    <title>icons/globe</title>
    <g id="WEB-ELEMENTS" stroke="none" stroke-width="1" fill="none" fill-rule="evenodd" opacity="0.5">
        <g id="theSIMshop_LP_desktop" transform="translate(-1251.000000, -30.000000)" fill="#000000" fill-rule="nonzero">
            <g id="earth-americas-solid" transform="translate(1251.000000, 30.000000)">
                <path d="M16,8 C16,12.41875 12.41875,16 8,16 C3.58125,16 0,12.41875 0,8 C0,3.58125 3.58125,0 8,0 C12.41875,0 16,3.58125 16,8 Z M1.8034375,6.003125 L2.0959375,6.54375 C2.355,6.996875 2.7809375,7.33125 3.284375,7.475 L5.065625,7.990625 C5.63125,8.14375 6,8.634375 6,9.19375 L6,10.440625 C6,10.784375 6.19375,11.096875 6.5,11.221875 C6.80625,11.403125 7,11.715625 7,12.059375 L7,13.278125 C7,13.765625 7.465625,14.115625 7.934375,13.98125 C8.440625,13.8375 8.828125,13.409375 8.95625,12.928125 L9.04375,12.578125 C9.175,12.05 9.51875,11.596875 9.990625,11.325 L10.24375,11.18125 C10.7125,10.915625 11,10.41875 11,9.878125 L11,9.621875 C11,9.221875 10.840625,8.840625 10.559375,8.559375 L10.440625,8.440625 C10.159375,8.159375 9.775,7.971875 9.378125,7.971875 L8.003125,7.971875 C7.684375,7.971875 7.340625,7.909375 7.0375,7.7375 L5.959375,7.11875 C5.825,7.04375 5.721875,6.91875 5.675,6.771875 C5.575,6.471875 5.709375,6.146875 5.990625,6.003125 L6.178125,5.9125 C6.384375,5.809375 6.621875,5.790625 6.815625,5.865625 L7.56875,6.10625 C7.821875,6.190625 8.103125,6.09375 8.253125,5.871875 C8.4,5.65 8.384375,5.359375 8.215625,5.15625 L7.790625,4.65 C7.478125,4.275 7.48125,3.728125 7.8,3.359375 L8.290625,2.785 C8.565625,2.4640625 8.609375,2.005 8.4,1.638125 L8.325,1.508125 C8.190625,1.5028125 8.109375,1.5 8,1.5 C5.096875,1.5 2.6375,3.403125 1.8034375,6.003125 L1.8034375,6.003125 Z M13.675,4.828125 L12.875,5.15 C12.384375,5.346875 12.13125,5.890625 12.296875,6.39375 L12.825,7.978125 C12.934375,8.303125 13.2,8.55 13.53125,8.634375 L14.44375,8.859375 C14.48125,8.578125 14.5,8.290625 14.5,8 C14.5,6.85 14.2,5.76875 13.675,4.828125 L13.675,4.828125 Z" id="Shape"></path>
            </g>
        </g>
    </g>
</svg>