<?xml version="1.0" encoding="UTF-8"?>
<svg width="442px" height="468px" viewBox="0 0 442 468" version="1.1" xmlns="http://www.w3.org/2000/svg" xmlns:xlink="http://www.w3.org/1999/xlink">
    <title>right-SIM-images</title>
    <defs>
        <polygon id="path-1" points="0 0 130 0 130 95 0 95"></polygon>
        <polygon id="path-3" points="0 105 130 105 130 0 0 0"></polygon>
        <polygon id="path-5" points="0 0 122 0 122 89 0 89"></polygon>
        <polygon id="path-7" points="4.30200401e-15 0 206 0 206 110 4.30200401e-15 110"></polygon>
        <polygon id="path-9" points="0 0 240 0 240 151 0 151"></polygon>
        <polygon id="path-11" points="0 164 240 164 240 0 0 0"></polygon>
    </defs>
    <g id="WEB-ELEMENTS" stroke="none" stroke-width="1" fill="none" fill-rule="evenodd">
        <g id="theSIMshop_LP_desktop" transform="translate(-789.000000, -118.000000)">
            <g id="right-SIM-images" transform="translate(789.000000, 118.000000)">
                <g id="Group-10" transform="translate(0.000000, 363.000000)">
                    <path d="M5.07303406,41.9440379 L5,83.7929095 C4.99494818,86.5578835 7.05518618,88.8030902 9.60165335,88.8077956 L119.251214,89 C121.797681,89.0043371 123.865872,86.7663696 123.870572,84.0013956 L124,10.1520851 C124.004692,7.38711105 121.944454,5.14190437 119.397986,5.13756091 L41.0247112,5 C38.0299733,4.9945887 35.1433264,6.21582477 32.940654,8.41976858 L8.90972573,32.4651611 C6.46990362,34.9061854 5.07917971,38.342224 5.07303406,41.9440379" id="Fill-1" fill="#FEFEFE"></path>
                    <g id="Group-5">
                        <mask id="mask-2" fill="white">
                            <use xlink:href="#path-1"></use>
                        </mask>
                        <g id="Clip-4"></g>
                        <path d="M41.4775716,0 C37.0278861,0 32.797536,1.78166007 29.5654153,5.01619778 L5.50584202,29.0974271 C2.06198669,32.5443865 0.0821770479,37.4028992 0.0731285578,42.4270718 L-4.26325675e-14,84.3383141 C-0.00468845719,87.0475974 0.981596965,89.6173204 2.77717934,91.5747902 C4.65781753,93.6243337 7.29997664,94.8024405 10.0268296,94.8075155 L119.807093,95 C125.353817,95 129.860689,90.3194721 129.870824,84.5663231 L130.000053,10.6065867 C130.004741,7.89766592 129.018456,5.32758048 127.222874,3.37047311 C125.342235,1.32056717 122.700076,0.142460307 119.972861,0.137747879 L41.5065267,0 L41.4775716,0 Z M41.4775716,5.43741629 C41.4840865,5.43741629 41.4906014,5.43741629 41.4967544,5.43741629 L119.963451,5.57516417 C122.512954,5.5795141 124.575647,7.82806699 124.57095,10.5971619 L124.44173,84.5565358 C124.436663,87.3230932 122.370349,89.5625837 119.824104,89.5625837 L119.816503,89.5625837 L10.036602,89.3700992 C7.48709942,89.3653867 5.42440561,87.1171964 5.42910279,84.347739 L5.50222263,42.4364967 C5.50873754,38.8293147 6.9011192,35.3885177 9.34348765,32.9434928 L33.4030609,8.86226357 C35.6036537,6.65974747 38.4861407,5.43741629 41.4775716,5.43741629 L41.4775716,5.43741629 Z" id="Fill-3" fill="#231F20" mask="url(#mask-2)"></path>
                    </g>
                    <mask id="mask-4" fill="white">
                        <use xlink:href="#path-3"></use>
                    </mask>
                    <g id="Clip-7"></g>
                    <path d="M42.2400173,41.3918187 L44.6465967,41.3918187 L44.6465967,39.6791191 L42.2400173,39.6791191 L42.2400173,41.3918187 Z M47.6219906,62.687173 C49.4597553,60.0527825 50.947815,56.8035674 52.1728705,52.9395277 C53.2227108,49.5148564 54.0106352,44.816854 54.4481291,38.8451563 L54.0541669,38.8451563 C53.3101371,41.3040906 52.4351492,43.5872048 51.4723724,45.6948628 L48.5847674,44.6410338 L48.5847674,44.9923101 L40.1835057,44.9923101 L43.2898576,45.6948628 C43.0275789,46.3096874 42.808832,46.7923738 42.6336168,47.2317423 L49.1096876,47.2317423 L49.1096876,51.0076899 L41.9338442,51.0076899 L41.9338442,52.3687491 L48.2346997,52.3687491 L48.2346997,56.1450607 L41.9338442,56.1450607 L41.9338442,57.50612 L48.0594845,57.50612 L48.0594845,61.2820676 L41.9338442,61.2820676 L41.9338442,62.687173 L47.6219906,62.687173 Z M39.8769698,28 L44.6465967,28 L44.6465967,29.5809255 L49.7662912,29.5809255 L49.7662912,34.0153797 L44.6465967,34.0153797 L44.6465967,35.5522592 L39.8769698,35.5522592 L39.8769698,28 Z M33.1825148,62.687173 L37.4703905,62.687173 L37.4703905,61.2820676 L33.1825148,61.2820676 L33.1825148,62.687173 Z M33.1825148,57.50612 L37.4703905,57.50612 L37.4703905,56.1450607 L33.1825148,56.1450607 L33.1825148,57.50612 Z M33.1825148,52.3687491 L37.4703905,52.3687491 L37.4703905,51.0076899 L33.1825148,51.0076899 L33.1825148,52.3687491 Z M30.9946824,41.3918187 L33.5325824,41.3918187 L33.5325824,39.6791191 L30.9946824,39.6791191 L30.9946824,41.3918187 Z M31.8257757,28 L36.5954026,28 L36.5954026,35.5522592 L31.8257757,35.5522592 L31.8257757,34.1911999 L26.3563762,34.1911999 L26.3563762,29.7563817 L31.8257757,29.7563817 L31.8257757,28 Z M27.0561489,36.0789917 L37.4703905,36.0789917 L37.4703905,44.9923101 L32.7885526,44.9923101 L34.757638,45.5194067 C34.4949965,46.1338672 34.3197813,46.7046458 34.1449288,47.2317423 L37.7330319,47.2317423 C38.0392051,46.5291896 38.3018466,45.7825909 38.564488,44.9923101 L38.3457411,44.9923101 L38.3457411,36.0789917 L48.5847674,36.0789917 L48.5847674,40.7769941 C49.2410083,38.9328844 49.809823,36.9570005 50.2912114,34.8497065 C50.7725998,32.7860946 51.166562,30.6343905 51.4723724,28.3512763 L56.1106785,29.2292852 C55.9358261,30.1953861 55.8045054,31.161487 55.6292901,32.0394958 C55.4544377,33.0055968 55.3234797,33.8836056 55.1482645,34.7179324 L66,34.7179324 C65.6495695,36.7374983 65.2120756,38.7574282 64.643261,40.6896301 C64.0744463,42.709196 63.374311,44.6410338 62.5867494,46.5291896 L59.1738615,44.4655776 C59.8736341,42.709196 60.4428115,40.8650862 60.8803054,38.8451563 L58.91122,38.8451563 C58.6485786,42.0066433 58.3424054,44.9045821 57.9923377,47.4512445 C58.2110847,48.7682577 58.4737261,49.9979069 58.8237938,51.139464 C59.1303298,52.2810211 59.4800347,53.3348501 59.8736341,54.2569049 C61.0990524,58.0328525 62.9807115,60.9748373 65.5182488,63.1702234 L62.4118969,68 C61.3616938,66.8584429 60.4863432,65.6287937 59.6987816,64.3995086 C58.91122,63.1702234 58.2985109,61.8968922 57.7735907,60.5795149 C57.1169871,59.1744096 56.5485352,57.5501661 56.1106785,55.7056923 C55.3234797,58.0768986 54.4481291,60.2282386 53.4414578,62.2041225 C52.3916175,64.1800064 51.2536254,65.9804341 49.9411437,67.6487237 L48.4095522,65.6728398 L48.4095522,66.4194385 L33.1825148,66.4194385 L33.1825148,67.8245438 L28.5877403,67.8245438 L28.5877403,56.2764709 C28.4128879,56.452291 28.3254616,56.5840652 28.2376726,56.6717932 L25,53.4225781 C25.6123464,52.7640715 26.1376293,52.0615189 26.6625494,51.3149201 C27.1878323,50.6123675 27.6253263,49.9098148 28.0628202,49.1635801 C28.8503818,47.8462028 29.5066227,46.4851436 30.0319056,44.9923101 L27.0561489,44.9923101 L27.0561489,36.0789917 Z" id="Fill-6" fill="#231F20" mask="url(#mask-4)"></path>
                    <path d="M98.2293377,29.7123512 L109.623974,29.7123512 L109.623974,51.183357 C109.581196,52.9838011 109.194055,54.3008263 108.420129,55.1792072 C107.646204,56.1012704 106.485137,56.5402788 104.937643,56.4962324 C104.421455,56.5402788 103.948401,56.5402788 103.43257,56.4521859 C102.916382,56.4085035 102.443328,56.3207746 101.927497,56.1449529 L100.895477,51.183357 C101.411665,51.4469076 101.927497,51.578683 102.443328,51.6664119 C102.916382,51.7981872 103.346657,51.8418696 103.776576,51.8418696 C104.120226,51.8859161 104.421455,51.7541407 104.636414,51.4909541 C104.808239,51.2274034 104.937643,50.8320775 104.937643,50.3053402 L104.937643,34.366714 L100.551471,34.366714 L100.551471,61.1065487 L95.8644266,61.1065487 L95.8644266,29.7123512 L98.2293377,29.7123512 Z M91.8226175,28 L95.6926016,31.9514397 C94.6605821,32.7420917 93.4563811,33.3565578 91.994799,33.7082014 C91.048692,34.0591169 90.059807,34.2786211 88.9846529,34.4103964 L88.9846529,51.4909541 C89.9307599,51.3151323 90.8765105,51.0956281 91.7798395,50.8320775 C92.6396775,50.6566197 93.4995155,50.3930691 94.3597101,50.1295184 L95.5207766,54.2571439 C92.2525365,55.5741691 88.5115994,56.7157366 84.2979653,57.6818463 L82.2767043,52.8957082 C82.6207108,52.8520258 83.0078518,52.7642969 83.3518583,52.676204 C83.6958648,52.6321575 84.0830058,52.5444287 84.4266558,52.4566998 L84.4266558,30.4149103 C86.1466884,30.3271814 87.6086269,30.0195843 88.8128279,29.5365294 C89.3714375,29.4051181 89.8876255,29.1856139 90.4038135,28.9220633 C90.919645,28.6585126 91.3926985,28.3512795 91.8226175,28 L91.8226175,28 Z M78.2348952,28.8780168 C79.2241367,29.492847 80.1698872,30.1076772 81.1156377,30.7661898 C82.0189667,31.4687489 82.9219393,32.2149904 83.7817773,33.0056423 L80.4279812,37.2646791 C78.5357672,35.5082815 76.6442661,33.971388 74.7089176,32.6539988 L78.2348952,28.8780168 Z M76.2139906,36.7816243 C78.0630701,38.0109206 79.7831027,39.4600852 81.4168662,41.0406611 L78.0630701,45.3437443 C76.2999031,43.4996178 74.4939581,41.8749954 72.6883695,40.5576062 L76.2139906,36.7816243 Z M72.3440065,46.5289942 L81.5890477,46.5289942 L81.5890477,59.745477 C83.3518583,61.0628663 85.4155408,61.7650613 87.8239429,61.8531542 C88.6837809,62.028612 90.188854,62.1603873 92.3388055,62.2481162 C94.4884006,62.3362091 97.3267216,62.3798915 100.809565,62.3362091 C102.787335,62.3798915 104.59328,62.3362091 106.313312,62.1603873 C107.99021,62.028612 109.538418,61.8091078 111,61.4578283 C110.484168,62.3362091 110.054249,63.2582724 109.710243,64.1803356 C109.366236,65.1023989 109.065364,66.0681446 108.80727,67.1219832 L96.2947021,67.1219832 C91.7363485,67.1219832 88.1248149,66.7707037 85.4590318,66.112191 C83.4805488,65.5850897 81.5890477,64.5316152 79.7396117,62.9947217 C78.1921171,64.6630265 76.6870441,66.3316952 75.2247491,68 C74.1071735,66.1562375 73.0320195,64.4875687 72,62.9947217 C73.6337636,62.2921626 75.2682401,61.5018747 76.9020036,60.6234939 L76.9020036,51.3591788 L72.3440065,51.3591788 L72.3440065,46.5289942 Z" id="Fill-8" fill="#231F20" mask="url(#mask-4)"></path>
                    <path d="M102.154281,93.8546064 L103.980997,103.779867 C104.12965,104.587014 103.378881,105.241856 102.68207,104.913331 L81.5665624,94.953489 C80.6303347,94.5116551 80.9226379,92.9981622 81.9439122,93 L101.232704,93.0345832 C101.681164,93.0356868 102.066733,93.3785588 102.154281,93.8546064" id="Fill-9" fill="#231F20" mask="url(#mask-4)"></path>
                </g>
                <g id="Group-8" transform="translate(175.000000, 323.000000)">
                    <path d="M116,39.5272242 L115.932447,78.361818 C115.927702,80.9275395 114.015253,83.0040283 111.660008,83 L10.2560197,82.8217579 C7.90114068,82.817357 5.99562705,80.7339002 6,78.1681786 L6.11974096,9.63854874 C6.12412145,7.07246047 8.0369359,4.99597171 10.3918149,5 L82.8714209,5.12763181 C85.6409864,5.13239945 88.3068803,6.27516507 90.3365078,8.3274489 L112.482446,30.7188337 C114.730733,32.9918957 116.005821,36.1847447 116,39.5272242" id="Fill-1" fill="#EC1D24"></path>
                    <g id="Group-5">
                        <mask id="mask-6" fill="white">
                            <use xlink:href="#path-5"></use>
                        </mask>
                        <g id="Clip-4"></g>
                        <path d="M9.96242006,0 L9.95284669,0 L9.94548256,0 C4.53763148,0 0.130197872,4.54454727 0.120624499,10.1295142 L-0.000162428079,78.6578544 C-0.00456576247,81.2843915 0.957926422,83.7770712 2.71022187,85.6763781 C4.5497823,87.6706686 7.13606581,88.8170739 9.80630044,88.8214747 L112.089689,89.0000733 C117.514478,89.0000733 121.921912,84.4558928 121.931853,78.8701924 L122,40.036904 C122.00844,35.2602151 120.130218,30.6327864 116.846919,27.3417303 L94.5089265,4.95088671 C91.4134132,1.84796431 87.3509893,0.134957504 83.0709551,0.127622857 L9.96242006,0 Z M9.94585076,5.50098523 L9.95284669,5.50098523 L83.0610136,5.62860809 C85.8545974,5.63337561 88.5436106,6.77611361 90.5908396,8.82834783 L112.928832,31.2191914 C115.196617,33.4921985 116.482763,36.6849703 116.476892,40.0273689 L116.408753,78.8606574 C116.403967,81.4237498 114.478614,83.4990881 112.106627,83.4990881 L112.099631,83.4990881 L9.81587381,83.3204895 C7.44057271,83.3164554 5.518534,81.2330489 5.52294487,78.6673894 L5.64372426,10.139416 C5.64814274,7.57595686 7.57386352,5.50098523 9.94585076,5.50098523 L9.94585076,5.50098523 Z" id="Fill-3" fill="#231F20" mask="url(#mask-6)"></path>
                    </g>
                    <path d="M47.6215827,46.0151862 L47.6215827,48.7980712 C47.553293,48.8707323 47.4350712,48.9837607 47.2305694,49.1571645 C46.9816426,49.3684784 46.6941652,49.5625924 46.3516155,49.7493349 C45.9517906,49.9680202 45.5604101,50.1351057 45.1209331,50.2751626 C44.6616301,50.4215378 44.1417476,50.495954 43.5759715,50.495954 C43.1585235,50.495954 42.7858676,50.4278562 42.4029315,50.2811299 C42.050836,50.1463383 41.7494069,49.9645101 41.4545865,49.7082656 C41.2093312,49.4951966 41.0048294,49.2228052 40.8183179,48.8668711 C40.6710913,48.5390186 40.5965601,48.1813294 40.5965601,47.8043342 C40.5965601,47.6537467 40.6097775,47.3466043 40.6982603,46.9801397 L40.7022989,46.9590785 C40.7463568,46.683879 40.8833032,46.3848101 41.1094668,46.0706474 C41.364268,45.781407 41.6943346,45.550787 42.152169,45.3433343 C42.5817329,45.1383388 43.2169001,45.0340859 44.0404146,45.0340859 C44.3433122,45.0340859 44.6557558,45.0583062 44.9957354,45.107449 C45.3463624,45.1850244 45.6778977,45.2587385 46.0230174,45.3851057 C46.1838285,45.4363546 46.3442725,45.4939218 46.5047164,45.5514891 C46.6673633,45.6097584 46.8300102,45.6680276 46.9922899,45.7203296 C47.2177192,45.8186151 47.4284625,45.9172517 47.6215827,46.0151862 L47.6215827,46.0151862 Z M66.8807332,47.164074 C66.8748588,47.5575672 66.8495255,47.8854197 66.8058348,48.1402601 C66.7426853,48.4010678 66.6685212,48.6618756 66.5451593,48.8275569 C66.4541064,48.9672628 66.3245029,49.0655483 66.1486387,49.1283809 C65.9801175,49.1891073 65.7745142,49.2147317 65.4613364,49.2147317 C65.2961195,49.2147317 65.1764291,49.1919155 65.0497628,49.1410176 C64.9058405,49.0718667 64.7714641,48.9844628 64.6903242,48.9068874 C64.5816482,48.8033365 64.4931654,48.6755653 64.4190014,48.5119901 C64.3833879,48.4442433 64.341533,48.3119088 64.341533,48.0658439 C64.341533,47.8998116 64.3679677,47.7881873 64.4274458,47.7032405 L64.4538805,47.6565548 C64.5181315,47.5133388 64.6022085,47.4143512 64.7083145,47.3115024 C64.8603141,47.1914536 64.9950576,47.110368 65.1430185,47.0499926 C65.2762935,46.9952335 65.442979,46.968556 65.6526209,46.968556 C65.9085235,46.968556 66.1600203,46.9934784 66.3828796,47.0405151 C66.5550723,47.0773722 66.7199221,47.1124741 66.8807332,47.164074 L66.8807332,47.164074 Z M21,38 L21,40.6421261 L26.9606586,40.6421261 L26.9606586,43.9613693 C26.9606586,46.4413243 26.4367375,47.6986772 25.403214,47.6986772 C25.3518131,47.6986772 25.3220741,47.695167 25.3066539,47.6927099 L23.6904654,45.8558232 L21.3946848,47.6906038 L29.6323995,56.9933306 L31.9270786,55.1596032 L27.3329474,49.9501182 C28.1017567,49.6879064 28.6789144,49.1624298 29.0247684,48.4063331 L37.6542307,48.4063331 L37.6542307,45.7901825 L29.8211139,45.7901825 C29.8835291,45.2650569 29.9158382,44.6405927 29.9158382,43.9613693 L29.9158382,40.6421261 L47.6215827,40.6421261 L47.6215827,43.3842928 C47.54081,43.3498928 47.4552643,43.3147909 47.3634772,43.2793379 C47.0774684,43.1438442 46.7606191,43.033624 46.4217408,42.9521874 C46.0487178,42.8338937 45.6470572,42.750702 45.2865172,42.6822532 C44.8778807,42.626441 44.4343651,42.5748411 43.9585404,42.5748411 C43.1346588,42.5748411 42.3284004,42.7033144 41.5632625,42.9567507 C40.7885789,43.2129951 40.1556146,43.5566435 39.6353649,44.0020876 C39.0618787,44.4636787 38.6293775,45.0091635 38.3543832,45.6143216 C38.0217465,46.2795041 37.8598339,46.9615356 37.8598339,47.6993792 C37.8598339,48.4417861 38.0063263,49.1403155 38.2949051,49.7753104 C38.5856869,50.4145174 38.9623814,50.9631614 39.4521577,51.4588014 C39.9577214,51.9425067 40.5414878,52.3233631 41.1858337,52.5915423 C41.8496385,52.8674438 42.5710856,53.0075007 43.3299819,53.0075007 C43.7507343,53.0075007 44.1454191,52.9804722 44.5268866,52.9544967 L44.5481812,52.9523906 C44.9417646,52.8986846 45.3415895,52.816897 45.7370086,52.7087829 C46.1841957,52.586628 46.5770447,52.4434119 46.9372176,52.2710612 C47.1736613,52.1580328 47.3994577,52.0267514 47.6215827,51.8852904 L47.6215827,55.4386639 L50.5767623,55.4386639 L50.5767623,40.6421261 L54.7468369,40.6421261 L54.7468369,55.4386639 L57.7020165,55.4386639 L57.7020165,40.6421261 L66.8822018,40.6421261 L66.8822018,44.7090415 C66.7456225,44.6809599 66.6042702,44.6584947 66.4651209,44.6430498 C66.1703005,44.5872377 65.9118278,44.5616132 65.6526209,44.5616132 C65.1499944,44.5616132 64.650305,44.6528784 64.1307897,44.8392699 C63.6534964,45.000388 63.2349469,45.2422406 62.8512765,45.5785176 C62.5065239,45.8807456 62.2333653,46.2437001 62.0160133,46.6887932 C61.8129801,47.1047517 61.7142171,47.5551101 61.7142171,48.0658439 C61.7142171,48.6446756 61.8030671,49.1782257 61.9778299,49.6517514 C62.1573656,50.1386159 62.4011523,50.5384274 62.7235088,50.8747044 C63.0385224,51.20361 63.454869,51.4728422 63.9185777,51.6501072 C64.3778807,51.842115 64.8827101,51.9354863 65.4613364,51.9354863 C66.9633416,51.9354863 68.090488,51.5135604 68.8148723,50.6760272 C69.4937302,49.8585021 69.8373814,48.6369531 69.8373814,47.0461314 L69.8373814,40.6421261 L73.8000169,40.6421261 L73.8000169,55.4386639 L76.7555637,55.4386639 L76.7555637,40.6421261 L92.2440974,40.6421261 L92.2440974,44.6139152 L85.4639629,44.6139152 C83.8595233,44.6139152 82.5976333,45.0853348 81.7164765,46.012027 C80.8276096,46.9166051 80.376751,48.1528968 80.376751,49.6861513 C80.376751,51.7606784 81.902988,54.0967152 85.041742,56.8276493 L85.2400023,57 L87.5313771,55.10344 L87.1231078,54.7471549 C85.7418945,53.5428059 84.82953,52.7473951 84.6253954,52.5034363 C83.7794849,51.5721808 83.3319306,50.5528192 83.3319306,49.555572 C83.3319306,48.8447569 83.5536884,48.2873374 84.0093199,47.8513708 C84.4407196,47.4392736 85.0494521,47.2300658 85.8193629,47.2300658 L92.2440974,47.2300658 L92.2440974,55.4386639 L95.199277,55.4386639 L95.199277,40.6421261 L99,40.6421261 L99,38 L21,38 Z" id="Fill-6" fill="#231F20"></path>
                </g>
                <g id="Group-20" transform="translate(236.000000, 186.000000)">
                    <path d="M200.913189,61.5155147 L201,12.2251467 C201.00578,8.96834205 197.609233,6.32234584 193.413734,6.31514291 L12.7598728,6 C8.56437342,5.99281181 5.15878533,8.62692319 5.15299844,11.8837278 L5,98.8645057 C4.99422049,102.12131 8.39076655,104.767307 12.5859042,104.77451 L141.710715,105 C146.644767,105.008605 151.399787,103.572341 155.027085,100.978205 L194.599686,72.6768143 C198.617238,69.8035657 200.905594,65.7576801 200.913189,61.5155147" id="Fill-1" fill="#FEFEFE"></path>
                    <g id="Group-5">
                        <mask id="mask-8" fill="white">
                            <use xlink:href="#path-7"></use>
                        </mask>
                        <g id="Clip-4"></g>
                        <path d="M13.1402574,0 L13.1308923,0 L13.113603,0 C9.89995111,0 6.82461377,1.01814504 4.45381612,2.86646432 C1.7260661,4.99331229 0.15814112,8.06614761 0.152378014,11.2962867 L2.13162824e-13,98.4324725 C-0.00574720144,101.667302 1.55497389,104.748075 4.28200352,106.885385 C6.65244098,108.742724 9.72993949,109.768807 12.9482739,109.774219 L141.542255,110.000072 L141.595564,110.000072 C147.629175,110.000072 153.442708,108.208397 157.964945,104.955167 L197.374864,76.6029667 C202.791103,72.7064514 205.90318,67.032692 205.913625,61.0356662 L206.000086,11.6574359 C206.005475,8.42260661 204.444754,5.34183395 201.717724,3.20488389 C199.347647,1.34718411 196.269788,0.32110173 193.051454,0.315689903 L13.1402574,0 Z M13.113603,5.41182691 L13.1308923,5.41182691 L193.042089,5.72751681 C197.220341,5.73473258 200.602563,8.3854454 200.597167,11.6480554 L200.510714,61.0262857 C200.50315,65.276013 198.224202,69.3291106 194.223165,72.2074809 L154.813247,100.559321 C151.211306,103.150503 146.493843,104.588245 141.595564,104.588245 C141.581156,104.588245 141.566028,104.588245 141.55162,104.588245 L12.9576389,104.362392 C8.77974742,104.355176 5.3971645,101.704463 5.40292025,98.441853 L5.55528971,11.3056672 C5.56105282,8.0477474 8.94291535,5.41182691 13.113603,5.41182691 L13.113603,5.41182691 Z" id="Fill-3" fill="#231F20" mask="url(#mask-8)"></path>
                    </g>
                    <path d="M39.3122696,40.1630039 C39.3122696,38.1714035 38.7861406,36.6461238 37.7338825,35.5875287 C36.681988,34.5289335 35.1505053,34 33.1405251,34 C31.2134457,34 29.7215953,34.5187407 28.6638832,35.5562222 C27.6068984,36.5940677 27.0778605,38.0774842 27.0778605,40.0068356 L27.0778605,40.444762 L30.9531082,40.444762 L30.9531082,39.9911824 C30.9632889,39.0527167 31.1589057,38.343225 31.5388676,37.8634354 C31.9191931,37.3840097 32.4584117,37.1441149 33.1561599,37.1441149 C33.9473532,37.1441149 34.5334763,37.3916543 34.9138018,37.8870972 C35.2937636,38.3825401 35.48429,39.1411757 35.48429,40.1630039 L35.48429,41.8058649 L33.7808245,41.8058649 L32.76529,41.8058649 L32.0624514,41.8058649 L31.6250407,41.8058649 L29.1718323,41.8058649 L27.2658417,41.8058649 L15.2186865,41.8058649 L13.9842649,41.8058649 L13.2345219,41.8058649 L13,44.7308346 L13.9842649,44.7308346 L15.2186865,44.7308346 L27.2658417,44.7308346 L27.2658417,50.0026965 L19.6487876,50.0026965 C19.6426064,49.8752865 19.6396976,49.7467844 19.6327892,49.6193744 C19.5753404,48.5818929 19.4895308,47.6303222 19.3749969,46.7642982 L15.4375737,47.3278145 C15.5313824,48.1203047 15.6066476,48.9677632 15.6640964,49.8698261 C15.7211816,50.7718889 15.749906,51.6921532 15.749906,52.6306188 C15.749906,54.0284886 15.7055468,55.4573008 15.6175556,56.9170554 C15.5284736,58.3771741 15.3906693,59.7382769 15.2030517,61 L19.1873793,61 C19.3539081,59.789969 19.4844404,58.4634488 19.5782492,57.0186194 C19.6596956,55.7623567 19.7036912,54.5246596 19.7142356,53.3033437 L27.2658417,53.3033437 L27.2658417,61 L31.1247273,61 L31.1247273,44.7308346 L31.6250407,44.7308346 L31.8279295,44.7308346 L32.76529,44.7308346 L33.5466662,44.7308346 L35.4373856,44.7308346 L35.4373856,61 L39.3122696,61 L39.3122696,44.7308346 L41.7185737,44.7308346 L42,41.8058649 L39.3122696,41.8058649 L39.3122696,40.1630039 Z" id="Fill-6" fill="#EC1D24"></path>
                    <path d="M103.256508,50.6931925 C103.152702,50.7146856 103.05543,50.7329548 102.953077,50.7537314 C102.162196,50.6781473 101.474032,50.5079936 100.901287,50.2318071 C100.209494,49.8979475 99.6821188,49.4387115 99.318437,48.8540989 C98.9543923,48.26877 98.7725515,47.5759755 98.7725515,46.7757154 L98.7725515,45.3904847 L105.5101,45.3904847 L105.5101,50.3163467 C104.782374,50.4084088 104.030692,50.5341435 103.256508,50.6931925 L103.256508,50.6931925 Z M137.094153,42.6812784 L136.813225,42.6812784 L135.674996,42.6812784 L131.307548,42.6812784 L131.307548,48.6058536 L126.741927,51.3254481 C126.732853,50.9392886 126.718698,50.5280538 126.698372,50.0852958 C126.662077,49.2850358 126.615255,48.4482374 126.558271,47.5759755 C126.500924,46.7040717 126.430874,45.8622584 126.347757,45.05161 L123.243759,45.05161 L117.933352,48.567166 C117.92573,48.1562894 117.91339,47.7275019 117.894153,47.2761466 C117.862939,46.542157 117.821199,45.7827339 117.769296,44.9978772 C117.717394,44.2126624 117.644439,43.4407016 117.55116,42.6812784 L113.230534,42.6812784 L112.06109,42.6812784 L111.639698,42.6812784 L111.249521,42.6812784 L111.187818,42.6812784 L109.908399,42.6812784 L94.4051041,42.6812784 L93.9840753,42.6812784 L93.1104407,42.6812784 L92.4400612,42.6812784 L90.4902626,42.6812784 L90.4902626,41.0646385 C90.4902626,40.0591193 90.6797255,39.312592 91.0593773,38.8250567 C91.4390291,38.3375214 92.0186695,38.0939328 92.7986616,38.0939328 C93.5056995,38.0939328 94.0465037,38.3299988 94.4207112,38.8017725 C94.7949186,39.2739044 94.9872852,39.9720722 94.9978109,40.8952012 L94.9978109,41.3418996 L98.8658311,41.3418996 L98.8658311,40.9109628 C98.8658311,39.012405 98.3380933,37.5523065 97.2826178,36.5313839 C96.2275052,35.5104613 94.7375716,35 92.8142687,35 C90.8176487,35 89.2917825,35.5204914 88.2366699,36.5621907 C87.1808314,37.60389 86.6530936,39.1048253 86.6530936,41.0646385 L86.6530936,42.6812784 L84.9842228,42.6812784 L84.251415,42.6812784 L76.8115465,42.6812784 L76.0787387,42.6812784 L75.7978109,42.6812784 L74.6592185,42.6812784 L70.2917711,42.6812784 L70.2917711,48.6058536 L65.7261498,51.3254481 C65.7170759,50.9392886 65.7029207,50.5280538 65.6829581,50.0852958 C65.6462996,49.2850358 65.5998412,48.4482374 65.5428571,47.5759755 C65.4855101,46.7040717 65.4154596,45.8622584 65.3323428,45.05161 L62.2283446,45.05161 L56.917575,48.567166 C56.9103159,48.1562894 56.8976124,47.7275019 56.8787387,47.2761466 C56.8471616,46.542157 56.8054217,45.7827339 56.7538819,44.9978772 C56.7016163,44.2126624 56.6290251,43.4407016 56.5353825,42.6812784 L52.2147564,42.6812784 L50.624284,42.6812784 L50.2341065,42.6812784 L50,45.5595638 L50.7331708,45.5595638 L52.2147564,45.5595638 L52.7762491,45.5595638 C52.8390404,46.2061481 52.8854988,46.8398365 52.916713,47.4606291 C52.9482901,48.0817799 52.9635343,48.6689 52.9635343,49.2234222 C52.9635343,50.5470394 52.9090909,51.8839107 52.7998412,53.2333196 C52.6905915,54.5830868 52.5214541,55.8683746 52.2927919,57.0891831 L56.2856689,57.0891831 C56.4831169,56.0224086 56.6391879,54.8109137 56.7538819,53.4564897 C56.7811036,53.1312274 56.8050587,52.8041739 56.8257472,52.4760458 L61.7009698,49.3222905 C61.731821,49.6901808 61.7583168,50.0537726 61.7761016,50.4084088 C61.8073158,51.0349329 61.8229229,51.6145304 61.8229229,52.1479177 C61.8229229,53.4718931 61.7655759,54.8241678 61.6512448,56.2043835 C61.5365508,57.5845993 61.37068,58.8544837 61.1521806,60.0140369 L65.0982363,60.0140369 C65.2851585,58.9777109 65.4383259,57.7690818 65.5584642,56.388866 C65.5914932,56.0080798 65.6187149,55.6258607 65.64267,55.2429252 L70.2917711,52.4824937 L70.2917711,61.568705 L74.1601543,61.568705 L74.1601543,45.5595638 L74.6592185,45.5595638 L75.7978109,45.5595638 L75.8290251,45.5595638 L76.5618329,45.5595638 L78.4648103,45.5595638 L78.4648103,54.5648176 L82.3484376,54.5648176 L82.3484376,45.5595638 L84.0173085,45.5595638 L84.7348721,45.5595638 L86.6530936,45.5595638 L86.6530936,61.568705 L90.5214768,61.568705 L90.5214768,45.5595638 L92.1903476,45.5595638 L93.1104407,45.5595638 L93.7347247,45.5595638 L94.4051041,45.5595638 L94.5767822,45.5595638 L94.5767822,46.7141019 C94.5767822,47.7300094 94.7923779,48.5689571 95.2239324,49.2309448 C95.6554869,49.8929325 96.2739636,50.3908561 97.0800885,50.7239993 C97.8854874,51.0575007 98.8556683,51.2552373 99.9888164,51.3168509 L99.9888164,51.3874199 C99.1104633,51.5729771 98.2723983,51.7725047 97.4778881,51.9867194 C96.4692338,52.258249 95.4867124,52.5634511 94.5299609,52.9023258 L94.5299609,54.8263171 C94.5299609,56.283908 94.8754948,57.5487774 95.5669257,58.6209253 C96.2587194,59.6937896 97.2931435,60.5248564 98.6709238,61.1148422 C100.048704,61.7044698 101.745886,62 103.763194,62 C105.073465,62 106.235649,61.8842954 107.249385,61.6536027 C108.26312,61.4225518 109.123326,61.1327531 109.830726,60.7838483 L110.064833,57.4280578 C109.263789,57.797381 108.346237,58.1079564 107.311813,58.3594258 C106.277026,58.6108951 105.187796,58.7362716 104.044122,58.7362716 C102.931299,58.7362716 101.9564,58.5976411 101.119424,58.3207382 C100.282448,58.0438353 99.6302161,57.6433471 99.1620031,57.1199899 C98.694516,56.5966327 98.4604095,55.96581 98.4604095,55.2268054 L98.4604095,55.0476961 C99.2687121,54.7869131 100.127103,54.5433245 101.041751,54.3183633 C102.336052,54.0002653 103.693144,53.7183474 105.112664,53.4718931 C106.531821,53.2254388 107.958963,53.0201796 109.394091,52.8564738 L109.394091,45.5595638 L109.908399,45.5595638 L111.015777,45.5595638 L111.187818,45.5595638 L111.748948,45.5595638 L111.826983,45.5595638 L113.230534,45.5595638 L113.792026,45.5595638 C113.854455,46.2061481 113.901276,46.8398365 113.93249,47.4606291 C113.963704,48.0817799 113.978949,48.6689 113.978949,49.2234222 C113.978949,50.5470394 113.924505,51.8839107 113.815618,53.2333196 C113.706369,54.5830868 113.537231,55.8683746 113.308569,57.0891831 L117.301446,57.0891831 C117.498894,56.0224086 117.654602,54.8109137 117.769296,53.4564897 C117.796881,53.1312274 117.820473,52.8041739 117.841524,52.4760458 L122.716384,49.3222905 C122.747598,49.6901808 122.773731,50.0537726 122.791516,50.4084088 C122.82273,51.0349329 122.8387,51.6145304 122.8387,52.1479177 C122.8387,53.4718931 122.78099,54.8241678 122.666659,56.2043835 C122.552328,57.5845993 122.386094,58.8544837 122.167958,60.0140369 L126.114013,60.0140369 C126.300936,58.9777109 126.454103,57.7690818 126.573879,56.388866 C126.606908,56.0080798 126.634492,55.6258607 126.658084,55.2429252 L131.307548,52.4824937 L131.307548,61.568705 L135.175569,61.568705 L135.175569,45.5595638 L135.674996,45.5595638 L136.813225,45.5595638 L136.844439,45.5595638 L137.57761,45.5595638 L139.480588,45.5595638 L139.480588,54.5648176 L143.363852,54.5648176 L143.363852,45.5595638 L145.750649,45.5595638 L146,42.6812784 L137.827324,42.6812784 L137.094153,42.6812784 Z" id="Fill-8" fill="#EC1D24"></path>
                    <path d="M148.013995,35 C147.305452,35 146.792514,35.1741669 146.475509,35.5225006 C146.158503,35.8711587 146,36.3472797 146,36.9511879 L146,37.0627585 C146,37.657261 146.158503,38.1288413 146.475509,38.4771751 C146.792514,38.8258331 147.305452,39 148.013995,39 C148.703987,39 149.207486,38.8281035 149.524491,38.4843104 C149.841497,38.1405173 150,37.662126 150,37.0488121 L150,36.9511879 C150,36.3472797 149.841497,35.8711587 149.524491,35.5225006 C149.207486,35.1741669 148.703987,35 148.013995,35" id="Fill-10" fill="#EC1D24"></path>
                    <path d="M166.815372,58.3290597 C166.530684,59.1910253 166.103304,60.0144331 165.53358,60.7989227 L165.488574,61 L169.476642,61 C169.996476,60.2879414 170.393504,59.4749839 170.668423,58.5611273 C170.943342,57.6476311 171.080801,56.6591814 171.080801,55.5957782 L171.080801,55.4098358 C171.080801,54.0062588 170.785647,52.7828586 170.196037,51.7399954 C169.606426,50.6974927 168.714336,49.8250768 167.520113,49.1227478 C166.778041,48.68672 165.920839,48.3206008 164.948854,48.0236695 L164.948854,44.8954406 L170.930782,44.8954406 L171.905209,44.8954406 L172.759969,44.8954406 L173,42 L171.905209,42 L170.930782,42 L155.128877,42 L154.15445,42 L153.225029,42 L153,44.8954406 L154.15445,44.8954406 L155.128877,44.8954406 L161.201165,44.8954406 L161.201165,48.0034897 C160.197083,48.3040246 159.314063,48.6766301 158.554897,49.1227478 C157.360325,49.8250768 156.465792,50.6974927 155.870949,51.7399954 C155.276454,52.7828586 154.979207,54.0062588 154.979207,55.4098358 L154.979207,55.5957782 C154.979207,56.6797216 155.113875,57.681144 155.38391,58.6000455 C155.653595,59.518947 156.043645,60.3185715 156.553361,61 L160.541081,61 L160.511077,60.8144179 C159.961239,60.0504685 159.541534,59.2371506 159.251962,58.3751849 C158.961693,57.5135796 158.816907,56.6177408 158.816907,55.6887494 L158.816907,55.502807 C158.816907,54.6768767 158.979137,53.9597732 159.304295,53.3504154 C159.629104,52.7414179 160.103932,52.2199863 160.72843,51.7864811 C161.353278,51.3529758 162.125004,50.9915412 163.045006,50.7025376 C163.944423,51.0019914 164.706381,51.3659485 165.331228,51.7944088 C165.955727,52.2225088 166.430555,52.7414179 166.755713,53.3504154 C167.080173,53.9597732 167.242752,54.6768767 167.242752,55.502807 L167.242752,55.6887494 C167.242752,56.5871107 167.100408,57.467094 166.815372,58.3290597" id="Fill-12" fill="#EC1D24"></path>
                    <path d="M173.577796,64.2174441 C172.357252,64.2174441 171.170642,64.1069513 170.017245,63.88718 C168.864208,63.6665992 167.858821,63.3711424 167,63 L167.201799,65.7825559 C168.008636,66.1654356 168.954819,66.4612972 170.04071,66.6697359 C171.1266,66.8785794 172.264475,66.9886674 173.453611,67 C174.663686,66.9886674 175.827192,66.8753415 176.944128,66.6612365 C178.061065,66.446322 179.017356,66.1536983 179.814085,65.7825559 L180,63 C179.183055,63.359405 178.215934,63.6524335 177.098998,63.8782758 C175.982422,64.1045229 174.808447,64.2174441 173.577796,64.2174441" id="Fill-14" fill="#EC1D24"></path>
                    <path d="M173.585659,68.2051621 C172.353536,68.2051621 171.162617,68.0974494 170.013623,67.8820242 C168.863907,67.6665989 167.859848,67.3727263 167,67 L167.186499,69.7944315 C167.9943,70.1789452 168.941615,70.4760695 170.028803,70.6853978 C171.116353,70.8951326 172.260287,71 173.461327,71 C174.672848,71 175.837745,70.8951326 176.956016,70.6853978 C178.074288,70.4760695 179.027024,70.1789452 179.813862,69.7944315 L180,67 C179.182079,67.3727263 178.216331,67.6665989 177.103481,67.8820242 C175.990631,68.0974494 174.817782,68.2051621 173.585659,68.2051621" id="Fill-16" fill="#EC1D24"></path>
                    <path d="M180.80099,34.9518634 C180.001651,34.3175241 178.906273,34 177.515581,34 C176.124527,34 175.024076,34.3175241 174.214591,34.9518634 C173.405105,35.5862028 173,36.4367137 173,37.5026874 C173,37.9594826 173.085876,38.4038745 173.256905,38.8351545 C173.428295,39.2667887 173.654038,39.6551887 173.934133,40 L175.97379,40 C175.880667,39.7767409 175.802762,39.5456854 175.7408,39.307188 C175.678114,39.0686906 175.646952,38.8376351 175.646952,38.614376 C175.646952,38.0562282 175.808197,37.6221133 176.129962,37.3123856 C176.451727,37.0026578 176.913721,36.847794 177.515581,36.847794 C178.107295,36.847794 178.561317,37.0026578 178.87801,37.3123856 C179.194702,37.6221133 179.353048,38.0562282 179.353048,38.614376 C179.353048,38.8479121 179.321886,39.0814482 179.259562,39.31463 C179.197238,39.5485205 179.119696,39.7767409 179.02621,40 L181.065867,40 C181.335454,39.6551887 181.556124,39.2667887 181.727514,38.8351545 C181.898905,38.4038745 181.989492,37.9594826 182,37.5026874 C182,36.4367137 181.60033,35.5862028 180.80099,34.9518634" id="Fill-18" fill="#EC1D24"></path>
                </g>
                <g id="Group-29" transform="translate(94.000000, 0.000000)">
                    <path d="M235,67.4445469 L234.877547,137.620268 C234.869498,142.256895 230.870811,146.0084 225.946409,146 L13.9016351,145.62709 C8.97723313,145.618677 4.99196248,141.8527 5,137.216073 L5.21601237,13.3797333 C5.22406206,8.7431063 9.22274887,4.99126502 14.1471508,5 L165.708516,5.26622504 C171.499938,5.27665804 177.074688,7.34272851 181.320232,11.0521647 L227.640199,51.5254723 C232.342899,55.6343914 235.010367,61.4048498 235,67.4445469" id="Fill-1" fill="#EC1D24"></path>
                    <g id="Group-5">
                        <mask id="mask-10" fill="white">
                            <use xlink:href="#path-9"></use>
                        </mask>
                        <g id="Clip-4"></g>
                        <path d="M14.1834521,0 L14.1747338,0 L14.1576327,0 C6.48322575,0 0.229222902,6.01601263 0.216145528,13.4106598 L-0.00015453578,137.16825 C-0.0065051555,140.817814 1.47895046,144.233962 4.18227848,146.787076 C6.79741806,149.257452 10.2558806,150.621288 13.9205633,150.627678 L225.910168,151 L225.935988,151 C233.61073,151 239.864733,144.984324 239.877475,137.589677 L240.00024,67.4585819 C240.013279,59.9788421 236.70202,52.7903679 230.915785,47.7362715 L184.607796,7.28870184 C179.437203,2.7724041 172.724151,0.278484847 165.705625,0.266040476 L14.1834521,0 Z M14.1576327,5.04501535 C14.1633331,5.04501535 14.1690334,5.04501535 14.1747338,5.04501535 L165.696907,5.31105582 C171.48683,5.32148219 177.060139,7.3862388 181.304585,11.0933161 L227.612574,51.5408858 C232.313723,55.6471919 234.980837,61.4139808 234.970472,67.4498372 L234.847716,137.580932 C234.839668,142.209229 230.851404,145.955321 225.936323,145.955321 C225.930288,145.955321 225.924922,145.955321 225.919222,145.955321 L13.9292816,145.582663 C9.00615307,145.574254 5.02157767,141.810673 5.02961311,137.176994 L5.24590494,13.4194045 C5.25395255,8.79110741 9.24221645,5.04501535 14.1576327,5.04501535 L14.1576327,5.04501535 Z" id="Fill-3" fill="#231F20" mask="url(#mask-10)"></path>
                    </g>
                    <polygon id="Fill-6" fill="#FEFEFE" points="21 47 29.0584907 47 33.607153 61.3626943 38.1247378 47 46 47 46 69 39.8951907 69 39.8951907 55.0456019 35.9878279 69 31.2870147 69 27.105133 54.9829409 27.105133 69 21 69"></polygon>
                    <path d="M61.709675,63.2857143 C62.2105389,62.6868132 62.461127,61.929541 62.461127,61.0151907 C62.461127,60.0808016 62.2105389,59.3138332 61.709675,58.7142857 C61.2088112,58.1150614 60.5357852,57.8151261 59.6915343,57.8151261 C58.8666556,57.8151261 58.208315,58.1150614 57.7174496,58.7142857 C57.2262719,59.3138332 56.9809954,60.0808016 56.9809954,61.0151907 C56.9809954,61.949903 57.2262719,62.7117001 57.7174496,63.300905 C58.208315,63.8904331 58.8666556,64.1848739 59.6915343,64.1848739 C60.5357852,64.1848739 61.2088112,63.8852618 61.709675,63.2857143 M54.1232907,67.9789916 C53.1212506,67.2983193 52.3504264,66.3539108 51.8101934,65.1447964 C51.2699603,63.9360052 51,62.5594699 51,61.0151907 C51,59.4715579 51.2749596,58.0895281 51.8248787,56.8703943 C52.3747978,55.6512605 53.1556205,54.7016807 54.1673467,54.0206852 C55.1787605,53.3403361 56.3423394,53 57.6587083,53 C58.7582341,53 59.7012204,53.2436975 60.4870423,53.7314156 C61.2722394,54.2188106 61.8518416,54.8694247 62.2252242,55.6819651 L62.2252242,53.4266322 L68,53.4266322 L68,68.5733678 L62.2252242,68.5733678 L62.2252242,66.3180349 C61.8718387,67.1105365 61.2872372,67.7556561 60.472357,68.2533937 C59.6571644,68.750808 58.7091788,69 57.6290251,69 C56.2932841,69 55.1250184,68.6596639 54.1232907,67.9789916" id="Fill-8" fill="#FEFEFE"></path>
                    <mask id="mask-12" fill="white">
                        <use xlink:href="#path-11"></use>
                    </mask>
                    <g id="Clip-11"></g>
                    <polygon id="Fill-10" fill="#FEFEFE" mask="url(#mask-12)" points="72 69 78 69 78 47 72 47"></polygon>
                    <path d="M81.3531329,69 L87.6468671,69 L87.6468671,53.2981091 L81.3531329,53.2981091 L81.3531329,69 Z M81.9953785,51.765915 C81.3313388,51.1021764 81,50.3077674 81,49.3806777 C81,48.4328147 81.3313388,47.6323748 81.9953785,46.9793579 C82.6587371,46.327011 83.4933839,46 84.5,46 C85.4841409,46 86.3143608,46.327011 86.9882759,46.9793579 C87.6628722,47.6323748 88,48.4328147 88,49.3806777 C88,50.3077674 87.6628722,51.1021764 86.9882759,51.765915 C86.3143608,52.4293185 85.4841409,52.7610203 84.5,52.7610203 C83.4933839,52.7610203 82.6587371,52.4293185 81.9953785,51.765915 L81.9953785,51.765915 Z" id="Fill-12" fill="#FEFEFE" mask="url(#mask-12)"></path>
                    <path d="M100.72436,63.141973 C101.215226,62.5291198 101.461127,61.7632158 101.461127,60.843936 C101.461127,59.9246562 101.215226,59.1587522 100.72436,58.545899 C100.233183,57.9330458 99.5651559,57.6266192 98.720905,57.6266192 C97.9153985,57.6266192 97.2573702,57.9281716 96.7471328,58.5306264 C96.2359579,59.1334062 95.9809954,59.9045094 95.9809954,60.843936 C95.9809954,61.7836876 96.2359579,62.5551157 96.7471328,63.1572456 C97.2573702,63.7600254 97.9153985,64.0612528 98.720905,64.0612528 C99.5651559,64.0612528 100.233183,63.7548262 100.72436,63.141973 L100.72436,63.141973 Z M107,53.4289322 L107,67.3705301 C107,68.7798325 106.739413,70.0208115 106.219177,71.0931421 C105.698629,72.1654727 104.956863,73.0282115 103.994817,73.6823331 C102.757186,74.5603444 100.960263,75 98.6031098,75 C97.4245332,75 96.4128069,74.9181129 95.5685561,74.7546638 C94.7236803,74.5912146 93.9378584,74.3052597 93.2114027,73.8967993 C92.3668394,73.4265985 91.6744413,72.7939235 91.1345207,71.9971493 C90.5939752,71.2003752 90.3240149,70.3932027 90.3240149,69.5766066 L96.1578444,69.5766066 C96.2359579,70.0055389 96.4715483,70.3373115 96.864928,70.5722494 C97.2573702,70.8068623 97.8076018,70.9248187 98.5146853,70.9248187 C100.321607,70.9248187 101.225224,70.0055389 101.225224,68.1669793 L101.225224,65.7769818 C100.910895,66.5331374 100.331293,67.1456656 99.4870423,67.6155414 C98.6421666,68.0857421 97.7191773,68.3203551 96.7174496,68.3203551 C95.3623364,68.3203551 94.1787605,67.9983309 93.1673467,67.3552575 C92.1556205,66.7115342 91.3747978,65.8182503 90.8248787,64.674106 C90.2749596,63.5302867 90,62.2226932 90,60.7519755 C90,59.2406393 90.2799588,57.8976264 90.839564,56.722612 C91.3994817,55.5482475 92.1899904,54.6344918 93.2114027,53.9803701 C94.2325026,53.3268984 95.4110793,53 96.7471328,53 C97.7879172,53 98.7159057,53.2450113 99.5310984,53.7353588 C100.345979,54.2257064 100.910895,54.8795031 101.225224,55.6964241 L101.225224,53.4289322 L107,53.4289322 Z" id="Fill-13" fill="#FEFEFE" mask="url(#mask-12)"></path>
                    <path d="M122.709675,63.2857143 C123.210539,62.6868132 123.461127,61.929541 123.461127,61.0151907 C123.461127,60.0808016 123.210539,59.3138332 122.709675,58.7142857 C122.208811,58.1150614 121.535785,57.8151261 120.691534,57.8151261 C119.866656,57.8151261 119.208315,58.1150614 118.71745,58.7142857 C118.226272,59.3138332 117.980995,60.0808016 117.980995,61.0151907 C117.980995,61.949903 118.226272,62.7117001 118.71745,63.300905 C119.208315,63.8904331 119.866656,64.1848739 120.691534,64.1848739 C121.535785,64.1848739 122.208811,63.8852618 122.709675,63.2857143 M115.123291,67.9789916 C114.121251,67.2983193 113.350426,66.3539108 112.810193,65.1447964 C112.26996,63.9360052 112,62.5594699 112,61.0151907 C112,59.4715579 112.27496,58.0895281 112.824879,56.8703943 C113.374798,55.6512605 114.15562,54.7016807 115.167347,54.0206852 C116.17876,53.3403361 117.342339,53 118.658708,53 C119.758234,53 120.70122,53.2436975 121.487042,53.7314156 C122.272239,54.2188106 122.851842,54.8694247 123.225224,55.6819651 L123.225224,53.4266322 L129,53.4266322 L129,68.5733678 L123.225224,68.5733678 L123.225224,66.3180349 C122.871839,67.1105365 122.287237,67.7556561 121.472357,68.2533937 C120.657164,68.750808 119.709179,69 118.629025,69 C117.293284,69 116.125018,68.6596639 115.123291,67.9789916" id="Fill-14" fill="#FEFEFE" mask="url(#mask-12)"></path>
                    <path d="M149,54 L149,68.5001883 C149,69.7704834 148.795112,70.8956209 148.386921,71.8749379 C147.978096,72.8539234 147.434476,73.6456623 146.757012,74.249823 C146.019288,74.8748625 145.201637,75.3229291 144.304696,75.5936912 C143.407438,75.8641218 142.271037,76 140.895177,76 C139.479355,76 138.303308,75.8750584 137.366404,75.6248437 C136.428866,75.3749605 135.631831,74.9686516 134.973715,74.4062486 C134.395207,73.9061507 133.921997,73.2860823 133.553452,72.5467062 C133.183955,71.8069988 133,71.051715 133,70.2811864 L138.861835,70.2811864 C138.901481,70.7812844 139.086071,71.1716855 139.41497,71.4530527 C139.74387,71.73442 140.237378,71.8749379 140.895177,71.8749379 C142.390608,71.8749379 143.138482,71.0414413 143.138482,69.3751111 L143.138482,66.5312806 C142.739172,67.3647771 142.140999,68.0156667 141.343965,68.4842806 C140.546296,68.953226 139.598926,69.187533 138.502805,69.187533 C134.834163,69.187533 133,66.9796785 133,62.5626441 L133,54 L138.861835,54 L138.861835,61.8438154 C138.861835,62.7396171 139.021052,63.4170194 139.340119,63.8750282 C139.65887,64.3336999 140.177434,64.5627043 140.895177,64.5627043 C142.390608,64.5627043 143.138482,63.4899297 143.138482,61.3437175 L143.138482,54 L149,54 Z" id="Fill-15" fill="#FEFEFE" mask="url(#mask-12)"></path>
                    <path d="M163.709872,63.2857143 C164.210745,62.6868132 164.461338,61.929541 164.461338,61.0151907 C164.461338,60.0808016 164.210745,59.3138332 163.709872,58.7142857 C163.208999,58.1150614 162.53596,57.8151261 161.691694,57.8151261 C160.8668,57.8151261 160.208447,58.1150614 159.717573,58.7142857 C159.226386,59.3138332 158.981105,60.0808016 158.981105,61.0151907 C158.981105,61.949903 159.226386,62.7117001 159.717573,63.300905 C160.208447,63.8904331 160.8668,64.1848739 161.691694,64.1848739 C162.53596,64.1848739 163.208999,63.8852618 163.709872,63.2857143 M156.123348,67.9789916 C155.12129,67.2983193 154.350451,66.3539108 153.810208,65.1447964 C153.269965,63.9360052 153,62.5594699 153,61.0151907 C153,59.4715579 153.274965,58.0895281 153.824894,56.8703943 C154.374823,55.6512605 155.15566,54.7016807 156.167405,54.0206852 C157.178837,53.3403361 158.342438,53 159.658831,53 C160.758377,53 161.70138,53.2436975 162.487217,53.7314156 C163.272428,54.2188106 163.852041,54.8694247 164.225431,55.6819651 L164.225431,53.4266322 L170,53.4266322 L170,68.5733678 L164.225431,68.5733678 L164.225431,66.3180349 C163.872039,67.1105365 163.287426,67.7556561 162.472531,68.2533937 C161.657324,68.750808 160.70932,69 159.629147,69 C158.293381,69 157.125094,68.6596639 156.123348,67.9789916" id="Fill-16" fill="#FEFEFE" mask="url(#mask-12)"></path>
                    <path d="M174,53.4109248 L179.818039,53.4109248 L179.818039,55.5539598 C180.193609,54.7124979 180.792382,54.0764984 181.614041,53.6459613 C182.434755,53.2157355 183.429561,53 184.597198,53 C188.198961,53 190,55.0356342 190,59.1056575 L190,68 L184.062962,68 L184.062962,60.5734684 C184.062962,59.6339449 183.89989,58.939731 183.573115,58.4892703 C183.246655,58.0394322 182.727215,57.8140462 182.014796,57.8140462 C180.549976,57.8140462 179.818039,58.773182 179.818039,60.690831 L179.818039,68 L174,68 L174,53.4109248 Z" id="Fill-17" fill="#FEFEFE" mask="url(#mask-12)"></path>
                    <path d="M204.724558,63.141973 C205.215432,62.5291198 205.461025,61.7632158 205.461025,60.843936 C205.461025,59.9246562 205.215432,59.1587522 204.724558,58.545899 C204.233683,57.9330458 203.565644,57.6266192 202.721065,57.6266192 C201.915544,57.6266192 201.257504,57.9281716 200.747257,58.5306264 C200.236073,59.1334062 199.981105,59.9045094 199.981105,60.843936 C199.981105,61.7836876 200.236073,62.5551157 200.747257,63.1572456 C201.257504,63.7600254 201.915544,64.0612528 202.721065,64.0612528 C203.565644,64.0612528 204.233683,63.7548262 204.724558,63.141973 L204.724558,63.141973 Z M211,53.4289322 L211,67.3705301 C211,68.7798325 210.739721,70.0208115 210.219475,71.0931421 C209.698917,72.1654727 208.957138,73.0282115 207.995074,73.6823331 C206.757421,74.5603444 204.960465,75 202.603268,75 C201.424982,75 200.412925,74.9181129 199.568658,74.7546638 C198.72408,74.5912146 197.937931,74.3052597 197.211774,73.8967993 C196.366883,73.4265985 195.674472,72.7939235 195.134542,71.9971493 C194.593986,71.2003752 194.324333,70.3932027 194.324333,69.5766066 L200.157958,69.5766066 C200.236073,70.0055389 200.47198,70.3373115 200.865054,70.5722494 C201.257504,70.8068623 201.807745,70.9248187 202.514842,70.9248187 C204.321797,70.9248187 205.225743,70.0055389 205.225743,68.1669793 L205.225743,65.7769818 C204.911096,66.5331374 204.331483,67.1456656 203.487217,67.6155414 C202.642638,68.0857421 201.719632,68.3203551 200.717886,68.3203551 C199.362435,68.3203551 198.178837,67.9983309 197.167405,67.3552575 C196.155348,66.7115342 195.374823,65.8182503 194.824894,64.674106 C194.274965,63.5302867 194,62.2226932 194,60.7519755 C194,59.2406393 194.279964,57.8976264 194.839892,56.722612 C195.39982,55.5482475 196.190031,54.6344918 197.211774,53.9803701 C198.23258,53.3268984 199.411179,53 200.747257,53 C201.78806,53 202.716066,53.2450113 203.531586,53.7353588 C204.346169,54.2257064 204.911096,54.8795031 205.225743,55.6964241 L205.225743,53.4289322 L211,53.4289322 Z" id="Fill-18" fill="#FEFEFE" mask="url(#mask-12)"></path>
                    <path d="M44.8511385,95.4343848 C45.3826346,94.8481047 45.6488615,94.1041723 45.6488615,93.2029209 C45.6488615,92.3023362 45.3826346,91.5584038 44.8511385,90.9714571 C44.3193233,90.3851771 43.6620558,90.0915371 42.8796552,90.0915371 L40.2608002,90.0915371 L40.2608002,96.3143048 L42.8493296,96.3143048 C43.6518408,96.3143048 44.3193233,96.0213314 44.8511385,95.4343848 M48.1923814,86.0685695 C49.3859332,86.7811714 50.319004,87.7610823 50.991594,89.0073024 C51.6638647,90.2538557 52,91.6527285 52,93.2029209 C52,94.75378 51.6638647,96.1523195 50.991594,97.3985395 C50.319004,98.6454262 49.3859332,99.6196709 48.1923814,100.321607 C46.9981911,101.023877 45.6587572,101.374178 44.1737604,101.374178 L40.2608002,101.374178 L40.2608002,107 L34,107 L34,85 L44.1737604,85 C45.6587572,85 46.9981911,85.3566342 48.1923814,86.0685695" id="Fill-19" fill="#FEFEFE" mask="url(#mask-12)"></path>
                    <path d="M65.709675,101.285714 C66.2105389,100.686813 66.461127,99.929541 66.461127,99.0151907 C66.461127,98.0808016 66.2105389,97.3138332 65.709675,96.7142857 C65.2088112,96.1150614 64.5357852,95.8151261 63.6915343,95.8151261 C62.8666556,95.8151261 62.208315,96.1150614 61.7174496,96.7142857 C61.2262719,97.3138332 60.9809954,98.0808016 60.9809954,99.0151907 C60.9809954,99.949903 61.2262719,100.7117 61.7174496,101.300905 C62.208315,101.890433 62.8666556,102.184874 63.6915343,102.184874 C64.5357852,102.184874 65.2088112,101.885262 65.709675,101.285714 M58.1232907,105.978992 C57.1212506,105.298319 56.3504264,104.353911 55.8101934,103.144796 C55.2699603,101.936005 55,100.55947 55,99.0151907 C55,97.4715579 55.2749596,96.0895281 55.8251911,94.8703943 C56.3747978,93.6512605 57.1556205,92.7016807 58.1673467,92.0206852 C59.1787605,91.3403361 60.3423394,91 61.6587083,91 C62.7582341,91 63.7012204,91.2436975 64.4870423,91.7314156 C65.2722394,92.2188106 65.8518416,92.8694247 66.2252242,93.6819651 L66.2252242,91.4266322 L72,91.4266322 L72,106.573368 L66.2252242,106.573368 L66.2252242,104.318035 C65.8718387,105.110537 65.2872372,105.755656 64.472357,106.253394 C63.6571644,106.750808 62.7091788,107 61.6290251,107 C60.2932841,107 59.1250184,106.659664 58.1232907,105.978992" id="Fill-20" fill="#FEFEFE" mask="url(#mask-12)"></path>
                    <path d="M85.7243604,101.141973 C86.2152257,100.52912 86.461127,99.7632158 86.461127,98.843936 C86.461127,97.9246562 86.2152257,97.1587522 85.7243604,96.545899 C85.2331826,95.9330458 84.5651559,95.6266192 83.720905,95.6266192 C82.9153985,95.6266192 82.2573702,95.9281716 81.7471328,96.5306264 C81.2359579,97.1334062 80.9809954,97.9045094 80.9809954,98.843936 C80.9809954,99.7836876 81.2359579,100.555116 81.7471328,101.157246 C82.2573702,101.760025 82.9153985,102.061253 83.720905,102.061253 C84.5651559,102.061253 85.2331826,101.754826 85.7243604,101.141973 L85.7243604,101.141973 Z M92,91.4289322 L92,105.37053 C92,106.779833 91.7394133,108.020811 91.2191773,109.093142 C90.6986289,110.165473 89.956863,111.028211 88.9948169,111.682333 C87.7571864,112.560344 85.9602632,113 83.6031098,113 C82.4245332,113 81.4128069,112.918113 80.5685561,112.754664 C79.7236803,112.591215 78.9378584,112.30526 78.2114027,111.896799 C77.3668394,111.426599 76.6744413,110.793923 76.1345207,109.997149 C75.5939752,109.200375 75.3240149,108.393203 75.3240149,107.576607 L81.1578444,107.576607 C81.2359579,108.005539 81.4715483,108.337311 81.864928,108.572249 C82.2573702,108.806862 82.8076018,108.924819 83.5146853,108.924819 C85.3216071,108.924819 86.2252242,108.005539 86.2252242,106.166979 L86.2252242,103.776982 C85.9108955,104.533137 85.3312932,105.145666 84.4870423,105.615541 C83.6421666,106.085742 82.7191773,106.320355 81.7174496,106.320355 C80.3623364,106.320355 79.1787605,105.998331 78.1673467,105.354933 C77.1556205,104.711534 76.3747978,103.81825 75.8248787,102.674106 C75.2749596,101.530287 75,100.222693 75,98.7519755 C75,97.2406393 75.2799588,95.8976264 75.839564,94.722612 C76.3994817,93.5482475 77.1899904,92.6344918 78.2114027,91.9803701 C79.2325026,91.3268984 80.4110793,91 81.7471328,91 C82.7879172,91 83.7159057,91.2450113 84.5310984,91.7353588 C85.3459785,92.2257064 85.9108955,92.8795031 86.2252242,93.6964241 L86.2252242,91.4289322 L92,91.4289322 Z" id="Fill-21" fill="#FEFEFE" mask="url(#mask-12)"></path>
                    <path d="M107.709675,101.222737 C108.210539,100.617236 108.461127,99.8516175 108.461127,98.9271901 C108.461127,97.982503 108.210539,97.207082 107.709675,96.6009268 C107.208811,95.9950985 106.535785,95.6918575 105.691534,95.6918575 C104.866656,95.6918575 104.208315,95.9950985 103.71745,96.6009268 C103.226272,97.207082 102.980995,97.982503 102.980995,98.9271901 C102.980995,99.8722039 103.226272,100.642397 103.71745,101.238095 C104.208315,101.834121 104.866656,102.131806 105.691534,102.131806 C106.535785,102.131806 107.208811,101.828892 107.709675,101.222737 L107.709675,101.222737 Z M114,85 L114,106.568666 L108.225224,106.568666 L108.225224,104.288477 C107.871839,105.089713 107.287237,105.741942 106.472357,106.245165 C105.657164,106.748062 104.709179,107 103.629025,107 C102.293284,107 101.125018,106.655913 100.123291,105.967739 C99.1212506,105.279565 98.3504264,104.324748 97.8101934,103.102308 C97.2699603,101.880195 97,100.488489 97,98.9271901 C97,97.3665449 97.2749596,95.9692838 97.8251911,94.7367139 C98.3747978,93.504144 99.1556205,92.5440989 100.167347,91.8555981 C101.17876,91.1677509 102.342339,90.823664 103.658708,90.823664 C104.758234,90.823664 105.70122,91.0700472 106.487042,91.5631405 C107.272239,92.0559071 107.851842,92.7136916 108.225224,93.535187 L108.225224,85 L114,85 Z" id="Fill-22" fill="#FEFEFE" mask="url(#mask-12)"></path>
                    <path d="M127.709675,101.285714 C128.210539,100.686813 128.461127,99.929541 128.461127,99.0151907 C128.461127,98.0808016 128.210539,97.3138332 127.709675,96.7142857 C127.208811,96.1150614 126.535785,95.8151261 125.691534,95.8151261 C124.866656,95.8151261 124.208315,96.1150614 123.71745,96.7142857 C123.226272,97.3138332 122.980995,98.0808016 122.980995,99.0151907 C122.980995,99.949903 123.226272,100.7117 123.71745,101.300905 C124.208315,101.890433 124.866656,102.184874 125.691534,102.184874 C126.535785,102.184874 127.208811,101.885262 127.709675,101.285714 M120.123291,105.978992 C119.121251,105.298319 118.350426,104.353911 117.810193,103.144796 C117.26996,101.936005 117,100.55947 117,99.0151907 C117,97.4715579 117.27496,96.0895281 117.825191,94.8703943 C118.374798,93.6512605 119.15562,92.7016807 120.167347,92.0206852 C121.17876,91.3403361 122.342339,91 123.658708,91 C124.758234,91 125.70122,91.2436975 126.487042,91.7314156 C127.272239,92.2188106 127.851842,92.8694247 128.225224,93.6819651 L128.225224,91.4266322 L134,91.4266322 L134,106.573368 L128.225224,106.573368 L128.225224,104.318035 C127.871839,105.110537 127.287237,105.755656 126.472357,106.253394 C125.657164,106.750808 124.709179,107 123.629025,107 C122.293284,107 121.125018,106.659664 120.123291,105.978992" id="Fill-23" fill="#FEFEFE" mask="url(#mask-12)"></path>
                    <path d="M148,101.366743 L148,105.708876 C146.842157,105.90265 145.581388,106 144.217034,106 C142.459717,106 141.02828,105.621415 139.922394,104.863628 C138.816508,104.10615 138.263729,102.648986 138.263729,100.492445 L138.263729,95.5968054 L136,95.5968054 L136,91.2253127 L138.263729,91.2253127 L138.263729,87 L144.341006,87 L144.341006,91.2253127 L147.845117,91.2253127 L147.845117,95.5968054 L144.341006,95.5968054 L144.341006,99.2976626 C144.341006,100.13333 144.532062,100.706306 144.914831,101.0169 C145.296942,101.327803 145.808616,101.483254 146.449523,101.483254 C146.821769,101.483254 147.338376,101.444623 148,101.366743" id="Fill-24" fill="#FEFEFE" mask="url(#mask-12)"></path>
                    <path d="M151.35315,107 L157.64719,107 L157.64719,91.2978804 L151.35315,91.2978804 L151.35315,107 Z M151.995086,89.7656639 C151.331355,89.1022507 151,88.3074951 151,87.3803919 C151,86.4325151 151.331355,85.6323986 151.995086,84.9793721 C152.658477,84.3266807 153.493505,84 154.50017,84 C155.484359,84 156.314279,84.3266807 156.988567,84.9793721 C157.662856,85.6323986 158,86.4325151 158,87.3803919 C158,88.3074951 157.662856,89.1022507 156.988567,89.7656639 C156.314279,90.4290771 155.484359,90.7611188 154.50017,90.7611188 C153.493505,90.7611188 152.658477,90.4290771 151.995086,89.7656639 L151.995086,89.7656639 Z" id="Fill-25" fill="#FEFEFE" mask="url(#mask-12)"></path>
                    <path d="M162,91.4109248 L167.818239,91.4109248 L167.818239,93.5539598 C168.193802,92.7124979 168.792563,92.0764984 169.614206,91.6459613 C170.434904,91.2157355 171.429375,91 172.597304,91 C176.198997,91 178,93.0356342 178,97.1056575 L178,106 L172.062764,106 L172.062764,98.5734684 C172.062764,97.6339449 171.90001,96.939731 171.573242,96.4892703 C171.246473,96.0394322 170.727044,95.8140462 170.014953,95.8140462 C168.550162,95.8140462 167.818239,96.773182 167.818239,98.690831 L167.818239,106 L162,106 L162,91.4109248 Z" id="Fill-26" fill="#FEFEFE" mask="url(#mask-12)"></path>
                    <path d="M191.724558,101.141973 C192.215432,100.52912 192.461025,99.7632158 192.461025,98.843936 C192.461025,97.9246562 192.215432,97.1587522 191.724558,96.545899 C191.233683,95.9330458 190.565644,95.6266192 189.721065,95.6266192 C188.915544,95.6266192 188.257504,95.9281716 187.747257,96.5306264 C187.236073,97.1334062 186.981105,97.9045094 186.981105,98.843936 C186.981105,99.7836876 187.236073,100.555116 187.747257,101.157246 C188.257504,101.760025 188.915544,102.061253 189.721065,102.061253 C190.565644,102.061253 191.233683,101.754826 191.724558,101.141973 L191.724558,101.141973 Z M198,91.4289322 L198,105.37053 C198,106.779833 197.739721,108.020811 197.219475,109.093142 C196.698917,110.165473 195.957138,111.028211 194.995074,111.682333 C193.757421,112.560344 191.960465,113 189.603268,113 C188.424982,113 187.412925,112.918113 186.568658,112.754664 C185.72408,112.591215 184.937931,112.30526 184.211774,111.896799 C183.366883,111.426599 182.674472,110.793923 182.134542,109.997149 C181.593986,109.200375 181.324333,108.393203 181.324333,107.576607 L187.157958,107.576607 C187.236073,108.005539 187.47198,108.337311 187.865054,108.572249 C188.257504,108.806862 188.807745,108.924819 189.514842,108.924819 C191.321797,108.924819 192.225743,108.005539 192.225743,106.166979 L192.225743,103.776982 C191.911096,104.533137 191.331483,105.145666 190.487217,105.615541 C189.642638,106.085742 188.719632,106.320355 187.717886,106.320355 C186.362435,106.320355 185.178837,105.998331 184.167405,105.354933 C183.155348,104.711534 182.374823,103.81825 181.824894,102.674106 C181.274965,101.530287 181,100.222693 181,98.7519755 C181,97.2406393 181.279964,95.8976264 181.839892,94.722612 C182.39982,93.5482475 183.190031,92.6344918 184.211774,91.9803701 C185.23258,91.3268984 186.411179,91 187.747257,91 C188.78806,91 189.716066,91.2450113 190.531586,91.7353588 C191.346169,92.2257064 191.911096,92.8795031 192.225743,93.6964241 L192.225743,91.4289322 L198,91.4289322 Z" id="Fill-27" fill="#FEFEFE" mask="url(#mask-12)"></path>
                    <path d="M40.7284758,149.139574 L38.0280727,162.372961 C37.8084098,163.449241 38.9181968,164.322485 39.9483519,163.884453 L71.1624207,150.604693 C72.5465333,150.015638 72.1142934,147.997808 70.604659,148 L42.090656,148.046374 C41.4279555,148.047314 40.8580466,148.504772 40.7284758,149.139574" id="Fill-28" fill="#231F20" mask="url(#mask-12)"></path>
                </g>
            </g>
        </g>
    </g>
</svg>